SplineFontDB: 3.0
FontName: Auvaiyar-Italic
FullName: Auvaiyar Italic
FamilyName: Auvaiyar
Weight: Book
Copyright: Copyright (c) 1995-2015, NLCI (http://www.nlci.in/fonts/) Derived from TAM Auvaiyar Italic by ttfbuilder v0.33
Version: 1.0 Wed Feb 01 17:22:17 1995
ItalicAngle: 12
UnderlinePosition: -634.88
UnderlineWidth: 40.96
Ascent: 1638
Descent: 410
InvalidEm: 0
sfntRevision: 0x00010000
LayerCount: 2
Layer: 0 1 "Back" 1
Layer: 1 1 "Fore" 0
XUID: [1021 899 -679140474 7620253]
StyleMap: 0x0041
FSType: 0
OS2Version: 1
OS2_WeightWidthSlopeOnly: 0
OS2_UseTypoMetrics: 0
CreationTime: 1522121139
ModificationTime: 1522121178
PfmFamily: 17
TTFWeight: 400
TTFWidth: 5
LineGap: 0
VLineGap: 0
Panose: 2 0 0 3 0 0 0 0 0 0
OS2TypoAscent: 1536
OS2TypoAOffset: 0
OS2TypoDescent: -674
OS2TypoDOffset: 0
OS2TypoLinegap: 0
OS2WinAscent: 1536
OS2WinAOffset: 0
OS2WinDescent: 674
OS2WinDOffset: 0
HheadAscent: 1536
HheadAOffset: 0
HheadDescent: -674
HheadDOffset: 0
OS2SubXSize: 1434
OS2SubYSize: 1331
OS2SubXOff: 0
OS2SubYOff: 293
OS2SupXSize: 1434
OS2SupYSize: 1331
OS2SupXOff: 0
OS2SupYOff: 928
OS2StrikeYSize: 102
OS2StrikeYPos: 530
OS2Vendor: 'Phsc'
OS2CodePages: 00000001.00000000
OS2UnicodeRanges: 80108003.02002000.00000000.00000000
Lookup: 260 0 0 "_holdAnchorsbase" { "_someAnchorsbase"  } []
DEI: 91125
ShortTable: maxp 16
  1
  0
  339
  273
  12
  362
  16
  1
  0
  0
  0
  0
  142
  0
  3
  2
EndShort

StartChar: .notdef
Encoding: 0 -1 0
Width: 1024
Flags: W
LayerCount: 2
Fore
SplineSet
63 0 m 1,0,-1
 63 1536 l 1,1,-1
 961 1536 l 1,2,-1
 961 0 l 1,3,-1
 63 0 l 1,0,-1
897 63 m 1,4,-1
 897 1473 l 1,5,-1
 127 1473 l 1,6,-1
 127 63 l 1,7,-1
 897 63 l 1,4,-1
EndSplineSet
EndChar

StartChar: exclam
Encoding: 4 33 4
Width: 692
Flags: W
LayerCount: 2
Fore
SplineSet
608 1294 m 0,0,1
 550 1068 550 1068 501 875 c 0,2,3
 480 793 480 793 459 710.5 c 0,4,5
 438 628 438 628 420 556 c 0,6,7
 402 484 402 484 388 428.5 c 0,8,9
 374 373 374 373 367 346 c 0,10,-1
 238 346 l 0,11,-1
 342 1231 l 0,12,13
 347 1270 347 1270 357.5 1301 c 0,14,15
 368 1332 368 1332 387 1354 c 0,16,17
 406 1376 406 1376 435 1387.5 c 0,18,19
 464 1399 464 1399 506 1399 c 0,20,21
 608 1399 608 1399 608 1294 c 0,0,1
401 100 m 0,22,23
 401 51 401 51 364.5 16.5 c 0,24,25
 328 -18 328 -18 266 -18 c 0,26,27
 244 -18 244 -18 220.5 -10.5 c 0,28,29
 197 -3 197 -3 178 12 c 0,30,31
 159 27 159 27 147 49 c 0,32,33
 135 71 135 71 135 100 c 0,34,35
 135 127 135 127 145 149.5 c 0,36,37
 155 172 155 172 173 188.5 c 0,38,39
 191 205 191 205 215 214 c 0,40,41
 239 223 239 223 266 223 c 0,42,43
 293 223 293 223 317.5 214 c 0,44,45
 342 205 342 205 360.5 189 c 0,46,47
 379 173 379 173 390 150.5 c 0,48,49
 401 128 401 128 401 100 c 0,22,23
EndSplineSet
EndChar

StartChar: quotedbl
Encoding: 5 34 5
Width: 678
Flags: W
LayerCount: 2
Fore
SplineSet
770 1384 m 0,0,1
 770 1373 770 1373 758.5 1334.5 c 0,2,3
 747 1296 747 1296 729.5 1242.5 c 0,4,5
 712 1189 712 1189 691.5 1128.5 c 0,6,7
 671 1068 671 1068 651.5 1014 c 0,8,9
 632 960 632 960 617.5 919 c 0,10,11
 603 878 603 878 598 864 c 0,12,-1
 532 864 l 0,13,-1
 557 1321 l 0,14,15
 559 1352 559 1352 566.5 1377.5 c 0,16,17
 574 1403 574 1403 588.5 1422 c 0,18,19
 603 1441 603 1441 626 1451.5 c 0,20,21
 649 1462 649 1462 684 1462 c 0,22,23
 721 1462 721 1462 745.5 1442 c 0,24,25
 770 1422 770 1422 770 1384 c 0,0,1
440 1384 m 0,26,27
 440 1373 440 1373 429 1334.5 c 0,28,29
 418 1296 418 1296 400.5 1242.5 c 0,30,31
 383 1189 383 1189 362.5 1128.5 c 0,32,33
 342 1068 342 1068 323.5 1014 c 0,34,35
 305 960 305 960 290 919 c 0,36,37
 275 878 275 878 270 864 c 0,38,-1
 205 864 l 0,39,-1
 231 1321 l 0,40,41
 233 1352 233 1352 240 1377.5 c 0,42,43
 247 1403 247 1403 261 1422 c 0,44,45
 275 1441 275 1441 298 1451.5 c 0,46,47
 321 1462 321 1462 356 1462 c 0,48,49
 391 1462 391 1462 415.5 1442 c 0,50,51
 440 1422 440 1422 440 1384 c 0,26,27
EndSplineSet
EndChar

StartChar: numbersign
Encoding: 6 35 6
Width: 1522
Flags: W
LayerCount: 2
Fore
SplineSet
1104 862 m 0,0,-1
 1006 569 l 0,1,-1
 1335 569 l 0,2,-1
 1335 467 l 0,3,-1
 971 467 l 0,4,-1
 797 -47 l 0,5,-1
 694 -14 l 0,6,-1
 856 467 l 0,7,-1
 559 467 l 0,8,-1
 385 -47 l 0,9,-1
 283 -12 l 0,10,-1
 446 467 l 0,11,-1
 156 467 l 0,12,-1
 156 569 l 0,13,-1
 479 569 l 0,14,-1
 580 862 l 0,15,-1
 250 862 l 0,16,-1
 250 967 l 0,17,-1
 614 967 l 0,18,-1
 778 1450 l 0,19,-1
 883 1417 l 0,20,-1
 727 967 l 0,21,-1
 1026 967 l 0,22,-1
 1188 1450 l 0,23,-1
 1294 1417 l 0,24,-1
 1139 967 l 0,25,-1
 1425 967 l 0,26,-1
 1425 862 l 0,27,-1
 1104 862 l 0,0,-1
692 862 m 0,28,-1
 594 569 l 0,29,-1
 891 569 l 0,30,-1
 989 862 l 0,31,-1
 692 862 l 0,28,-1
EndSplineSet
EndChar

StartChar: dollar
Encoding: 7 36 7
Width: 1139
Flags: W
LayerCount: 2
Fore
SplineSet
1001 1010 m 0,0,-1
 881 1010 l 0,1,-1
 891 1210 l 0,2,3
 891 1217 891 1217 883 1227.5 c 0,4,5
 875 1238 875 1238 868 1241 c 0,6,7
 866 1242 866 1242 855.5 1247 c 0,8,9
 845 1252 845 1252 829 1257.5 c 0,10,11
 813 1263 813 1263 791.5 1268.5 c 0,12,13
 770 1274 770 1274 745 1276 c 0,14,-1
 649 768 l 0,15,16
 717 746 717 746 777 714 c 0,17,18
 837 682 837 682 881.5 640 c 0,19,20
 926 598 926 598 951.5 544.5 c 0,21,22
 977 491 977 491 977 426 c 0,23,24
 977 347 977 347 951.5 285.5 c 0,25,26
 926 224 926 224 884.5 177.5 c 0,27,28
 843 131 843 131 791 99 c 0,29,30
 739 67 739 67 686 46 c 0,31,32
 633 25 633 25 584.5 14.5 c 0,33,34
 536 4 536 4 502 2 c 0,35,-1
 463 -209 l 0,36,-1
 342 -209 l 0,37,-1
 381 0 l 0,38,39
 327 3 327 3 280 10 c 0,40,41
 233 17 233 17 191 28 c 0,42,43
 149 39 149 39 109 54.5 c 0,44,45
 69 70 69 70 29 90 c 0,46,-1
 94 412 l 0,47,-1
 231 412 l 0,48,-1
 213 176 l 0,49,50
 213 168 213 168 217.5 164 c 0,51,52
 222 160 222 160 227 158 c 0,53,54
 231 156 231 156 247.5 148.5 c 0,55,56
 264 141 264 141 288 132 c 0,57,58
 312 123 312 123 341.5 115 c 0,59,60
 371 107 371 107 403 104 c 0,61,-1
 504 627 l 0,62,63
 439 654 439 654 384.5 688 c 0,64,65
 330 722 330 722 290 763.5 c 0,66,67
 250 805 250 805 227.5 855 c 0,68,69
 205 905 205 905 205 965 c 0,70,71
 205 1052 205 1052 241.5 1123 c 0,72,73
 278 1194 278 1194 339 1245.5 c 0,74,75
 400 1297 400 1297 480 1328.5 c 0,76,77
 560 1360 560 1360 647 1368 c 0,78,-1
 676 1522 l 0,79,-1
 793 1522 l 0,80,-1
 768 1374 l 0,81,82
 818 1372 818 1372 866 1364 c 0,83,84
 914 1356 914 1356 954.5 1346.5 c 0,85,86
 995 1337 995 1337 1025 1328 c 0,87,88
 1055 1319 1055 1319 1067 1315 c 0,89,-1
 1001 1010 l 0,0,-1
627 1268 m 0,90,91
 578 1253 578 1253 538 1229.5 c 0,92,93
 498 1206 498 1206 469.5 1174.5 c 0,94,95
 441 1143 441 1143 425.5 1104 c 0,96,97
 410 1065 410 1065 410 1020 c 0,98,99
 410 951 410 951 444 903 c 0,100,101
 478 855 478 855 541 823 c 0,102,-1
 627 1268 l 0,90,91
762 371 m 0,103,104
 762 437 762 437 727 488.5 c 0,105,106
 692 540 692 540 616 575 c 0,107,-1
 526 113 l 0,108,109
 641 141 641 141 701.5 208 c 0,110,111
 762 275 762 275 762 371 c 0,103,104
EndSplineSet
EndChar

StartChar: percent
Encoding: 8 37 8
Width: 1761
Flags: W
LayerCount: 2
Fore
SplineSet
1681 543 m 0,0,1
 1681 483 1681 483 1670 417 c 0,2,3
 1659 351 1659 351 1636 287 c 0,4,5
 1613 223 1613 223 1579 165 c 0,6,7
 1545 107 1545 107 1499 63 c 0,8,9
 1453 19 1453 19 1394.5 -7 c 0,10,11
 1336 -33 1336 -33 1266 -33 c 0,12,13
 1201 -33 1201 -33 1155 -10.5 c 0,14,15
 1109 12 1109 12 1080 51 c 0,16,17
 1051 90 1051 90 1037.5 142.5 c 0,18,19
 1024 195 1024 195 1024 254 c 0,20,21
 1024 314 1024 314 1035 380 c 0,22,23
 1046 446 1046 446 1069 509.5 c 0,24,25
 1092 573 1092 573 1126 630.5 c 0,26,27
 1160 688 1160 688 1206.5 731.5 c 0,28,29
 1253 775 1253 775 1311 801 c 0,30,31
 1369 827 1369 827 1440 827 c 0,32,33
 1505 827 1505 827 1551 804.5 c 0,34,35
 1597 782 1597 782 1626 743.5 c 0,36,37
 1655 705 1655 705 1668 653.5 c 0,38,39
 1681 602 1681 602 1681 543 c 0,0,1
401 0 m 0,40,-1
 272 0 l 0,41,-1
 1419 1374 l 0,42,-1
 1546 1374 l 0,43,-1
 401 0 l 0,40,-1
797 1122 m 0,44,45
 797 1062 797 1062 786 996.5 c 0,46,47
 775 931 775 931 752 867 c 0,48,49
 729 803 729 803 695 745 c 0,50,51
 661 687 661 687 614.5 643 c 0,52,53
 568 599 568 599 510 573 c 0,54,55
 452 547 452 547 381 547 c 0,56,57
 316 547 316 547 269.5 569.5 c 0,58,59
 223 592 223 592 193.5 631 c 0,60,61
 164 670 164 670 150.5 722.5 c 0,62,63
 137 775 137 775 137 834 c 0,64,65
 137 894 137 894 148.5 959.5 c 0,66,67
 160 1025 160 1025 182.5 1088.5 c 0,68,69
 205 1152 205 1152 239.5 1210 c 0,70,71
 274 1268 274 1268 320.5 1311.5 c 0,72,73
 367 1355 367 1355 425.5 1381 c 0,74,75
 484 1407 484 1407 555 1407 c 0,76,77
 620 1407 620 1407 666 1384.5 c 0,78,79
 712 1362 712 1362 741 1323.5 c 0,80,81
 770 1285 770 1285 783.5 1233 c 0,82,83
 797 1181 797 1181 797 1122 c 0,44,45
1532 582 m 0,84,85
 1532 609 1532 609 1528 638.5 c 0,86,87
 1524 668 1524 668 1512.5 692.5 c 0,88,89
 1501 717 1501 717 1479.5 733.5 c 0,90,91
 1458 750 1458 750 1423 750 c 0,92,93
 1377 750 1377 750 1340.5 720.5 c 0,94,95
 1304 691 1304 691 1276 643.5 c 0,96,97
 1248 596 1248 596 1228 537 c 0,98,99
 1208 478 1208 478 1195.5 419 c 0,100,101
 1183 360 1183 360 1177 307.5 c 0,102,103
 1171 255 1171 255 1171 221 c 0,104,105
 1171 193 1171 193 1175 162 c 0,106,107
 1179 131 1179 131 1191 104.5 c 0,108,109
 1203 78 1203 78 1225 60.5 c 0,110,111
 1247 43 1247 43 1282 43 c 0,112,113
 1327 43 1327 43 1363.5 73.5 c 0,114,115
 1400 104 1400 104 1427.5 152.5 c 0,116,117
 1455 201 1455 201 1475 261.5 c 0,118,119
 1495 322 1495 322 1507.5 382 c 0,120,121
 1520 442 1520 442 1526 495 c 0,122,123
 1532 548 1532 548 1532 582 c 0,84,85
645 1161 m 0,124,125
 645 1188 645 1188 641.5 1217.5 c 0,126,127
 638 1247 638 1247 626.5 1272 c 0,128,129
 615 1297 615 1297 594 1313 c 0,130,131
 573 1329 573 1329 539 1329 c 0,132,133
 492 1329 492 1329 455 1299.5 c 0,134,135
 418 1270 418 1270 390 1222.5 c 0,136,137
 362 1175 362 1175 342 1116 c 0,138,139
 322 1057 322 1057 309.5 998.5 c 0,140,141
 297 940 297 940 291 887.5 c 0,142,143
 285 835 285 835 285 801 c 0,144,145
 285 773 285 773 289.5 742 c 0,146,147
 294 711 294 711 306 685 c 0,148,149
 318 659 318 659 340 642 c 0,150,151
 362 625 362 625 397 625 c 0,152,153
 443 625 443 625 479 655.5 c 0,154,155
 515 686 515 686 542.5 734 c 0,156,157
 570 782 570 782 589.5 842 c 0,158,159
 609 902 609 902 621.5 962 c 0,160,161
 634 1022 634 1022 639.5 1074.5 c 0,162,163
 645 1127 645 1127 645 1161 c 0,124,125
EndSplineSet
EndChar

StartChar: ampersand
Encoding: 9 38 9
Width: 1442
Flags: W
LayerCount: 2
Fore
SplineSet
1231 631 m 0,0,1
 1188 540 1188 540 1121.5 444 c 0,2,3
 1055 348 1055 348 977 264 c 0,4,5
 1012 216 1012 216 1046 183.5 c 0,6,7
 1080 151 1080 151 1118 131 c 0,8,9
 1156 111 1156 111 1202 102 c 0,10,11
 1248 93 1248 93 1307 92 c 0,12,-1
 1307 2 l 0,13,14
 1257 0 1257 0 1221.5 -2 c 0,15,16
 1186 -4 1186 -4 1157 -6 c 0,17,18
 1125 -8 1125 -8 1094.5 -7 c 0,19,20
 1064 -6 1064 -6 1036 0 c 0,21,22
 1011 4 1011 4 987.5 13.5 c 0,23,24
 964 23 964 23 940.5 39 c 0,25,26
 917 55 917 55 892 79 c 0,27,28
 867 103 867 103 840 137 c 0,29,30
 795 103 795 103 746 74 c 0,31,32
 697 45 697 45 642 23.5 c 0,33,34
 587 2 587 2 525 -10.5 c 0,35,36
 463 -23 463 -23 391 -23 c 0,37,38
 314 -23 314 -23 247.5 0 c 0,39,40
 181 23 181 23 131.5 67 c 0,41,42
 82 111 82 111 53.5 174 c 0,43,44
 25 237 25 237 25 317 c 0,45,46
 25 393 25 393 52.5 456.5 c 0,47,48
 80 520 80 520 128 573.5 c 0,49,50
 176 627 176 627 240 671 c 0,51,52
 304 715 304 715 377 752 c 0,53,54
 354 784 354 784 333.5 816 c 0,55,56
 313 848 313 848 298 880.5 c 0,57,58
 283 913 283 913 274.5 947 c 0,59,60
 266 981 266 981 266 1018 c 0,61,62
 266 1101 266 1101 301 1171 c 0,63,64
 336 1241 336 1241 397 1292 c 0,65,66
 458 1343 458 1343 541.5 1372 c 0,67,68
 625 1401 625 1401 723 1401 c 0,69,70
 807 1401 807 1401 866 1378 c 0,71,72
 925 1355 925 1355 963 1316.5 c 0,73,74
 1001 1278 1001 1278 1018.5 1229.5 c 0,75,76
 1036 1181 1036 1181 1036 1130 c 0,77,78
 1036 1056 1036 1056 1005.5 997 c 0,79,80
 975 938 975 938 920 890 c 0,81,82
 865 842 865 842 788.5 804 c 0,83,84
 712 766 712 766 621 735 c 0,85,-1
 909 354 l 0,86,87
 962 413 962 413 1002 480 c 0,88,89
 1042 547 1042 547 1067 600 c 0,90,91
 1068 602 1068 602 1065 607 c 0,92,93
 1062 612 1062 612 1058.5 617 c 0,94,95
 1055 622 1055 622 1051.5 625.5 c 0,96,97
 1048 629 1048 629 1047 629 c 0,98,-1
 942 647 l 0,99,-1
 942 741 l 0,100,-1
 1378 741 l 0,101,-1
 1378 647 l 0,102,-1
 1231 631 l 0,0,1
836 1112 m 0,103,104
 836 1148 836 1148 826 1182 c 0,105,106
 816 1216 816 1216 796.5 1242 c 0,107,108
 777 1268 777 1268 748 1284 c 0,109,110
 719 1300 719 1300 682 1300 c 0,111,112
 645 1300 645 1300 604.5 1286 c 0,113,114
 564 1272 564 1272 530 1244 c 0,115,116
 496 1216 496 1216 473.5 1173.5 c 0,117,118
 451 1131 451 1131 451 1073 c 0,119,120
 451 1036 451 1036 461 999.5 c 0,121,122
 471 963 471 963 487 928.5 c 0,123,124
 503 894 503 894 523.5 862.5 c 0,125,126
 544 831 544 831 565 805 c 0,127,128
 625 829 625 829 675 858 c 0,129,130
 725 887 725 887 760.5 924 c 0,131,132
 796 961 796 961 816 1007 c 0,133,134
 836 1053 836 1053 836 1112 c 0,103,104
432 672 m 0,135,136
 344 615 344 615 293 543 c 0,137,138
 242 471 242 471 242 377 c 0,139,140
 242 315 242 315 263 265 c 0,141,142
 284 215 284 215 319 180 c 0,143,144
 354 145 354 145 400 125.5 c 0,145,146
 446 106 446 106 496 106 c 0,147,148
 532 106 532 106 564.5 112.5 c 0,149,150
 597 119 597 119 630 133 c 0,151,152
 663 147 663 147 697.5 168.5 c 0,153,154
 732 190 732 190 772 219 c 0,155,-1
 432 672 l 0,135,136
EndSplineSet
EndChar

StartChar: quotesingle
Encoding: 10 39 10
Width: 348
Flags: W
LayerCount: 2
Fore
SplineSet
451 1384 m 0,0,1
 451 1373 451 1373 439 1334.5 c 0,2,3
 427 1296 427 1296 409 1242.5 c 0,4,5
 391 1189 391 1189 369.5 1128.5 c 0,6,7
 348 1068 348 1068 328 1014 c 0,8,9
 308 960 308 960 292.5 919 c 0,10,11
 277 878 277 878 272 864 c 0,12,-1
 205 864 l 0,13,-1
 231 1321 l 0,14,15
 234 1352 234 1352 241.5 1377.5 c 0,16,17
 249 1403 249 1403 264 1422 c 0,18,19
 279 1441 279 1441 303 1451.5 c 0,20,21
 327 1462 327 1462 362 1462 c 0,22,23
 401 1462 401 1462 426 1442 c 0,24,25
 451 1422 451 1422 451 1384 c 0,0,1
EndSplineSet
EndChar

StartChar: parenleft
Encoding: 11 40 11
Width: 858
Flags: W
LayerCount: 2
Fore
SplineSet
938 1376 m 0,0,1
 853 1365 853 1365 782.5 1323 c 0,2,3
 712 1281 712 1281 654.5 1217.5 c 0,4,5
 597 1154 597 1154 551.5 1073.5 c 0,6,7
 506 993 506 993 472 904.5 c 0,8,9
 438 816 438 816 414 724 c 0,10,11
 390 632 390 632 375 545 c 0,12,13
 360 458 360 458 353 381 c 0,14,15
 346 304 346 304 346 246 c 0,16,17
 346 132 346 132 368.5 53.5 c 0,18,19
 391 -25 391 -25 430.5 -77 c 0,20,21
 470 -129 470 -129 523 -157.5 c 0,22,23
 576 -186 576 -186 637 -199 c 0,24,-1
 618 -293 l 0,25,26
 514 -287 514 -287 427.5 -242.5 c 0,27,28
 341 -198 341 -198 278 -122.5 c 0,29,30
 215 -47 215 -47 180 56.5 c 0,31,32
 145 160 145 160 145 285 c 0,33,34
 145 407 145 407 167 539 c 0,35,36
 189 671 189 671 233 798.5 c 0,37,38
 277 926 277 926 344 1042.5 c 0,39,40
 411 1159 411 1159 501 1250 c 0,41,42
 591 1341 591 1341 705 1399.5 c 0,43,44
 819 1458 819 1458 956 1470 c 0,45,-1
 938 1376 l 0,0,1
EndSplineSet
EndChar

StartChar: parenright
Encoding: 12 41 12
Width: 856
Flags: W
LayerCount: 2
Fore
SplineSet
711 909 m 0,0,1
 711 739 711 739 682.5 588 c 0,2,3
 654 437 654 437 602.5 308 c 0,4,5
 551 179 551 179 477.5 73.5 c 0,6,7
 404 -32 404 -32 314.5 -109 c 0,8,9
 225 -186 225 -186 120.5 -233.5 c 0,10,11
 16 -281 16 -281 -98 -295 c 0,12,-1
 -80 -197 l 0,13,14
 9 -185 9 -185 81.5 -140.5 c 0,15,16
 154 -96 154 -96 212.5 -29 c 0,17,18
 271 38 271 38 315.5 122.5 c 0,19,20
 360 207 360 207 393 298.5 c 0,21,22
 426 390 426 390 448.5 483.5 c 0,23,24
 471 577 471 577 484.5 662.5 c 0,25,26
 498 748 498 748 504 820.5 c 0,27,28
 510 893 510 893 510 942 c 0,29,30
 510 973 510 973 506 1014 c 0,31,32
 502 1055 502 1055 491.5 1100 c 0,33,34
 481 1145 481 1145 461 1190 c 0,35,36
 441 1235 441 1235 409 1273 c 0,37,38
 377 1311 377 1311 330.5 1338.5 c 0,39,40
 284 1366 284 1366 221 1376 c 0,41,-1
 240 1470 l 0,42,43
 349 1458 349 1458 426.5 1419 c 0,44,45
 504 1380 504 1380 556.5 1327 c 0,46,47
 609 1274 609 1274 639.5 1212 c 0,48,49
 670 1150 670 1150 686 1092 c 0,50,51
 702 1034 702 1034 706.5 985 c 0,52,53
 711 936 711 936 711 909 c 0,0,1
EndSplineSet
EndChar

StartChar: asterisk
Encoding: 13 42 13
Width: 1024
Flags: W
LayerCount: 2
Fore
SplineSet
952 1051 m 0,0,-1
 688 1036 l 0,1,-1
 680 1065 l 0,2,-1
 899 1210 l 0,3,-1
 1044 1167 l 0,4,-1
 952 1051 l 0,0,-1
655 1085 m 0,5,-1
 629 1085 l 0,6,-1
 557 1341 l 0,7,-1
 641 1466 l 0,8,-1
 727 1341 l 0,9,-1
 655 1085 l 0,5,-1
748 743 m 0,10,-1
 653 989 l 0,11,-1
 680 1008 l 0,12,-1
 887 842 l 0,13,-1
 891 690 l 0,14,-1
 748 743 l 0,10,-1
598 1036 m 0,15,-1
 332 1051 l 0,16,-1
 240 1167 l 0,17,-1
 383 1210 l 0,18,-1
 604 1065 l 0,19,-1
 598 1036 l 0,15,-1
537 743 m 0,20,-1
 393 690 l 0,21,-1
 397 842 l 0,22,-1
 604 1008 l 0,23,-1
 631 989 l 0,24,-1
 537 743 l 0,20,-1
EndSplineSet
EndChar

StartChar: plus
Encoding: 14 43 14
Width: 2048
Flags: W
LayerCount: 2
Fore
SplineSet
1087 551 m 0,0,-1
 1087 0 l 0,1,-1
 961 0 l 0,2,-1
 961 551 l 0,3,-1
 410 551 l 0,4,-1
 410 678 l 0,5,-1
 961 678 l 0,6,-1
 961 1229 l 0,7,-1
 1087 1229 l 0,8,-1
 1087 678 l 0,9,-1
 1638 678 l 0,10,-1
 1638 551 l 0,11,-1
 1087 551 l 0,0,-1
EndSplineSet
EndChar

StartChar: comma
Encoding: 15 44 15
Width: 573
Flags: W
LayerCount: 2
Fore
SplineSet
326 96 m 0,0,1
 326 9 326 9 289 -68 c 0,2,3
 252 -145 252 -145 190.5 -205 c 0,4,5
 129 -265 129 -265 50 -303 c 0,6,7
 -29 -341 -29 -341 -113 -348 c 0,8,-1
 -98 -274 l 0,9,10
 -35 -261 -35 -261 12.5 -237.5 c 0,11,12
 60 -214 60 -214 94.5 -179.5 c 0,13,14
 129 -145 129 -145 151 -97 c 0,15,16
 173 -49 173 -49 184 14 c 0,17,-1
 55 14 l 0,18,19
 44 28 44 28 39.5 45.5 c 0,20,21
 35 63 35 63 35 80 c 0,22,23
 35 111 35 111 48 141.5 c 0,24,25
 61 172 61 172 82.5 196 c 0,26,27
 104 220 104 220 132.5 235 c 0,28,29
 161 250 161 250 193 250 c 0,30,31
 229 250 229 250 254.5 238.5 c 0,32,33
 280 227 280 227 295.5 206 c 0,34,35
 311 185 311 185 318.5 157 c 0,36,37
 326 129 326 129 326 96 c 0,0,1
EndSplineSet
EndChar

StartChar: hyphen
Encoding: 16 45 16
Width: 653
Flags: W
LayerCount: 2
Fore
SplineSet
553 424 m 0,0,-1
 61 424 l 0,1,-1
 88 563 l 0,2,-1
 580 563 l 0,3,-1
 553 424 l 0,0,-1
EndSplineSet
EndChar

StartChar: period
Encoding: 17 46 17
Width: 573
Flags: W
LayerCount: 2
Fore
SplineSet
311 113 m 0,0,1
 311 84 311 84 300 59 c 0,2,3
 289 34 289 34 270 15.5 c 0,4,5
 251 -3 251 -3 225.5 -14 c 0,6,7
 200 -25 200 -25 172 -25 c 0,8,9
 143 -25 143 -25 118.5 -14 c 0,10,11
 94 -3 94 -3 76 15.5 c 0,12,13
 58 34 58 34 47.5 59 c 0,14,15
 37 84 37 84 37 113 c 0,16,17
 37 141 37 141 47.5 166 c 0,18,19
 58 191 58 191 76 209.5 c 0,20,21
 94 228 94 228 118.5 239 c 0,22,23
 143 250 143 250 172 250 c 0,24,25
 200 250 200 250 225.5 239 c 0,26,27
 251 228 251 228 270 209.5 c 0,28,29
 289 191 289 191 300 166 c 0,30,31
 311 141 311 141 311 113 c 0,0,1
EndSplineSet
EndChar

StartChar: slash
Encoding: 18 47 18
Width: 1004
Flags: W
LayerCount: 2
Fore
SplineSet
131 -190 m 0,0,-1
 0 -190 l 0,1,-1
 872 1374 l 0,2,-1
 1004 1374 l 0,3,-1
 131 -190 l 0,0,-1
EndSplineSet
EndChar

StartChar: zero
Encoding: 19 48 19
Width: 1139
Flags: W
LayerCount: 2
Fore
SplineSet
1128 946 m 0,0,1
 1128 826 1128 826 1107 707 c 0,2,3
 1086 588 1086 588 1046 479.5 c 0,4,5
 1006 371 1006 371 948.5 277 c 0,6,7
 891 183 891 183 817.5 114.5 c 0,8,9
 744 46 744 46 656 6.5 c 0,10,11
 568 -33 568 -33 467 -33 c 0,12,13
 372 -33 372 -33 298 -2 c 0,14,15
 224 29 224 29 173.5 87.5 c 0,16,17
 123 146 123 146 96.5 231.5 c 0,18,19
 70 317 70 317 70 426 c 0,20,21
 70 534 70 534 88.5 648.5 c 0,22,23
 107 763 107 763 144 872 c 0,24,25
 181 981 181 981 236.5 1078.5 c 0,26,27
 292 1176 292 1176 366 1249 c 0,28,29
 440 1322 440 1322 532.5 1364.5 c 0,30,31
 625 1407 625 1407 735 1407 c 0,32,33
 837 1407 837 1407 911 1371.5 c 0,34,35
 985 1336 985 1336 1033 1274 c 0,36,37
 1081 1212 1081 1212 1104.5 1127.5 c 0,38,39
 1128 1043 1128 1043 1128 946 c 0,0,1
907 981 m 0,40,41
 907 1065 907 1065 892 1125.5 c 0,42,43
 877 1186 877 1186 851 1225.5 c 0,44,45
 825 1265 825 1265 790 1284 c 0,46,47
 755 1303 755 1303 715 1303 c 0,48,49
 651 1303 651 1303 595.5 1262 c 0,50,51
 540 1221 540 1221 493 1152 c 0,52,53
 446 1083 446 1083 409 991.5 c 0,54,55
 372 900 372 900 346 799 c 0,56,57
 320 698 320 698 306.5 593.5 c 0,58,59
 293 489 293 489 293 393 c 0,60,61
 293 288 293 288 313 225 c 0,62,63
 333 162 333 162 362 128.5 c 0,64,65
 391 95 391 95 425 84.5 c 0,66,67
 459 74 459 74 487 74 c 0,68,69
 547 74 547 74 602 114.5 c 0,70,71
 657 155 657 155 703.5 223.5 c 0,72,73
 750 292 750 292 787.5 383 c 0,74,75
 825 474 825 474 851.5 575 c 0,76,77
 878 676 878 676 892.5 780.5 c 0,78,79
 907 885 907 885 907 981 c 0,40,41
EndSplineSet
EndChar

StartChar: one
Encoding: 20 49 20
Width: 1139
Flags: W
LayerCount: 2
Fore
SplineSet
623 147 m 0,0,1
 619 130 619 130 628 119 c 0,2,3
 637 108 637 108 662 106 c 0,4,-1
 815 96 l 0,5,-1
 815 0 l 0,6,-1
 172 0 l 0,7,-1
 172 96 l 0,8,-1
 379 106 l 0,9,10
 396 108 396 108 405.5 120 c 0,11,12
 415 132 415 132 418 147 c 0,13,-1
 627 1219 l 0,14,-1
 305 1178 l 0,15,-1
 305 1270 l 0,16,-1
 791 1407 l 0,17,-1
 866 1407 l 0,18,-1
 623 147 l 0,0,1
EndSplineSet
EndChar

StartChar: two
Encoding: 21 50 21
Width: 1139
Flags: W
LayerCount: 2
Fore
SplineSet
1096 1102 m 0,0,1
 1096 1032 1096 1032 1071.5 963 c 0,2,3
 1047 894 1047 894 1005 827 c 0,4,5
 963 760 963 760 905.5 696.5 c 0,6,7
 848 633 848 633 782 575 c 0,8,9
 718 518 718 518 651.5 466 c 0,10,11
 585 414 585 414 516 364.5 c 0,12,13
 447 315 447 315 377.5 267 c 0,14,15
 308 219 308 219 238 170 c 0,16,-1
 811 170 l 0,17,-1
 881 344 l 0,18,-1
 1004 344 l 0,19,-1
 940 0 l 0,20,-1
 -43 0 l 0,21,-1
 -16 133 l 0,22,23
 132 238 132 238 254 328.5 c 0,24,25
 376 419 376 419 473.5 499 c 0,26,27
 571 579 571 579 643.5 651 c 0,28,29
 716 723 716 723 764 793 c 0,30,31
 812 863 812 863 836 932.5 c 0,32,33
 860 1002 860 1002 860 1077 c 0,34,35
 860 1135 860 1135 844 1176.5 c 0,36,37
 828 1218 828 1218 799.5 1244 c 0,38,39
 771 1270 771 1270 733 1282 c 0,40,41
 695 1294 695 1294 651 1294 c 0,42,43
 624 1294 624 1294 598 1289 c 0,44,45
 572 1284 572 1284 550 1276.5 c 0,46,47
 528 1269 528 1269 510.5 1261 c 0,48,49
 493 1253 493 1253 481 1247 c 0,50,-1
 438 1030 l 0,51,52
 433 1026 433 1026 423.5 1020 c 0,53,54
 414 1014 414 1014 399.5 1008 c 0,55,56
 385 1002 385 1002 366.5 997.5 c 0,57,58
 348 993 348 993 324 993 c 0,59,60
 307 993 307 993 287.5 997 c 0,61,62
 268 1001 268 1001 251 1011 c 0,63,64
 234 1021 234 1021 222.5 1038.5 c 0,65,66
 211 1056 211 1056 211 1083 c 0,67,68
 211 1140 211 1140 251.5 1197.5 c 0,69,70
 292 1255 292 1255 361 1301.5 c 0,71,72
 430 1348 430 1348 522 1377.5 c 0,73,74
 614 1407 614 1407 717 1407 c 0,75,76
 797 1407 797 1407 866 1390 c 0,77,78
 935 1373 935 1373 986 1336.5 c 0,79,80
 1037 1300 1037 1300 1066.5 1242 c 0,81,82
 1096 1184 1096 1184 1096 1102 c 0,0,1
EndSplineSet
EndChar

StartChar: three
Encoding: 22 51 22
Width: 1139
Flags: W
LayerCount: 2
Fore
SplineSet
1096 1116 m 0,0,1
 1096 1062 1096 1062 1073.5 1006.5 c 0,2,3
 1051 951 1051 951 1005 900 c 0,4,5
 959 849 959 849 887.5 806 c 0,6,7
 816 763 816 763 719 733 c 0,8,9
 786 723 786 723 840 703.5 c 0,10,11
 894 684 894 684 932 652 c 0,12,13
 970 620 970 620 991 575 c 0,14,15
 1012 530 1012 530 1012 469 c 0,16,17
 1012 371 1012 371 965 280.5 c 0,18,19
 918 190 918 190 835 120.5 c 0,20,21
 752 51 752 51 639 9 c 0,22,23
 526 -33 526 -33 395 -33 c 0,24,25
 291 -33 291 -33 218.5 -10.5 c 0,26,27
 146 12 146 12 101 46 c 0,28,29
 56 80 56 80 36 119.5 c 0,30,31
 16 159 16 159 16 193 c 0,32,33
 16 207 16 207 22.5 227.5 c 0,34,35
 29 248 29 248 43.5 266.5 c 0,36,37
 58 285 58 285 82.5 298 c 0,38,39
 107 311 107 311 143 311 c 0,40,41
 169 311 169 311 192 306 c 0,42,43
 215 301 215 301 233 293 c 0,44,-1
 264 119 l 0,45,46
 271 114 271 114 285.5 106 c 0,47,48
 300 98 300 98 320 90.5 c 0,49,50
 340 83 340 83 364.5 77.5 c 0,51,52
 389 72 389 72 418 72 c 0,53,54
 492 72 492 72 558.5 100.5 c 0,55,56
 625 129 625 129 675 178.5 c 0,57,58
 725 228 725 228 754.5 294.5 c 0,59,60
 784 361 784 361 784 438 c 0,61,62
 784 510 784 510 758.5 554 c 0,63,64
 733 598 733 598 697 621 c 0,65,66
 661 644 661 644 622 651.5 c 0,67,68
 583 659 583 659 555 659 c 0,69,70
 517 659 517 659 482 655 c 0,71,72
 447 651 447 651 412 645 c 0,73,-1
 430 772 l 0,74,75
 528 767 528 767 608 790 c 0,76,77
 688 813 688 813 745 856 c 0,78,79
 802 899 802 899 833 959 c 0,80,81
 864 1019 864 1019 864 1090 c 0,82,83
 864 1150 864 1150 843 1190.5 c 0,84,85
 822 1231 822 1231 790.5 1256 c 0,86,87
 759 1281 759 1281 723 1292 c 0,88,89
 687 1303 687 1303 657 1303 c 0,90,91
 624 1303 624 1303 595 1296 c 0,92,93
 566 1289 566 1289 543 1279 c 0,94,95
 520 1269 520 1269 502.5 1258 c 0,96,97
 485 1247 485 1247 475 1239 c 0,98,-1
 444 1044 l 0,99,100
 437 1042 437 1042 424 1037.5 c 0,101,102
 411 1033 411 1033 395 1028.5 c 0,103,104
 379 1024 379 1024 362.5 1021 c 0,105,106
 346 1018 346 1018 332 1018 c 0,107,108
 313 1018 313 1018 294 1024 c 0,109,110
 275 1030 275 1030 259.5 1042.5 c 0,111,112
 244 1055 244 1055 234.5 1074 c 0,113,114
 225 1093 225 1093 225 1118 c 0,115,116
 225 1179 225 1179 268.5 1232 c 0,117,118
 312 1285 312 1285 382.5 1324 c 0,119,120
 453 1363 453 1363 543 1385 c 0,121,122
 633 1407 633 1407 725 1407 c 0,123,124
 903 1407 903 1407 999.5 1333 c 0,125,126
 1096 1259 1096 1259 1096 1116 c 0,0,1
EndSplineSet
EndChar

StartChar: four
Encoding: 23 52 23
Width: 1139
Flags: W
LayerCount: 2
Fore
SplineSet
1042 414 m 0,0,-1
 852 414 l 0,1,-1
 762 -55 l 0,2,-1
 569 -55 l 0,3,-1
 662 414 l 0,4,-1
 43 414 l 0,5,-1
 70 551 l 0,6,-1
 895 1407 l 0,7,-1
 1047 1407 l 0,8,-1
 883 555 l 0,9,-1
 1069 555 l 0,10,-1
 1042 414 l 0,0,-1
272 555 m 0,11,-1
 690 555 l 0,12,-1
 799 1098 l 0,13,-1
 272 555 l 0,11,-1
EndSplineSet
EndChar

StartChar: five
Encoding: 24 53 24
Width: 1139
Flags: W
LayerCount: 2
Fore
SplineSet
1079 1208 m 0,0,-1
 483 1208 l 0,1,-1
 403 811 l 0,2,3
 441 822 441 822 493.5 832 c 0,4,5
 546 842 546 842 614 842 c 0,6,7
 684 842 684 842 753.5 825.5 c 0,8,9
 823 809 823 809 878 770 c 0,10,11
 933 731 933 731 967 668 c 0,12,13
 1001 605 1001 605 1001 512 c 0,14,15
 1001 438 1001 438 978 369 c 0,16,17
 955 300 955 300 913.5 239.5 c 0,18,19
 872 179 872 179 814 129 c 0,20,21
 756 79 756 79 685 43 c 0,22,23
 614 7 614 7 532 -13 c 0,24,25
 450 -33 450 -33 362 -33 c 0,26,27
 199 -33 199 -33 109.5 18.5 c 0,28,29
 20 70 20 70 20 158 c 0,30,31
 20 182 20 182 29 205 c 0,32,33
 38 228 38 228 55.5 245 c 0,34,35
 73 262 73 262 98.5 272.5 c 0,36,37
 124 283 124 283 158 283 c 0,38,39
 175 283 175 283 192 280.5 c 0,40,41
 209 278 209 278 221 274 c 0,42,-1
 276 100 l 0,43,44
 308 89 308 89 340 80.5 c 0,45,46
 372 72 372 72 410 72 c 0,47,48
 487 72 487 72 555 104 c 0,49,50
 623 136 623 136 674 189.5 c 0,51,52
 725 243 725 243 754.5 313 c 0,53,54
 784 383 784 383 784 459 c 0,55,56
 784 536 784 536 755 586 c 0,57,58
 726 636 726 636 678 665.5 c 0,59,60
 630 695 630 695 569 707 c 0,61,62
 508 719 508 719 444 719 c 0,63,64
 423 719 423 719 393.5 717 c 0,65,66
 364 715 364 715 333 712 c 0,67,68
 302 709 302 709 273 706 c 0,69,70
 244 703 244 703 223 700 c 0,71,-1
 360 1374 l 0,72,-1
 1110 1374 l 0,73,-1
 1079 1208 l 0,0,-1
EndSplineSet
EndChar

StartChar: six
Encoding: 25 54 25
Width: 1139
Flags: W
LayerCount: 2
Fore
SplineSet
1063 555 m 0,0,1
 1063 436 1063 436 1019.5 329.5 c 0,2,3
 976 223 976 223 900 142.5 c 0,4,5
 824 62 824 62 722.5 14.5 c 0,6,7
 621 -33 621 -33 504 -33 c 0,8,9
 456 -33 456 -33 405 -24.5 c 0,10,11
 354 -16 354 -16 305.5 5 c 0,12,13
 257 26 257 26 214.5 61 c 0,14,15
 172 96 172 96 139.5 148.5 c 0,16,17
 107 201 107 201 88.5 273 c 0,18,19
 70 345 70 345 70 440 c 0,20,21
 70 565 70 565 100.5 685.5 c 0,22,23
 131 806 131 806 189 915 c 0,24,25
 247 1024 247 1024 331 1118 c 0,26,27
 415 1212 415 1212 522.5 1284.5 c 0,28,29
 630 1357 630 1357 759 1404.5 c 0,30,31
 888 1452 888 1452 1036 1468 c 0,32,-1
 1038 1356 l 0,33,34
 905 1341 905 1341 793 1294 c 0,35,36
 681 1247 681 1247 594 1176 c 0,37,38
 507 1105 507 1105 446.5 1014 c 0,39,40
 386 923 386 923 358 821 c 0,41,42
 433 871 433 871 514 898.5 c 0,43,44
 595 926 595 926 688 926 c 0,45,46
 770 926 770 926 839 900.5 c 0,47,48
 908 875 908 875 957.5 827 c 0,49,50
 1007 779 1007 779 1035 710.5 c 0,51,52
 1063 642 1063 642 1063 555 c 0,0,1
846 502 m 0,53,54
 846 569 846 569 831.5 623 c 0,55,56
 817 677 817 677 787 715 c 0,57,58
 757 753 757 753 710.5 774 c 0,59,60
 664 795 664 795 600 795 c 0,61,62
 569 795 569 795 538 790 c 0,63,64
 507 785 507 785 474 772.5 c 0,65,66
 441 760 441 760 404.5 739.5 c 0,67,68
 368 719 368 719 328 688 c 0,69,70
 326 678 326 678 319 648.5 c 0,71,72
 312 619 312 619 305 580 c 0,73,74
 298 541 298 541 292.5 498 c 0,75,76
 287 455 287 455 287 418 c 0,77,78
 287 366 287 366 296 305 c 0,79,80
 305 244 305 244 330 192 c 0,81,82
 355 140 355 140 399 105 c 0,83,84
 443 70 443 70 514 70 c 0,85,86
 578 70 578 70 638 105 c 0,87,88
 698 140 698 140 744.5 199.5 c 0,89,90
 791 259 791 259 818.5 337.5 c 0,91,92
 846 416 846 416 846 502 c 0,53,54
EndSplineSet
EndChar

StartChar: seven
Encoding: 26 55 26
Width: 1139
Flags: W
LayerCount: 2
Fore
SplineSet
1221 1286 m 0,0,-1
 289 -29 l 0,1,-1
 276 -76 l 0,2,-1
 74 -76 l 0,3,-1
 985 1208 l 0,4,-1
 389 1208 l 0,5,-1
 324 1024 l 0,6,-1
 193 1024 l 0,7,-1
 262 1374 l 0,8,-1
 1237 1374 l 0,9,-1
 1221 1286 l 0,0,-1
EndSplineSet
EndChar

StartChar: eight
Encoding: 27 56 27
Width: 1139
Flags: W
LayerCount: 2
Fore
SplineSet
1085 1118 m 0,0,1
 1085 1037 1085 1037 1060.5 977 c 0,2,3
 1036 917 1036 917 994 872 c 0,4,5
 952 827 952 827 896 793 c 0,6,7
 840 759 840 759 778 731 c 0,8,9
 818 713 818 713 863 687.5 c 0,10,11
 908 662 908 662 946 625 c 0,12,13
 984 588 984 588 1009 539.5 c 0,14,15
 1034 491 1034 491 1034 428 c 0,16,17
 1034 333 1034 333 990.5 249.5 c 0,18,19
 947 166 947 166 870.5 103 c 0,20,21
 794 40 794 40 690.5 3.5 c 0,22,23
 587 -33 587 -33 467 -33 c 0,24,25
 362 -33 362 -33 280.5 -9 c 0,26,27
 199 15 199 15 143.5 59.5 c 0,28,29
 88 104 88 104 59.5 166 c 0,30,31
 31 228 31 228 31 303 c 0,32,33
 31 353 31 353 48 409 c 0,34,35
 65 465 65 465 105.5 521 c 0,36,37
 146 577 146 577 212.5 629.5 c 0,38,39
 279 682 279 682 377 725 c 0,40,41
 325 753 325 753 292.5 784.5 c 0,42,43
 260 816 260 816 242 849 c 0,44,45
 224 882 224 882 217.5 915 c 0,46,47
 211 948 211 948 211 979 c 0,48,49
 211 1063 211 1063 245.5 1140.5 c 0,50,51
 280 1218 280 1218 344.5 1277.5 c 0,52,53
 409 1337 409 1337 502 1372 c 0,54,55
 595 1407 595 1407 711 1407 c 0,56,57
 804 1407 804 1407 874 1384.5 c 0,58,59
 944 1362 944 1362 991 1323 c 0,60,61
 1038 1284 1038 1284 1061.5 1231.5 c 0,62,63
 1085 1179 1085 1179 1085 1118 c 0,0,1
891 1100 m 0,64,65
 891 1147 891 1147 877 1185.5 c 0,66,67
 863 1224 863 1224 837.5 1251.5 c 0,68,69
 812 1279 812 1279 775 1294 c 0,70,71
 738 1309 738 1309 692 1309 c 0,72,73
 635 1309 635 1309 584.5 1286.5 c 0,74,75
 534 1264 534 1264 496.5 1225 c 0,76,77
 459 1186 459 1186 437.5 1134 c 0,78,79
 416 1082 416 1082 416 1024 c 0,80,81
 416 982 416 982 434.5 947 c 0,82,83
 453 912 453 912 487 882 c 0,84,85
 521 852 521 852 569.5 825.5 c 0,86,87
 618 799 618 799 678 774 c 0,88,89
 726 799 726 799 765 832.5 c 0,90,91
 804 866 804 866 832 906.5 c 0,92,93
 860 947 860 947 875.5 995.5 c 0,94,95
 891 1044 891 1044 891 1100 c 0,64,65
815 373 m 0,96,97
 815 421 815 421 785.5 462 c 0,98,99
 756 503 756 503 707.5 539 c 0,100,101
 659 575 659 575 596.5 607.5 c 0,102,103
 534 640 534 640 469 670 c 0,104,105
 419 643 419 643 376.5 609 c 0,106,107
 334 575 334 575 302.5 534 c 0,108,109
 271 493 271 493 253.5 444.5 c 0,110,111
 236 396 236 396 236 340 c 0,112,113
 236 286 236 286 254 238.5 c 0,114,115
 272 191 272 191 306.5 155.5 c 0,116,117
 341 120 341 120 390.5 99 c 0,118,119
 440 78 440 78 504 78 c 0,120,121
 569 78 569 78 626 103.5 c 0,122,123
 683 129 683 129 725 170 c 0,124,125
 767 211 767 211 791 264 c 0,126,127
 815 317 815 317 815 373 c 0,96,97
EndSplineSet
EndChar

StartChar: nine
Encoding: 28 57 28
Width: 1139
Flags: W
LayerCount: 2
Fore
SplineSet
1141 979 m 0,0,1
 1141 828 1141 828 1098.5 698.5 c 0,2,3
 1056 569 1056 569 982.5 459.5 c 0,4,5
 909 350 909 350 810.5 260.5 c 0,6,7
 712 171 712 171 600.5 100 c 0,8,9
 489 29 489 29 370 -24 c 0,10,11
 251 -77 251 -77 137 -113 c 0,12,-1
 94 -16 l 0,13,14
 203 26 203 26 302 74.5 c 0,15,16
 401 123 401 123 491.5 188.5 c 0,17,18
 582 254 582 254 664 343 c 0,19,20
 746 432 746 432 821 555 c 0,21,22
 787 538 787 538 749 522 c 0,23,24
 711 506 711 506 671 494 c 0,25,26
 631 482 631 482 589 474.5 c 0,27,28
 547 467 547 467 506 467 c 0,29,30
 442 467 442 467 376 486.5 c 0,31,32
 310 506 310 506 256 549 c 0,33,34
 202 592 202 592 167.5 661 c 0,35,36
 133 730 133 730 133 829 c 0,37,38
 133 949 133 949 178 1054.5 c 0,39,40
 223 1160 223 1160 302.5 1238 c 0,41,42
 382 1316 382 1316 490 1361.5 c 0,43,44
 598 1407 598 1407 723 1407 c 0,45,46
 758 1407 758 1407 803 1402 c 0,47,48
 848 1397 848 1397 894 1381 c 0,49,50
 940 1365 940 1365 984.5 1336 c 0,51,52
 1029 1307 1029 1307 1064 1259.5 c 0,53,54
 1099 1212 1099 1212 1120 1143 c 0,55,56
 1141 1074 1141 1074 1141 979 c 0,0,1
924 977 m 0,57,58
 924 1077 924 1077 901 1141.5 c 0,59,60
 878 1206 878 1206 843 1243.5 c 0,61,62
 808 1281 808 1281 766.5 1295 c 0,63,64
 725 1309 725 1309 688 1309 c 0,65,66
 620 1309 620 1309 560 1273 c 0,67,68
 500 1237 500 1237 454.5 1176.5 c 0,69,70
 409 1116 409 1116 382.5 1036.5 c 0,71,72
 356 957 356 957 356 870 c 0,73,74
 356 794 356 794 379 741 c 0,75,76
 402 688 402 688 437.5 654.5 c 0,77,78
 473 621 473 621 515.5 605.5 c 0,79,80
 558 590 558 590 598 590 c 0,81,82
 653 590 653 590 702 606.5 c 0,83,84
 751 623 751 623 789.5 644.5 c 0,85,86
 828 666 828 666 853 686.5 c 0,87,88
 878 707 878 707 885 715 c 0,89,90
 896 778 896 778 910 845 c 0,91,92
 924 912 924 912 924 977 c 0,57,58
EndSplineSet
EndChar

StartChar: colon
Encoding: 29 58 29
Width: 573
Flags: W
LayerCount: 2
Fore
SplineSet
461 874 m 0,0,1
 461 846 461 846 450 821 c 0,2,3
 439 796 439 796 420 777.5 c 0,4,5
 401 759 401 759 375.5 748 c 0,6,7
 350 737 350 737 322 737 c 0,8,9
 293 737 293 737 268 748 c 0,10,11
 243 759 243 759 224.5 777.5 c 0,12,13
 206 796 206 796 195 821 c 0,14,15
 184 846 184 846 184 874 c 0,16,17
 184 902 184 902 195 927.5 c 0,18,19
 206 953 206 953 224.5 971.5 c 0,20,21
 243 990 243 990 268 1001 c 0,22,23
 293 1012 293 1012 322 1012 c 0,24,25
 350 1012 350 1012 375.5 1001 c 0,26,27
 401 990 401 990 420 971.5 c 0,28,29
 439 953 439 953 450 927.5 c 0,30,31
 461 902 461 902 461 874 c 0,0,1
311 113 m 0,32,33
 311 84 311 84 300 59 c 0,34,35
 289 34 289 34 270 15.5 c 0,36,37
 251 -3 251 -3 225.5 -14 c 0,38,39
 200 -25 200 -25 172 -25 c 0,40,41
 143 -25 143 -25 118.5 -14 c 0,42,43
 94 -3 94 -3 75 15.5 c 0,44,45
 56 34 56 34 45.5 59 c 0,46,47
 35 84 35 84 35 113 c 0,48,49
 35 141 35 141 45.5 166 c 0,50,51
 56 191 56 191 75 209.5 c 0,52,53
 94 228 94 228 118.5 239 c 0,54,55
 143 250 143 250 172 250 c 0,56,57
 200 250 200 250 225.5 239 c 0,58,59
 251 228 251 228 270 209.5 c 0,60,61
 289 191 289 191 300 166 c 0,62,63
 311 141 311 141 311 113 c 0,32,33
EndSplineSet
EndChar

StartChar: semicolon
Encoding: 30 59 30
Width: 573
Flags: W
LayerCount: 2
Fore
SplineSet
461 874 m 0,0,1
 461 846 461 846 450 821 c 0,2,3
 439 796 439 796 420 777.5 c 0,4,5
 401 759 401 759 375.5 748 c 0,6,7
 350 737 350 737 322 737 c 0,8,9
 293 737 293 737 268 748 c 0,10,11
 243 759 243 759 224.5 777.5 c 0,12,13
 206 796 206 796 195 821 c 0,14,15
 184 846 184 846 184 874 c 0,16,17
 184 902 184 902 195 927.5 c 0,18,19
 206 953 206 953 224.5 971.5 c 0,20,21
 243 990 243 990 268 1001 c 0,22,23
 293 1012 293 1012 322 1012 c 0,24,25
 350 1012 350 1012 375.5 1001 c 0,26,27
 401 990 401 990 420 971.5 c 0,28,29
 439 953 439 953 450 927.5 c 0,30,31
 461 902 461 902 461 874 c 0,0,1
326 98 m 0,32,33
 326 11 326 11 289 -67 c 0,34,35
 252 -145 252 -145 190.5 -205 c 0,36,37
 129 -265 129 -265 50 -303 c 0,38,39
 -29 -341 -29 -341 -113 -348 c 0,40,-1
 -98 -274 l 0,41,42
 -35 -261 -35 -261 12.5 -238 c 0,43,44
 60 -215 60 -215 94.5 -180.5 c 0,45,46
 129 -146 129 -146 151 -98 c 0,47,48
 173 -50 173 -50 184 14 c 0,49,-1
 55 14 l 0,50,51
 44 28 44 28 39.5 47.5 c 0,52,53
 35 67 35 67 35 84 c 0,54,55
 35 114 35 114 48 143.5 c 0,56,57
 61 173 61 173 83 197 c 0,58,59
 105 221 105 221 133.5 235.5 c 0,60,61
 162 250 162 250 193 250 c 0,62,63
 228 250 228 250 253.5 238.5 c 0,64,65
 279 227 279 227 295 206.5 c 0,66,67
 311 186 311 186 318.5 158 c 0,68,69
 326 130 326 130 326 98 c 0,32,33
EndSplineSet
EndChar

StartChar: less
Encoding: 31 60 31
Width: 2048
Flags: W
LayerCount: 2
Fore
SplineSet
410 551 m 0,0,-1
 410 678 l 0,1,-1
 1638 1149 l 0,2,-1
 1638 1022 l 0,3,-1
 541 614 l 0,4,-1
 1638 207 l 0,5,-1
 1638 80 l 0,6,-1
 410 551 l 0,0,-1
EndSplineSet
EndChar

StartChar: equal
Encoding: 32 61 32
Width: 2048
Flags: W
LayerCount: 2
Fore
SplineSet
410 737 m 0,0,-1
 410 864 l 0,1,-1
 1638 864 l 0,2,-1
 1638 737 l 0,3,-1
 410 737 l 0,0,-1
410 365 m 0,4,-1
 410 492 l 0,5,-1
 1638 492 l 0,6,-1
 1638 365 l 0,7,-1
 410 365 l 0,4,-1
EndSplineSet
EndChar

StartChar: greater
Encoding: 33 62 33
Width: 2048
Flags: W
LayerCount: 2
Fore
SplineSet
410 80 m 0,0,-1
 410 207 l 0,1,-1
 1507 614 l 0,2,-1
 410 1022 l 0,3,-1
 410 1149 l 0,4,-1
 1638 678 l 0,5,-1
 1638 551 l 0,6,-1
 410 80 l 0,0,-1
EndSplineSet
EndChar

StartChar: question
Encoding: 34 63 34
Width: 995
Flags: W
LayerCount: 2
Fore
SplineSet
948 1112 m 0,0,1
 948 1009 948 1009 906.5 927.5 c 0,2,3
 865 846 865 846 798.5 782.5 c 0,4,5
 732 719 732 719 648.5 671.5 c 0,6,7
 565 624 565 624 481 590 c 0,8,-1
 434 346 l 0,9,-1
 297 346 l 0,10,-1
 352 651 l 0,11,12
 422 673 422 673 489 712.5 c 0,13,14
 556 752 556 752 608.5 807.5 c 0,15,16
 661 863 661 863 693 934.5 c 0,17,18
 725 1006 725 1006 725 1092 c 0,19,20
 725 1197 725 1197 668 1251 c 0,21,22
 611 1305 611 1305 512 1305 c 0,23,-1
 387 1102 l 0,24,-1
 328 1102 l 0,25,26
 275 1102 275 1102 245 1124 c 0,27,28
 215 1146 215 1146 215 1186 c 0,29,30
 215 1216 215 1216 232.5 1254.5 c 0,31,32
 250 1293 250 1293 292 1326.5 c 0,33,34
 334 1360 334 1360 402.5 1383.5 c 0,35,36
 471 1407 471 1407 573 1407 c 0,37,38
 664 1407 664 1407 734 1386.5 c 0,39,40
 804 1366 804 1366 851.5 1327.5 c 0,41,42
 899 1289 899 1289 923.5 1234.5 c 0,43,44
 948 1180 948 1180 948 1112 c 0,0,1
465 90 m 0,45,46
 465 66 465 66 456.5 44 c 0,47,48
 448 22 448 22 431 5 c 0,49,50
 414 -12 414 -12 389.5 -22.5 c 0,51,52
 365 -33 365 -33 334 -33 c 0,53,54
 302 -33 302 -33 276.5 -23 c 0,55,56
 251 -13 251 -13 233.5 4 c 0,57,58
 216 21 216 21 206.5 42.5 c 0,59,60
 197 64 197 64 197 88 c 0,61,62
 197 112 197 112 206.5 134.5 c 0,63,64
 216 157 216 157 233.5 174.5 c 0,65,66
 251 192 251 192 276.5 202.5 c 0,67,68
 302 213 302 213 334 213 c 0,69,70
 365 213 365 213 389.5 203 c 0,71,72
 414 193 414 193 431 175.5 c 0,73,74
 448 158 448 158 456.5 136 c 0,75,76
 465 114 465 114 465 90 c 0,45,46
EndSplineSet
EndChar

StartChar: at
Encoding: 35 64 35
Width: 1917
Flags: W
LayerCount: 2
Fore
SplineSet
1790 764 m 0,0,1
 1790 660 1790 660 1767 571.5 c 0,2,3
 1744 483 1744 483 1705.5 411 c 0,4,5
 1667 339 1667 339 1616 283.5 c 0,6,7
 1565 228 1565 228 1509 190.5 c 0,8,9
 1453 153 1453 153 1396 134 c 0,10,11
 1339 115 1339 115 1288 115 c 0,12,13
 1203 115 1203 115 1165.5 157.5 c 0,14,15
 1128 200 1128 200 1128 285 c 0,16,17
 1048 204 1048 204 977 160.5 c 0,18,19
 906 117 906 117 834 117 c 0,20,21
 778 117 778 117 731 140.5 c 0,22,23
 684 164 684 164 650 207.5 c 0,24,25
 616 251 616 251 597 312.5 c 0,26,27
 578 374 578 374 578 451 c 0,28,29
 578 568 578 568 621 670 c 0,30,31
 664 772 664 772 735 847 c 0,32,33
 806 922 806 922 897 965 c 0,34,35
 988 1008 988 1008 1085 1008 c 0,36,37
 1107 1008 1107 1008 1133 1004 c 0,38,39
 1159 1000 1159 1000 1185.5 992.5 c 0,40,41
 1212 985 1212 985 1238 974.5 c 0,42,43
 1264 964 1264 964 1286 952 c 0,44,-1
 1323 999 l 0,45,-1
 1440 999 l 0,46,47
 1438 993 1438 993 1431 963.5 c 0,48,49
 1424 934 1424 934 1413.5 890.5 c 0,50,51
 1403 847 1403 847 1390.5 792.5 c 0,52,53
 1378 738 1378 738 1365 683 c 0,54,55
 1335 553 1335 553 1298 391 c 0,56,57
 1290 356 1290 356 1290 326.5 c 0,58,59
 1290 297 1290 297 1299 276 c 0,60,61
 1308 255 1308 255 1326.5 243 c 0,62,63
 1345 231 1345 231 1374 231 c 0,64,65
 1404 231 1404 231 1439.5 247.5 c 0,66,67
 1475 264 1475 264 1510 296 c 0,68,69
 1545 328 1545 328 1577.5 374 c 0,70,71
 1610 420 1610 420 1635 479 c 0,72,73
 1660 538 1660 538 1675 609 c 0,74,75
 1690 680 1690 680 1690 762 c 0,76,77
 1690 858 1690 858 1667.5 937.5 c 0,78,79
 1645 1017 1645 1017 1605 1079.5 c 0,80,81
 1565 1142 1565 1142 1510.5 1188 c 0,82,83
 1456 1234 1456 1234 1392 1264.5 c 0,84,85
 1328 1295 1328 1295 1257 1310 c 0,86,87
 1186 1325 1186 1325 1114 1325 c 0,88,89
 997 1325 997 1325 892.5 1297.5 c 0,90,91
 788 1270 788 1270 699.5 1219.5 c 0,92,93
 611 1169 611 1169 539.5 1097 c 0,94,95
 468 1025 468 1025 418.5 936 c 0,96,97
 369 847 369 847 342 743.5 c 0,98,99
 315 640 315 640 315 526 c 0,100,101
 315 370 315 370 363.5 235 c 0,102,103
 412 100 412 100 504 1 c 0,104,105
 596 -98 596 -98 729 -154.5 c 0,106,107
 862 -211 862 -211 1032 -211 c 0,108,109
 1122 -211 1122 -211 1200.5 -197 c 0,110,111
 1279 -183 1279 -183 1346.5 -161 c 0,112,113
 1414 -139 1414 -139 1471 -112 c 0,114,115
 1528 -85 1528 -85 1575 -59 c 0,116,-1
 1604 -133 l 0,117,118
 1535 -170 1535 -170 1462.5 -202.5 c 0,119,120
 1390 -235 1390 -235 1313.5 -259.5 c 0,121,122
 1237 -284 1237 -284 1154.5 -298.5 c 0,123,124
 1072 -313 1072 -313 983 -313 c 0,125,126
 873 -313 873 -313 770.5 -288 c 0,127,128
 668 -263 668 -263 577.5 -215.5 c 0,129,130
 487 -168 487 -168 412 -98.5 c 0,131,132
 337 -29 337 -29 283.5 60 c 0,133,134
 230 149 230 149 200 257 c 0,135,136
 170 365 170 365 170 489 c 0,137,138
 170 641 170 641 206.5 768.5 c 0,139,140
 243 896 243 896 307 999 c 0,141,142
 371 1102 371 1102 458.5 1180 c 0,143,144
 546 1258 546 1258 648.5 1310 c 0,145,146
 751 1362 751 1362 863.5 1388.5 c 0,147,148
 976 1415 976 1415 1090 1415 c 0,149,150
 1242 1415 1242 1415 1370.5 1372.5 c 0,151,152
 1499 1330 1499 1330 1592 1247.5 c 0,153,154
 1685 1165 1685 1165 1737.5 1043.5 c 0,155,156
 1790 922 1790 922 1790 764 c 0,0,1
1217 805 m 0,157,158
 1220 818 1220 818 1211.5 838 c 0,159,160
 1203 858 1203 858 1186.5 876.5 c 0,161,162
 1170 895 1170 895 1146.5 908.5 c 0,163,164
 1123 922 1123 922 1096 922 c 0,165,166
 1020 922 1020 922 959 886.5 c 0,167,168
 898 851 898 851 855 789.5 c 0,169,170
 812 728 812 728 789 645.5 c 0,171,172
 766 563 766 563 766 469 c 0,173,174
 766 358 766 358 807 303 c 0,175,176
 848 248 848 248 926 248 c 0,177,178
 960 248 960 248 991 261.5 c 0,179,180
 1022 275 1022 275 1048.5 295 c 0,181,182
 1075 315 1075 315 1097 338 c 0,183,184
 1119 361 1119 361 1135 381 c 0,185,-1
 1217 805 l 0,157,158
EndSplineSet
EndChar

StartChar: A
Encoding: 36 65 36
Width: 1378
Flags: W
LayerCount: 2
Fore
SplineSet
801 0 m 0,0,-1
 801 86 l 0,1,-1
 895 96 l 0,2,3
 940 102 940 102 934 135 c 0,4,-1
 872 526 l 0,5,-1
 408 526 l 0,6,-1
 199 135 l 0,7,8
 188 115 188 115 198.5 107 c 0,9,10
 209 99 209 99 238 96 c 0,11,-1
 332 86 l 0,12,-1
 332 0 l 0,13,-1
 -109 0 l 0,14,-1
 -109 86 l 0,15,-1
 6 98 l 0,16,-1
 762 1407 l 0,17,-1
 926 1407 l 0,18,-1
 1147 135 l 0,19,20
 1150 115 1150 115 1158 106.5 c 0,21,22
 1166 98 1166 98 1188 96 c 0,23,-1
 1282 86 l 0,24,-1
 1282 0 l 0,25,-1
 801 0 l 0,0,-1
766 1155 m 0,26,-1
 463 623 l 0,27,-1
 854 623 l 0,28,-1
 766 1155 l 0,26,-1
EndSplineSet
EndChar

StartChar: B
Encoding: 37 66 37
Width: 1243
Flags: W
LayerCount: 2
Fore
SplineSet
948 1098 m 0,0,1
 948 1195 948 1195 874.5 1240.5 c 0,2,3
 801 1286 801 1286 670 1286 c 0,4,5
 638 1286 638 1286 610 1284 c 0,6,7
 582 1282 582 1282 565 1280 c 0,8,-1
 465 760 l 0,9,10
 477 759 477 759 490 758 c 0,11,-1
 517 757 l 0,12,13
 531 757 531 757 542.5 756.5 c 0,14,15
 554 756 554 756 561 756 c 0,16,17
 657 756 657 756 729.5 783.5 c 0,18,19
 802 811 802 811 850.5 857.5 c 0,20,21
 899 904 899 904 923.5 966.5 c 0,22,23
 948 1029 948 1029 948 1098 c 0,0,1
911 438 m 0,24,25
 911 501 911 501 889 544.5 c 0,26,27
 867 588 867 588 826.5 615 c 0,28,29
 786 642 786 642 728 654 c 0,30,31
 670 666 670 666 598 666 c 0,32,33
 560 666 560 666 519 663 c 0,34,35
 478 660 478 660 444 655 c 0,36,-1
 336 98 l 0,37,38
 348 97 348 97 364.5 96 c 0,39,40
 381 95 381 95 398.5 94 c 0,41,42
 416 93 416 93 433 92.5 c 0,43,44
 450 92 450 92 463 92 c 0,45,46
 683 92 683 92 797 183.5 c 0,47,48
 911 275 911 275 911 438 c 0,24,25
1176 1112 m 0,49,50
 1176 1033 1176 1033 1149 972 c 0,51,52
 1122 911 1122 911 1075.5 865.5 c 0,53,54
 1029 820 1029 820 966.5 787 c 0,55,56
 904 754 904 754 834 731 c 0,57,58
 901 722 901 722 956 703.5 c 0,59,60
 1011 685 1011 685 1051 653 c 0,61,62
 1091 621 1091 621 1113 573.5 c 0,63,64
 1135 526 1135 526 1135 459 c 0,65,66
 1135 333 1135 333 1089 245.5 c 0,67,68
 1043 158 1043 158 961.5 103.5 c 0,69,70
 880 49 880 49 769.5 24.5 c 0,71,72
 659 0 659 0 530 0 c 0,73,-1
 -31 0 l 0,74,-1
 -31 86 l 0,75,-1
 98 96 l 0,76,77
 117 98 117 98 125.5 107.5 c 0,78,79
 134 117 134 117 137 135 c 0,80,-1
 350 1237 l 0,81,82
 353 1254 353 1254 345 1265 c 0,83,84
 337 1276 337 1276 309 1278 c 0,85,-1
 195 1288 l 0,86,-1
 195 1374 l 0,87,-1
 770 1374 l 0,88,89
 881 1374 881 1374 958.5 1355.5 c 0,90,91
 1036 1337 1036 1337 1084.5 1302.5 c 0,92,93
 1133 1268 1133 1268 1154.5 1219.5 c 0,94,95
 1176 1171 1176 1171 1176 1112 c 0,49,50
EndSplineSet
EndChar

StartChar: C
Encoding: 38 67 38
Width: 1290
Flags: W
LayerCount: 2
Fore
SplineSet
1264 1006 m 0,0,-1
 1143 1006 l 0,1,-1
 1143 1196 l 0,2,3
 1143 1212 1143 1212 1131.5 1229 c 0,4,5
 1120 1246 1120 1246 1106 1251 c 0,6,7
 1102 1253 1102 1253 1088 1261.5 c 0,8,9
 1074 1270 1074 1270 1051.5 1279 c 0,10,11
 1029 1288 1029 1288 999 1295.5 c 0,12,13
 969 1303 969 1303 932 1303 c 0,14,15
 853 1303 853 1303 777 1278 c 0,16,17
 701 1253 701 1253 632.5 1206 c 0,18,19
 564 1159 564 1159 506 1091 c 0,20,21
 448 1023 448 1023 405.5 936.5 c 0,22,23
 363 850 363 850 339 746 c 0,24,25
 315 642 315 642 315 524 c 0,26,27
 315 408 315 408 348.5 323 c 0,28,29
 382 238 382 238 439 182 c 0,30,31
 496 126 496 126 572.5 99 c 0,32,33
 649 72 649 72 735 72 c 0,34,35
 768 72 768 72 795 76.5 c 0,36,37
 822 81 822 81 841.5 87 c 0,38,39
 861 93 861 93 873 98.5 c 0,40,41
 885 104 885 104 889 106 c 0,42,43
 901 108 901 108 915.5 120.5 c 0,44,45
 930 133 930 133 936 147 c 0,46,-1
 1024 381 l 0,47,-1
 1145 381 l 0,48,-1
 1090 49 l 0,49,50
 1078 45 1078 45 1038.5 32 c 0,51,52
 999 19 999 19 941.5 4.5 c 0,53,54
 884 -10 884 -10 813 -21.5 c 0,55,56
 742 -33 742 -33 668 -33 c 0,57,58
 566 -33 566 -33 484 -10 c 0,59,60
 402 13 402 13 339 53 c 0,61,62
 276 93 276 93 230 148 c 0,63,64
 184 203 184 203 155 267.5 c 0,65,66
 126 332 126 332 112 403 c 0,67,68
 98 474 98 474 98 547 c 0,69,70
 98 656 98 656 125 762 c 0,71,72
 152 868 152 868 203 963.5 c 0,73,74
 254 1059 254 1059 327 1140.5 c 0,75,76
 400 1222 400 1222 491.5 1281 c 0,77,78
 583 1340 583 1340 691.5 1373.5 c 0,79,80
 800 1407 800 1407 922 1407 c 0,81,82
 972 1407 972 1407 1018 1401.5 c 0,83,84
 1064 1396 1064 1396 1111 1385.5 c 0,85,86
 1158 1375 1158 1375 1209 1359.5 c 0,87,88
 1260 1344 1260 1344 1319 1325 c 0,89,-1
 1264 1006 l 0,0,-1
EndSplineSet
EndChar

StartChar: D
Encoding: 39 68 39
Width: 1374
Flags: W
LayerCount: 2
Fore
SplineSet
1337 850 m 0,0,1
 1337 724 1337 724 1308 612 c 0,2,3
 1279 500 1279 500 1224 405.5 c 0,4,5
 1169 311 1169 311 1090.5 236 c 0,6,7
 1012 161 1012 161 913.5 108.5 c 0,8,9
 815 56 815 56 698.5 28 c 0,10,11
 582 0 582 0 451 0 c 0,12,-1
 -31 0 l 0,13,-1
 -31 86 l 0,14,-1
 96 96 l 0,15,16
 116 98 116 98 124 107.5 c 0,17,18
 132 117 132 117 137 135 c 0,19,-1
 350 1237 l 0,20,21
 353 1254 353 1254 345 1265 c 0,22,23
 337 1276 337 1276 309 1278 c 0,24,-1
 195 1288 l 0,25,-1
 195 1374 l 0,26,-1
 684 1374 l 0,27,28
 824 1374 824 1374 943.5 1347 c 0,29,30
 1063 1320 1063 1320 1150.5 1258 c 0,31,32
 1238 1196 1238 1196 1287.5 1096 c 0,33,34
 1337 996 1337 996 1337 850 c 0,0,1
1116 868 m 0,35,36
 1116 996 1116 996 1077 1074 c 0,37,38
 1038 1152 1038 1152 972 1195 c 0,39,40
 906 1238 906 1238 819 1253.5 c 0,41,42
 732 1269 732 1269 637 1272 c 0,43,-1
 563 1272 l 0,44,-1
 338 106 l 0,45,-1
 487 106 l 0,46,47
 642 108 642 108 760 172.5 c 0,48,49
 878 237 878 237 957 343 c 0,50,51
 1036 449 1036 449 1076 585.5 c 0,52,53
 1116 722 1116 722 1116 868 c 0,35,36
EndSplineSet
EndChar

StartChar: E
Encoding: 40 69 40
Width: 1143
Flags: W
LayerCount: 2
Fore
SplineSet
1126 1067 m 0,0,-1
 995 1067 l 0,1,-1
 995 1233 l 0,2,3
 995 1255 995 1255 987 1263.5 c 0,4,5
 979 1272 979 1272 956 1272 c 0,6,-1
 563 1272 l 0,7,-1
 469 768 l 0,8,-1
 743 768 l 0,9,10
 765 768 765 768 776.5 776.5 c 0,11,12
 788 785 788 785 795 807 c 0,13,-1
 834 944 l 0,14,-1
 948 944 l 0,15,-1
 858 475 l 0,16,-1
 741 475 l 0,17,-1
 762 621 l 0,18,19
 768 662 768 662 723 662 c 0,20,-1
 446 662 l 0,21,-1
 340 102 l 0,22,-1
 821 102 l 0,23,24
 843 102 843 102 854.5 113.5 c 0,25,26
 866 125 866 125 872 143 c 0,27,-1
 936 340 l 0,28,-1
 1061 340 l 0,29,-1
 993 0 l 0,30,-1
 -31 0 l 0,31,-1
 -31 86 l 0,32,-1
 88 96 l 0,33,34
 131 99 131 99 137 135 c 0,35,-1
 350 1237 l 0,36,37
 353 1254 353 1254 345 1265 c 0,38,39
 337 1276 337 1276 311 1278 c 0,40,-1
 197 1288 l 0,41,-1
 197 1374 l 0,42,-1
 1188 1374 l 0,43,-1
 1126 1067 l 0,0,-1
EndSplineSet
EndChar

StartChar: F
Encoding: 41 70 41
Width: 1053
Flags: W
LayerCount: 2
Fore
SplineSet
1102 1044 m 0,0,-1
 971 1044 l 0,1,-1
 971 1233 l 0,2,3
 971 1255 971 1255 962 1263.5 c 0,4,5
 953 1272 953 1272 930 1272 c 0,6,-1
 563 1272 l 0,7,-1
 463 745 l 0,8,-1
 725 745 l 0,9,10
 747 745 747 745 758 754 c 0,11,12
 769 763 769 763 774 784 c 0,13,-1
 813 924 l 0,14,-1
 930 924 l 0,15,-1
 840 457 l 0,16,-1
 723 457 l 0,17,-1
 743 600 l 0,18,19
 747 620 747 620 735.5 630.5 c 0,20,21
 724 641 724 641 702 641 c 0,22,-1
 442 641 l 0,23,-1
 344 135 l 0,24,25
 341 120 341 120 349 109 c 0,26,27
 357 98 357 98 383 96 c 0,28,-1
 516 86 l 0,29,-1
 516 0 l 0,30,-1
 -31 0 l 0,31,-1
 -31 86 l 0,32,-1
 86 96 l 0,33,34
 128 99 128 99 137 135 c 0,35,-1
 350 1237 l 0,36,37
 353 1254 353 1254 345 1265 c 0,38,39
 337 1276 337 1276 309 1278 c 0,40,-1
 195 1288 l 0,41,-1
 195 1374 l 0,42,-1
 1165 1374 l 0,43,-1
 1102 1044 l 0,0,-1
EndSplineSet
EndChar

StartChar: G
Encoding: 42 71 42
Width: 1409
Flags: W
LayerCount: 2
Fore
SplineSet
1266 567 m 0,0,1
 1246 565 1246 565 1232.5 556.5 c 0,2,3
 1219 548 1219 548 1214 528 c 0,4,-1
 1122 47 l 0,5,6
 1112 44 1112 44 1087 37.5 c 0,7,8
 1062 31 1062 31 1027 22 c 0,9,10
 992 13 992 13 949.5 3.5 c 0,11,12
 907 -6 907 -6 861 -14.5 c 0,13,14
 815 -23 815 -23 768.5 -28 c 0,15,16
 722 -33 722 -33 680 -33 c 0,17,18
 563 -33 563 -33 474.5 -6 c 0,19,20
 386 21 386 21 321.5 66.5 c 0,21,22
 257 112 257 112 214 171.5 c 0,23,24
 171 231 171 231 145 296 c 0,25,26
 119 361 119 361 108.5 426 c 0,27,28
 98 491 98 491 98 549 c 0,29,30
 98 680 98 680 133 794.5 c 0,31,32
 168 909 168 909 229.5 1004.5 c 0,33,34
 291 1100 291 1100 374.5 1174.5 c 0,35,36
 458 1249 458 1249 556.5 1301 c 0,37,38
 655 1353 655 1353 763 1380 c 0,39,40
 871 1407 871 1407 981 1407 c 0,41,42
 1031 1407 1031 1407 1074.5 1403 c 0,43,44
 1118 1399 1118 1399 1162 1390.5 c 0,45,46
 1206 1382 1206 1382 1254.5 1368.5 c 0,47,48
 1303 1355 1303 1355 1362 1337 c 0,49,-1
 1298 1008 l 0,50,-1
 1159 1008 l 0,51,-1
 1165 1196 l 0,52,53
 1167 1219 1167 1219 1156 1233.5 c 0,54,55
 1145 1248 1145 1248 1126 1253 c 0,56,57
 1122 1254 1122 1254 1109 1261 c 0,58,59
 1096 1268 1096 1268 1074.5 1276 c 0,60,61
 1053 1284 1053 1284 1023 1290 c 0,62,63
 993 1296 993 1296 956 1296 c 0,64,65
 879 1296 879 1296 802.5 1271 c 0,66,67
 726 1246 726 1246 655.5 1199 c 0,68,69
 585 1152 585 1152 524.5 1083.5 c 0,70,71
 464 1015 464 1015 419.5 928.5 c 0,72,73
 375 842 375 842 349.5 738 c 0,74,75
 324 634 324 634 324 516 c 0,76,77
 324 433 324 433 343 368.5 c 0,78,79
 362 304 362 304 394 255 c 0,80,81
 426 206 426 206 467 172 c 0,82,83
 508 138 508 138 552 116.5 c 0,84,85
 596 95 596 95 640 85.5 c 0,86,87
 684 76 684 76 721 76 c 0,88,89
 752 76 752 76 783.5 80 c 0,90,91
 815 84 815 84 843 90 c 0,92,93
 871 96 871 96 893.5 102 c 0,94,95
 916 108 916 108 928 111 c 0,96,-1
 1008 528 l 0,97,98
 1011 545 1011 545 1003 555 c 0,99,100
 995 565 995 565 967 567 c 0,101,-1
 854 578 l 0,102,-1
 854 664 l 0,103,-1
 1382 664 l 0,104,-1
 1382 578 l 0,105,-1
 1266 567 l 0,0,1
EndSplineSet
EndChar

StartChar: H
Encoding: 43 72 43
Width: 1485
Flags: W
LayerCount: 2
Fore
SplineSet
1452 1278 m 0,0,1
 1433 1276 1433 1276 1420.5 1266.5 c 0,2,3
 1408 1257 1408 1257 1403 1237 c 0,4,-1
 1190 135 l 0,5,6
 1187 120 1187 120 1195 109 c 0,7,8
 1203 98 1203 98 1231 96 c 0,9,-1
 1346 86 l 0,10,-1
 1346 0 l 0,11,-1
 811 0 l 0,12,-1
 811 86 l 0,13,-1
 934 96 l 0,14,15
 952 98 952 98 966 107.5 c 0,16,17
 980 117 980 117 983 135 c 0,18,-1
 1085 668 l 0,19,-1
 446 668 l 0,20,-1
 344 135 l 0,21,22
 341 120 341 120 349 109 c 0,23,24
 357 98 357 98 383 96 c 0,25,-1
 502 86 l 0,26,-1
 502 0 l 0,27,-1
 -31 0 l 0,28,-1
 -31 86 l 0,29,-1
 86 96 l 0,30,31
 128 99 128 99 137 135 c 0,32,-1
 350 1237 l 0,33,34
 353 1254 353 1254 345 1265 c 0,35,36
 337 1276 337 1276 309 1278 c 0,37,-1
 195 1288 l 0,38,-1
 195 1374 l 0,39,-1
 727 1374 l 0,40,-1
 727 1288 l 0,41,-1
 606 1278 l 0,42,43
 588 1276 588 1276 574 1266.5 c 0,44,45
 560 1257 560 1257 557 1237 c 0,46,-1
 467 770 l 0,47,-1
 1106 770 l 0,48,-1
 1196 1237 l 0,49,50
 1199 1254 1199 1254 1191 1265 c 0,51,52
 1183 1276 1183 1276 1155 1278 c 0,53,-1
 1038 1288 l 0,54,-1
 1038 1374 l 0,55,-1
 1571 1374 l 0,56,-1
 1571 1288 l 0,57,-1
 1452 1278 l 0,0,1
EndSplineSet
EndChar

StartChar: I
Encoding: 44 73 44
Width: 643
Flags: W
LayerCount: 2
Fore
SplineSet
598 1278 m 0,0,1
 578 1276 578 1276 570 1266.5 c 0,2,3
 562 1257 562 1257 557 1237 c 0,4,-1
 344 135 l 0,5,6
 341 120 341 120 349 109 c 0,7,8
 357 98 357 98 385 96 c 0,9,-1
 504 86 l 0,10,-1
 504 0 l 0,11,-1
 -31 0 l 0,12,-1
 -31 86 l 0,13,-1
 98 96 l 0,14,15
 117 98 117 98 125.5 107.5 c 0,16,17
 134 117 134 117 137 135 c 0,18,-1
 350 1237 l 0,19,20
 353 1254 353 1254 345 1265 c 0,21,22
 337 1276 337 1276 311 1278 c 0,23,-1
 197 1288 l 0,24,-1
 197 1374 l 0,25,-1
 729 1374 l 0,26,-1
 729 1288 l 0,27,-1
 598 1278 l 0,0,1
EndSplineSet
EndChar

StartChar: J
Encoding: 45 74 45
Width: 958
Flags: W
LayerCount: 2
Fore
SplineSet
922 1278 m 0,0,1
 880 1275 880 1275 870 1237 c 0,2,-1
 739 524 l 0,3,4
 716 397 716 397 683 294 c 0,5,6
 650 191 650 191 593 118.5 c 0,7,8
 536 46 536 46 448.5 6.5 c 0,9,10
 361 -33 361 -33 229 -33 c 0,11,12
 169 -33 169 -33 122 -25 c 0,13,14
 75 -17 75 -17 41.5 -6.5 c 0,15,16
 8 4 8 4 -12.5 14.5 c 0,17,18
 -33 25 -33 25 -41 29 c 0,19,-1
 27 379 l 0,20,-1
 162 379 l 0,21,-1
 162 129 l 0,22,23
 162 103 162 103 187 88.5 c 0,24,25
 212 74 212 74 244 74 c 0,26,27
 309 74 309 74 355 103 c 0,28,29
 401 132 401 132 433 187 c 0,30,31
 465 242 465 242 487.5 322.5 c 0,32,33
 510 403 510 403 528 506 c 0,34,-1
 664 1237 l 0,35,36
 667 1254 667 1254 659 1265 c 0,37,38
 651 1276 651 1276 625 1278 c 0,39,-1
 506 1288 l 0,40,-1
 506 1374 l 0,41,-1
 1038 1374 l 0,42,-1
 1038 1288 l 0,43,-1
 922 1278 l 0,0,1
EndSplineSet
EndChar

StartChar: K
Encoding: 46 75 46
Width: 1343
Flags: W
LayerCount: 2
Fore
SplineSet
1245 1272 m 0,0,-1
 709 754 l 0,1,-1
 993 203 l 0,2,3
 1012 165 1012 165 1029.5 141.5 c 0,4,5
 1047 118 1047 118 1066 104.5 c 0,6,7
 1085 91 1085 91 1106.5 86.5 c 0,8,9
 1128 82 1128 82 1155 82 c 0,10,11
 1174 82 1174 82 1195 83 c 0,12,13
 1216 84 1216 84 1241 86 c 0,14,-1
 1241 0 l 0,15,16
 1193 -14 1193 -14 1141 -23.5 c 0,17,18
 1089 -33 1089 -33 1049 -33 c 0,19,20
 1004 -33 1004 -33 970.5 -26 c 0,21,22
 937 -19 937 -19 909 -1.5 c 0,23,24
 881 16 881 16 858 45 c 0,25,26
 835 74 835 74 811 119 c 0,27,-1
 559 604 l 0,28,-1
 434 604 l 0,29,-1
 342 135 l 0,30,31
 339 120 339 120 348 109 c 0,32,33
 357 98 357 98 383 96 c 0,34,-1
 502 86 l 0,35,-1
 502 0 l 0,36,-1
 -33 0 l 0,37,-1
 -33 86 l 0,38,-1
 86 96 l 0,39,40
 129 99 129 99 135 135 c 0,41,-1
 350 1237 l 0,42,43
 353 1254 353 1254 345 1265 c 0,44,45
 337 1276 337 1276 311 1278 c 0,46,-1
 197 1288 l 0,47,-1
 197 1374 l 0,48,-1
 729 1374 l 0,49,-1
 729 1288 l 0,50,-1
 608 1278 l 0,51,52
 588 1276 588 1276 575 1266.5 c 0,53,54
 562 1257 562 1257 557 1237 c 0,55,-1
 453 700 l 0,56,-1
 487 700 l 0,57,-1
 1032 1237 l 0,58,59
 1045 1249 1045 1249 1042.5 1262.5 c 0,60,61
 1040 1276 1040 1276 1018 1278 c 0,62,-1
 887 1288 l 0,63,-1
 887 1374 l 0,64,-1
 1417 1374 l 0,65,-1
 1417 1288 l 0,66,-1
 1245 1272 l 0,0,-1
EndSplineSet
EndChar

StartChar: L
Encoding: 47 76 47
Width: 1061
Flags: W
LayerCount: 2
Fore
SplineSet
915 0 m 0,0,-1
 -31 0 l 0,1,-1
 -31 86 l 0,2,-1
 88 96 l 0,3,4
 131 99 131 99 137 135 c 0,5,-1
 350 1237 l 0,6,7
 353 1254 353 1254 345 1265 c 0,8,9
 337 1276 337 1276 311 1278 c 0,10,-1
 197 1288 l 0,11,-1
 197 1374 l 0,12,-1
 729 1374 l 0,13,-1
 729 1288 l 0,14,-1
 608 1278 l 0,15,16
 585 1276 585 1276 572.5 1264 c 0,17,18
 560 1252 560 1252 557 1237 c 0,19,-1
 340 102 l 0,20,-1
 743 102 l 0,21,22
 763 102 763 102 775.5 113.5 c 0,23,24
 788 125 788 125 795 143 c 0,25,-1
 868 379 l 0,26,-1
 989 379 l 0,27,-1
 915 0 l 0,0,-1
EndSplineSet
EndChar

StartChar: M
Encoding: 48 77 48
Width: 1765
Flags: W
LayerCount: 2
Fore
SplineSet
1733 1278 m 0,0,1
 1691 1275 1691 1275 1681 1237 c 0,2,-1
 1470 135 l 0,3,4
 1467 120 1467 120 1475.5 109 c 0,5,6
 1484 98 1484 98 1511 96 c 0,7,-1
 1626 86 l 0,8,-1
 1626 0 l 0,9,-1
 1094 0 l 0,10,-1
 1094 86 l 0,11,-1
 1214 96 l 0,12,13
 1233 98 1233 98 1247 107.5 c 0,14,15
 1261 117 1261 117 1264 135 c 0,16,-1
 1462 1174 l 0,17,-1
 805 0 l 0,18,-1
 682 0 l 0,19,-1
 477 1163 l 0,20,-1
 287 135 l 0,21,22
 284 120 284 120 292 109 c 0,23,24
 300 98 300 98 326 96 c 0,25,-1
 440 86 l 0,26,-1
 440 0 l 0,27,-1
 -29 0 l 0,28,-1
 -29 86 l 0,29,-1
 88 96 l 0,30,31
 130 99 130 99 139 135 c 0,32,-1
 350 1237 l 0,33,34
 353 1254 353 1254 345 1265 c 0,35,36
 337 1276 337 1276 309 1278 c 0,37,-1
 195 1288 l 0,38,-1
 195 1374 l 0,39,-1
 653 1374 l 0,40,-1
 653 1317 l 0,41,-1
 829 326 l 0,42,-1
 1376 1307 l 0,43,-1
 1376 1374 l 0,44,-1
 1849 1374 l 0,45,-1
 1849 1288 l 0,46,-1
 1733 1278 l 0,0,1
EndSplineSet
EndChar

StartChar: N
Encoding: 49 78 49
Width: 1456
Flags: W
LayerCount: 2
Fore
SplineSet
1430 1278 m 0,0,1
 1410 1276 1410 1276 1396.5 1266.5 c 0,2,3
 1383 1257 1383 1257 1378 1237 c 0,4,-1
 1137 0 l 0,5,-1
 989 0 l 0,6,-1
 473 1087 l 0,7,-1
 291 135 l 0,8,9
 288 120 288 120 296 109 c 0,10,11
 304 98 304 98 332 96 c 0,12,-1
 446 86 l 0,13,-1
 446 0 l 0,14,-1
 -29 0 l 0,15,-1
 -29 86 l 0,16,-1
 88 96 l 0,17,18
 130 99 130 99 139 135 c 0,19,-1
 350 1237 l 0,20,21
 353 1254 353 1254 345 1265 c 0,22,23
 337 1276 337 1276 311 1278 c 0,24,-1
 197 1288 l 0,25,-1
 197 1374 l 0,26,-1
 592 1374 l 0,27,-1
 592 1321 l 0,28,-1
 1053 344 l 0,29,-1
 1227 1237 l 0,30,31
 1230 1254 1230 1254 1222 1265 c 0,32,33
 1214 1276 1214 1276 1188 1278 c 0,34,-1
 1071 1288 l 0,35,-1
 1071 1374 l 0,36,-1
 1546 1374 l 0,37,-1
 1546 1288 l 0,38,-1
 1430 1278 l 0,0,1
EndSplineSet
EndChar

StartChar: O
Encoding: 50 79 50
Width: 1454
Flags: W
LayerCount: 2
Fore
SplineSet
1415 854 m 0,0,1
 1415 746 1415 746 1392 638.5 c 0,2,3
 1369 531 1369 531 1325 432 c 0,4,5
 1281 333 1281 333 1216 248.5 c 0,6,7
 1151 164 1151 164 1066.5 101 c 0,8,9
 982 38 982 38 878.5 2.5 c 0,10,11
 775 -33 775 -33 655 -33 c 0,12,13
 532 -33 532 -33 430 7.5 c 0,14,15
 328 48 328 48 254 123 c 0,16,17
 180 198 180 198 139 303 c 0,18,19
 98 408 98 408 98 537 c 0,20,21
 98 647 98 647 123 754 c 0,22,23
 148 861 148 861 195.5 958 c 0,24,25
 243 1055 243 1055 310.5 1137 c 0,26,27
 378 1219 378 1219 462.5 1279 c 0,28,29
 547 1339 547 1339 647.5 1373 c 0,30,31
 748 1407 748 1407 860 1407 c 0,32,33
 987 1407 987 1407 1090 1363.5 c 0,34,35
 1193 1320 1193 1320 1265 1245 c 0,36,37
 1337 1170 1337 1170 1376 1069 c 0,38,39
 1415 968 1415 968 1415 854 c 0,0,1
1182 854 m 0,40,41
 1182 956 1182 956 1156.5 1039 c 0,42,43
 1131 1122 1131 1122 1085.5 1181.5 c 0,44,45
 1040 1241 1040 1241 977.5 1273 c 0,46,47
 915 1305 915 1305 842 1305 c 0,48,49
 767 1305 767 1305 700 1272 c 0,50,51
 633 1239 633 1239 576 1182 c 0,52,53
 519 1125 519 1125 473.5 1048.5 c 0,54,55
 428 972 428 972 396 885 c 0,56,57
 364 798 364 798 347 704.5 c 0,58,59
 330 611 330 611 330 520 c 0,60,61
 330 416 330 416 356.5 333.5 c 0,62,63
 383 251 383 251 428.5 193.5 c 0,64,65
 474 136 474 136 536 105 c 0,66,67
 598 74 598 74 670 74 c 0,68,69
 745 74 745 74 812 107.5 c 0,70,71
 879 141 879 141 936 199 c 0,72,73
 993 257 993 257 1038.5 333.5 c 0,74,75
 1084 410 1084 410 1116 497 c 0,76,77
 1148 584 1148 584 1165 675.5 c 0,78,79
 1182 767 1182 767 1182 854 c 0,40,41
EndSplineSet
EndChar

StartChar: P
Encoding: 51 80 51
Width: 1159
Flags: W
LayerCount: 2
Fore
SplineSet
1169 1047 m 0,0,1
 1169 923 1169 923 1122 824 c 0,2,3
 1075 725 1075 725 991.5 655.5 c 0,4,5
 908 586 908 586 793.5 549 c 0,6,7
 679 512 679 512 545 512 c 0,8,9
 529 512 529 512 507 512.5 c 0,10,11
 485 513 485 513 465 514 c 0,12,13
 441 515 441 515 416 516 c 0,14,-1
 340 135 l 0,15,16
 337 120 337 120 345 109 c 0,17,18
 353 98 353 98 381 96 c 0,19,-1
 498 86 l 0,20,-1
 498 0 l 0,21,-1
 -35 0 l 0,22,-1
 -35 86 l 0,23,-1
 84 96 l 0,24,25
 124 99 124 99 133 135 c 0,26,-1
 348 1237 l 0,27,28
 351 1254 351 1254 343 1265 c 0,29,30
 335 1276 335 1276 307 1278 c 0,31,-1
 193 1288 l 0,32,-1
 193 1374 l 0,33,-1
 702 1374 l 0,34,35
 828 1374 828 1374 916.5 1349.5 c 0,36,37
 1005 1325 1005 1325 1061.5 1281.5 c 0,38,39
 1118 1238 1118 1238 1143.5 1178 c 0,40,41
 1169 1118 1169 1118 1169 1047 c 0,0,1
956 1012 m 0,42,43
 956 1071 956 1071 939.5 1120 c 0,44,45
 923 1169 923 1169 885.5 1204 c 0,46,47
 848 1239 848 1239 787.5 1258.5 c 0,48,49
 727 1278 727 1278 639 1278 c 0,50,51
 620 1278 620 1278 598.5 1277 c 0,52,53
 577 1276 577 1276 561 1274 c 0,54,-1
 434 623 l 0,55,56
 479 619 479 619 524.5 620.5 c 0,57,58
 570 622 570 622 614 629.5 c 0,59,60
 658 637 658 637 699 651.5 c 0,61,62
 740 666 740 666 776 688 c 0,63,64
 815 711 815 711 848 742 c 0,65,66
 881 773 881 773 905 813 c 0,67,68
 929 853 929 853 942.5 902.5 c 0,69,70
 956 952 956 952 956 1012 c 0,42,43
EndSplineSet
EndChar

StartChar: Q
Encoding: 52 81 52
Width: 1454
Flags: W
LayerCount: 2
Fore
SplineSet
1479 -227 m 0,0,1
 1467 -233 1467 -233 1432 -250 c 0,2,3
 1397 -267 1397 -267 1348 -284 c 0,4,5
 1299 -301 1299 -301 1243 -314.5 c 0,6,7
 1187 -328 1187 -328 1133 -328 c 0,8,9
 1054 -328 1054 -328 995 -305 c 0,10,11
 936 -282 936 -282 891.5 -241 c 0,12,13
 847 -200 847 -200 813.5 -145 c 0,14,15
 780 -90 780 -90 752 -25 c 0,16,17
 729 -27 729 -27 701.5 -30 c 0,18,19
 674 -33 674 -33 649 -33 c 0,20,21
 536 -33 536 -33 435 4.5 c 0,22,23
 334 42 334 42 258.5 114 c 0,24,25
 183 186 183 186 138.5 291 c 0,26,27
 94 396 94 396 94 530 c 0,28,29
 94 636 94 636 119.5 742 c 0,30,31
 145 848 145 848 192.5 945.5 c 0,32,33
 240 1043 240 1043 308 1127.5 c 0,34,35
 376 1212 376 1212 461 1274 c 0,36,37
 546 1336 546 1336 647.5 1371.5 c 0,38,39
 749 1407 749 1407 862 1407 c 0,40,41
 987 1407 987 1407 1089 1365 c 0,42,43
 1191 1323 1191 1323 1263 1249 c 0,44,45
 1335 1175 1335 1175 1374 1074 c 0,46,47
 1413 973 1413 973 1413 856 c 0,48,49
 1413 801 1413 801 1406 734 c 0,50,51
 1399 667 1399 667 1381 594.5 c 0,52,53
 1363 522 1363 522 1331 447 c 0,54,55
 1299 372 1299 372 1249 299.5 c 0,56,57
 1199 227 1199 227 1129 161 c 0,58,59
 1059 95 1059 95 965 41 c 0,60,61
 996 -16 996 -16 1024 -62 c 0,62,63
 1052 -108 1052 -108 1084 -141 c 0,64,65
 1116 -174 1116 -174 1154 -191.5 c 0,66,67
 1192 -209 1192 -209 1243 -209 c 0,68,69
 1273 -209 1273 -209 1304.5 -202.5 c 0,70,71
 1336 -196 1336 -196 1367 -186 c 0,72,73
 1398 -176 1398 -176 1426.5 -164 c 0,74,75
 1455 -152 1455 -152 1479 -141 c 0,76,-1
 1479 -227 l 0,0,1
1182 856 m 0,77,78
 1182 953 1182 953 1158 1035 c 0,79,80
 1134 1117 1134 1117 1090.5 1176.5 c 0,81,82
 1047 1236 1047 1236 986.5 1269.5 c 0,83,84
 926 1303 926 1303 852 1303 c 0,85,86
 776 1303 776 1303 707 1271.5 c 0,87,88
 638 1240 638 1240 579.5 1185 c 0,89,90
 521 1130 521 1130 473.5 1055 c 0,91,92
 426 980 426 980 393 893 c 0,93,94
 360 806 360 806 342 711 c 0,95,96
 324 616 324 616 324 520 c 0,97,98
 324 424 324 424 348 342.5 c 0,99,100
 372 261 372 261 416.5 202 c 0,101,102
 461 143 461 143 524.5 109.5 c 0,103,104
 588 76 588 76 668 76 c 0,105,106
 741 76 741 76 807.5 109 c 0,107,108
 874 142 874 142 931.5 199 c 0,109,110
 989 256 989 256 1035 332.5 c 0,111,112
 1081 409 1081 409 1114 495.5 c 0,113,114
 1147 582 1147 582 1164.5 674.5 c 0,115,116
 1182 767 1182 767 1182 856 c 0,77,78
EndSplineSet
EndChar

StartChar: R
Encoding: 53 82 53
Width: 1313
Flags: W
LayerCount: 2
Fore
SplineSet
1260 0 m 0,0,1
 1218 -19 1218 -19 1181.5 -26 c 0,2,3
 1145 -33 1145 -33 1110 -33 c 0,4,5
 1017 -33 1017 -33 960.5 -3 c 0,6,7
 904 27 904 27 871.5 75 c 0,8,9
 839 123 839 123 823.5 181.5 c 0,10,11
 808 240 808 240 797 297 c 0,12,13
 785 354 785 354 770.5 409.5 c 0,14,15
 756 465 756 465 729.5 508.5 c 0,16,17
 703 552 703 552 659 579 c 0,18,19
 615 606 615 606 543 606 c 0,20,21
 529 606 529 606 511 605.5 c 0,22,23
 493 605 493 605 476 605 c 0,24,25
 457 604 457 604 436 604 c 0,26,-1
 348 135 l 0,27,28
 345 120 345 120 353 109 c 0,29,30
 361 98 361 98 387 96 c 0,31,-1
 506 86 l 0,32,-1
 506 0 l 0,33,-1
 -27 0 l 0,34,-1
 -27 86 l 0,35,-1
 90 96 l 0,36,37
 132 99 132 99 141 135 c 0,38,-1
 350 1237 l 0,39,40
 353 1254 353 1254 345 1265 c 0,41,42
 337 1276 337 1276 311 1278 c 0,43,-1
 197 1288 l 0,44,-1
 197 1374 l 0,45,-1
 745 1374 l 0,46,47
 830 1374 830 1374 910.5 1360 c 0,48,49
 991 1346 991 1346 1053 1311 c 0,50,51
 1115 1276 1115 1276 1152.5 1217.5 c 0,52,53
 1190 1159 1190 1159 1190 1071 c 0,54,55
 1190 988 1190 988 1157 921 c 0,56,57
 1124 854 1124 854 1067 801.5 c 0,58,59
 1010 749 1010 749 934 711 c 0,60,61
 858 673 858 673 772 649 c 0,62,63
 835 622 835 622 872.5 588.5 c 0,64,65
 910 555 910 555 933 514 c 0,66,67
 956 473 956 473 969 423 c 0,68,69
 982 373 982 373 997 315 c 0,70,71
 1012 258 1012 258 1030 214.5 c 0,72,73
 1048 171 1048 171 1077.5 142 c 0,74,75
 1107 113 1107 113 1150.5 98.5 c 0,76,77
 1194 84 1194 84 1260 84 c 0,78,-1
 1260 0 l 0,0,1
958 1042 m 0,79,80
 958 1117 958 1117 925.5 1163 c 0,81,82
 893 1209 893 1209 842 1234 c 0,83,84
 791 1259 791 1259 729 1266.5 c 0,85,86
 667 1274 667 1274 608 1272 c 0,87,88
 600 1272 600 1272 586 1271 c 0,89,90
 572 1270 572 1270 563 1270 c 0,91,-1
 459 711 l 0,92,-1
 504 711 l 0,93,94
 587 711 587 711 668 726 c 0,95,96
 749 741 749 741 813.5 779 c 0,97,98
 878 817 878 817 918 880.5 c 0,99,100
 958 944 958 944 958 1042 c 0,79,80
EndSplineSet
EndChar

StartChar: S
Encoding: 54 83 54
Width: 1067
Flags: W
LayerCount: 2
Fore
SplineSet
985 1020 m 0,0,-1
 864 1020 l 0,1,-1
 872 1227 l 0,2,3
 872 1237 872 1237 857 1250.5 c 0,4,5
 842 1264 842 1264 816.5 1276.5 c 0,6,7
 791 1289 791 1289 758 1298 c 0,8,9
 725 1307 725 1307 688 1307 c 0,10,11
 629 1307 629 1307 573.5 1286 c 0,12,13
 518 1265 518 1265 475 1227.5 c 0,14,15
 432 1190 432 1190 406.5 1138.5 c 0,16,17
 381 1087 381 1087 381 1026 c 0,18,19
 381 971 381 971 411 929.5 c 0,20,21
 441 888 441 888 485 856 c 0,22,23
 529 824 529 824 579 800 c 0,24,25
 629 776 629 776 670 756 c 0,26,27
 724 728 724 728 775.5 697 c 0,28,29
 827 666 827 666 867 627 c 0,30,31
 907 588 907 588 931.5 537.5 c 0,32,33
 956 487 956 487 956 420 c 0,34,35
 956 346 956 346 925.5 266 c 0,36,37
 895 186 895 186 827 119.5 c 0,38,39
 759 53 759 53 650.5 10 c 0,40,41
 542 -33 542 -33 385 -33 c 0,42,43
 306 -33 306 -33 238.5 -18.5 c 0,44,45
 171 -4 171 -4 119.5 14.5 c 0,46,47
 68 33 68 33 34.5 50.5 c 0,48,49
 1 68 1 68 -10 74 c 0,50,-1
 59 403 l 0,51,-1
 199 403 l 0,52,-1
 176 168 l 0,53,54
 175 156 175 156 190 144 c 0,55,56
 205 132 205 132 229 121.5 c 0,57,58
 253 111 253 111 282 102.5 c 0,59,60
 311 94 311 94 337.5 87.5 c 0,61,62
 364 81 364 81 384.5 77.5 c 0,63,64
 405 74 405 74 412 74 c 0,65,66
 478 74 478 74 538 94.5 c 0,67,68
 598 115 598 115 643.5 153.5 c 0,69,70
 689 192 689 192 716 247.5 c 0,71,72
 743 303 743 303 743 373 c 0,73,74
 743 425 743 425 712.5 465.5 c 0,75,76
 682 506 682 506 637.5 538 c 0,77,78
 593 570 593 570 543 594.5 c 0,79,80
 493 619 493 619 455 639 c 0,81,82
 401 667 401 667 350 697.5 c 0,83,84
 299 728 299 728 259.5 765.5 c 0,85,86
 220 803 220 803 196 850 c 0,87,88
 172 897 172 897 172 958 c 0,89,90
 172 1060 172 1060 212 1143 c 0,91,92
 252 1226 252 1226 323.5 1284.5 c 0,93,94
 395 1343 395 1343 492.5 1375 c 0,95,96
 590 1407 590 1407 705 1407 c 0,97,98
 774 1407 774 1407 833 1397.5 c 0,99,100
 892 1388 892 1388 937 1375 c 0,101,102
 982 1362 982 1362 1011.5 1350 c 0,103,104
 1041 1338 1041 1338 1051 1333 c 0,105,-1
 985 1020 l 0,0,-1
EndSplineSet
EndChar

StartChar: T
Encoding: 55 84 55
Width: 1200
Flags: W
LayerCount: 2
Fore
SplineSet
1266 1061 m 0,0,-1
 1137 1061 l 0,1,-1
 1145 1241 l 0,2,3
 1148 1282 1148 1282 1106 1282 c 0,4,-1
 842 1282 l 0,5,-1
 629 135 l 0,6,7
 626 120 626 120 634 109 c 0,8,9
 642 98 642 98 670 96 c 0,10,-1
 786 86 l 0,11,-1
 786 0 l 0,12,-1
 254 0 l 0,13,-1
 254 86 l 0,14,-1
 373 96 l 0,15,16
 391 98 391 98 405 107.5 c 0,17,18
 419 117 419 117 422 135 c 0,19,-1
 635 1282 l 0,20,-1
 379 1282 l 0,21,22
 340 1282 340 1282 328 1241 c 0,23,-1
 264 1061 l 0,24,-1
 135 1061 l 0,25,-1
 195 1374 l 0,26,-1
 1329 1374 l 0,27,-1
 1266 1061 l 0,0,-1
EndSplineSet
EndChar

StartChar: U
Encoding: 56 85 56
Width: 1448
Flags: W
LayerCount: 2
Fore
SplineSet
1415 1278 m 0,0,1
 1397 1276 1397 1276 1383 1266.5 c 0,2,3
 1369 1257 1369 1257 1366 1237 c 0,4,-1
 1208 438 l 0,5,6
 1187 327 1187 327 1141 239.5 c 0,7,8
 1095 152 1095 152 1023.5 91.5 c 0,9,10
 952 31 952 31 855.5 -1 c 0,11,12
 759 -33 759 -33 637 -33 c 0,13,14
 542 -33 542 -33 460.5 -13.5 c 0,15,16
 379 6 379 6 318 49 c 0,17,18
 257 92 257 92 222.5 160 c 0,19,20
 188 228 188 228 188 326 c 0,21,22
 188 357 188 357 194.5 413 c 0,23,24
 201 469 201 469 215 541 c 0,25,-1
 358 1237 l 0,26,27
 361 1254 361 1254 353 1265 c 0,28,29
 345 1276 345 1276 317 1278 c 0,30,-1
 203 1288 l 0,31,-1
 203 1374 l 0,32,-1
 735 1374 l 0,33,-1
 735 1288 l 0,34,-1
 614 1278 l 0,35,36
 596 1276 596 1276 582 1266.5 c 0,37,38
 568 1257 568 1257 565 1237 c 0,39,-1
 424 541 l 0,40,41
 412 481 412 481 406.5 433.5 c 0,42,43
 401 386 401 386 401 358 c 0,44,45
 401 293 401 293 421.5 245 c 0,46,47
 442 197 442 197 479.5 164.5 c 0,48,49
 517 132 517 132 570.5 116 c 0,50,51
 624 100 624 100 690 100 c 0,52,53
 790 100 790 100 857.5 133.5 c 0,54,55
 925 167 925 167 970 223 c 0,56,57
 1015 279 1015 279 1041 353.5 c 0,58,59
 1067 428 1067 428 1083 510 c 0,60,-1
 1227 1237 l 0,61,62
 1230 1254 1230 1254 1222 1265 c 0,63,64
 1214 1276 1214 1276 1186 1278 c 0,65,-1
 1071 1288 l 0,66,-1
 1071 1374 l 0,67,-1
 1534 1374 l 0,68,-1
 1534 1288 l 0,69,-1
 1415 1278 l 0,0,1
EndSplineSet
EndChar

StartChar: V
Encoding: 57 86 57
Width: 1317
Flags: W
LayerCount: 2
Fore
SplineSet
1358 1276 m 0,0,-1
 651 -33 l 0,1,-1
 496 -33 l 0,2,-1
 297 1243 l 0,3,4
 294 1263 294 1263 281 1272.5 c 0,5,6
 268 1282 268 1282 248 1284 c 0,7,-1
 170 1288 l 0,8,-1
 170 1374 l 0,9,-1
 635 1374 l 0,10,-1
 635 1288 l 0,11,-1
 547 1284 l 0,12,13
 524 1282 524 1282 513.5 1273.5 c 0,14,15
 503 1265 503 1265 506 1243 c 0,16,-1
 659 252 l 0,17,-1
 1180 1243 l 0,18,19
 1188 1259 1188 1259 1183 1270.5 c 0,20,21
 1178 1282 1178 1282 1149 1284 c 0,22,-1
 1049 1288 l 0,23,-1
 1049 1374 l 0,24,-1
 1466 1374 l 0,25,-1
 1466 1288 l 0,26,-1
 1358 1276 l 0,0,-1
EndSplineSet
EndChar

StartChar: W
Encoding: 58 87 58
Width: 1898
Flags: W
LayerCount: 2
Fore
SplineSet
1927 1276 m 0,0,-1
 1313 -33 l 0,1,-1
 1182 -33 l 0,2,-1
 1063 1061 l 0,3,-1
 551 -33 l 0,4,-1
 408 -33 l 0,5,-1
 305 1243 l 0,6,7
 303 1263 303 1263 292.5 1272.5 c 0,8,9
 282 1282 282 1282 256 1284 c 0,10,-1
 170 1288 l 0,11,-1
 170 1374 l 0,12,-1
 643 1374 l 0,13,-1
 643 1288 l 0,14,-1
 553 1284 l 0,15,16
 530 1282 530 1282 521 1272 c 0,17,18
 512 1262 512 1262 512 1243 c 0,19,-1
 584 354 l 0,20,-1
 1065 1374 l 0,21,-1
 1231 1374 l 0,22,-1
 1335 340 l 0,23,-1
 1751 1243 l 0,24,25
 1769 1281 1769 1281 1712 1284 c 0,26,-1
 1620 1288 l 0,27,-1
 1620 1374 l 0,28,-1
 2048 1374 l 0,29,-1
 2048 1288 l 0,30,-1
 1927 1276 l 0,0,-1
EndSplineSet
EndChar

StartChar: X
Encoding: 59 88 59
Width: 1296
Flags: W
LayerCount: 2
Fore
SplineSet
1266 1280 m 0,0,1
 1250 1278 1250 1278 1236.5 1267.5 c 0,2,3
 1223 1257 1223 1257 1217 1249 c 0,4,-1
 766 737 l 0,5,-1
 1034 125 l 0,6,7
 1044 106 1044 106 1054 101 c 0,8,9
 1064 96 1064 96 1075 94 c 0,10,-1
 1186 86 l 0,11,-1
 1186 0 l 0,12,-1
 657 0 l 0,13,-1
 657 86 l 0,14,-1
 788 94 l 0,15,16
 805 96 805 96 815 108 c 0,17,18
 825 120 825 120 817 135 c 0,19,-1
 633 565 l 0,20,-1
 246 135 l 0,21,22
 233 123 233 123 235.5 109.5 c 0,23,24
 238 96 238 96 264 94 c 0,25,-1
 387 86 l 0,26,-1
 387 0 l 0,27,-1
 -90 0 l 0,28,-1
 -90 86 l 0,29,-1
 8 94 l 0,30,31
 25 96 25 96 38 106.5 c 0,32,33
 51 117 51 117 57 125 c 0,34,-1
 567 696 l 0,35,-1
 322 1249 l 0,36,37
 314 1268 314 1268 304 1273 c 0,38,39
 294 1278 294 1278 283 1280 c 0,40,-1
 170 1288 l 0,41,-1
 170 1374 l 0,42,-1
 702 1374 l 0,43,-1
 702 1288 l 0,44,-1
 569 1280 l 0,45,46
 552 1278 552 1278 542 1266.5 c 0,47,48
 532 1255 532 1255 539 1239 c 0,49,-1
 707 856 l 0,50,-1
 1042 1239 l 0,51,52
 1053 1251 1053 1251 1051.5 1264.5 c 0,53,54
 1050 1278 1050 1278 1024 1280 c 0,55,-1
 926 1288 l 0,56,-1
 926 1374 l 0,57,-1
 1389 1374 l 0,58,-1
 1389 1288 l 0,59,-1
 1266 1280 l 0,0,1
EndSplineSet
EndChar

StartChar: Y
Encoding: 60 89 60
Width: 1309
Flags: W
LayerCount: 2
Fore
SplineSet
1341 1280 m 0,0,1
 1326 1278 1326 1278 1311 1267.5 c 0,2,3
 1296 1257 1296 1257 1288 1249 c 0,4,-1
 768 575 l 0,5,-1
 682 135 l 0,6,7
 677 120 677 120 686 109 c 0,8,9
 695 98 695 98 721 96 c 0,10,-1
 836 86 l 0,11,-1
 836 0 l 0,12,-1
 303 0 l 0,13,-1
 303 86 l 0,14,-1
 422 96 l 0,15,16
 440 98 440 98 453 107.5 c 0,17,18
 466 117 466 117 471 135 c 0,19,-1
 555 557 l 0,20,-1
 326 1249 l 0,21,22
 319 1269 319 1269 308.5 1273.5 c 0,23,24
 298 1278 298 1278 287 1280 c 0,25,-1
 172 1288 l 0,26,-1
 172 1374 l 0,27,-1
 702 1374 l 0,28,-1
 702 1288 l 0,29,-1
 571 1280 l 0,30,31
 554 1278 554 1278 545.5 1267 c 0,32,33
 537 1256 537 1256 543 1239 c 0,34,-1
 711 707 l 0,35,-1
 1106 1239 l 0,36,37
 1110 1246 1110 1246 1113 1253 c 0,38,39
 1116 1260 1116 1260 1115 1265.5 c 0,40,41
 1114 1271 1114 1271 1108.5 1275 c 0,42,43
 1103 1279 1103 1279 1090 1280 c 0,44,-1
 963 1288 l 0,45,-1
 963 1374 l 0,46,-1
 1456 1374 l 0,47,-1
 1456 1288 l 0,48,-1
 1341 1280 l 0,0,1
EndSplineSet
EndChar

StartChar: Z
Encoding: 61 90 61
Width: 1153
Flags: W
LayerCount: 2
Fore
SplineSet
1200 1282 m 0,0,-1
 236 109 l 0,1,-1
 793 109 l 0,2,3
 833 109 833 109 844 150 c 0,4,-1
 905 379 l 0,5,-1
 1044 379 l 0,6,-1
 973 0 l 0,7,-1
 -41 0 l 0,8,-1
 -23 90 l 0,9,-1
 938 1268 l 0,10,-1
 459 1268 l 0,11,12
 437 1268 437 1268 426.5 1258.5 c 0,13,14
 416 1249 416 1249 410 1229 c 0,15,-1
 354 1049 l 0,16,-1
 213 1049 l 0,17,-1
 279 1374 l 0,18,-1
 1219 1374 l 0,19,-1
 1200 1282 l 0,0,-1
EndSplineSet
EndChar

StartChar: bracketleft
Encoding: 62 91 62
Width: 862
Flags: W
LayerCount: 2
Fore
SplineSet
631 1354 m 0,0,-1
 326 -174 l 0,1,-1
 639 -174 l 0,2,-1
 639 -270 l 0,3,-1
 111 -270 l 0,4,-1
 455 1450 l 0,5,-1
 965 1450 l 0,6,-1
 965 1354 l 0,7,-1
 631 1354 l 0,0,-1
EndSplineSet
EndChar

StartChar: backslash
Encoding: 63 92 63
Width: 1001
Flags: W
LayerCount: 2
Fore
SplineSet
870 -190 m 0,0,-1
 0 1374 l 0,1,-1
 131 1374 l 0,2,-1
 1001 -190 l 0,3,-1
 870 -190 l 0,0,-1
EndSplineSet
EndChar

StartChar: bracketright
Encoding: 64 93 64
Width: 862
Flags: W
LayerCount: 2
Fore
SplineSet
426 -270 m 0,0,-1
 -84 -270 l 0,1,-1
 -84 -172 l 0,2,-1
 252 -172 l 0,3,-1
 555 1356 l 0,4,-1
 242 1356 l 0,5,-1
 242 1450 l 0,6,-1
 770 1450 l 0,7,-1
 426 -270 l 0,0,-1
EndSplineSet
EndChar

StartChar: asciicircum
Encoding: 65 94 65
Width: 702
Flags: W
LayerCount: 2
Fore
SplineSet
676 1126 m 1,0,-1
 508 1315 l 1,1,-1
 262 1126 l 1,2,-1
 121 1126 l 1,3,-1
 459 1473 l 1,4,-1
 618 1473 l 1,5,-1
 819 1126 l 1,6,-1
 676 1126 l 1,0,-1
EndSplineSet
Refer: 360 770 N 1 0 0 1 847 0 2
EndChar

StartChar: underscore
Encoding: 66 95 66
Width: 622
Flags: W
LayerCount: 2
Fore
SplineSet
462 -315 m 0,0,-1
 -160 -315 l 0,1,-1
 -131 -180 l 0,2,-1
 488 -180 l 0,3,-1
 462 -315 l 0,0,-1
EndSplineSet
EndChar

StartChar: grave
Encoding: 67 96 67
Width: 805
Flags: W
LayerCount: 2
Fore
SplineSet
524 1126 m 1,0,-1
 227 1321 l 2,1,2
 207 1333 207 1333 194.5 1353.5 c 128,-1,3
 182 1374 182 1374 182 1405 c 0,4,5
 182 1419 182 1419 186 1434.5 c 128,-1,6
 190 1450 190 1450 200.5 1462.5 c 128,-1,7
 211 1475 211 1475 228.5 1483 c 128,-1,8
 246 1491 246 1491 272 1491 c 0,9,10
 292 1491 292 1491 308 1488 c 128,-1,11
 324 1485 324 1485 335 1479 c 128,-1,12
 346 1473 346 1473 355.5 1463.5 c 128,-1,13
 365 1454 365 1454 373 1444 c 2,14,-1
 645 1124 l 1,15,-1
 524 1126 l 1,0,-1
EndSplineSet
Refer: 358 768 N 1 0 0 1 828 0 2
EndChar

StartChar: a
Encoding: 68 97 68
Width: 1067
Flags: W
LayerCount: 2
Fore
SplineSet
1061 55 m 0,0,1
 1049 50 1049 50 1017 36.5 c 0,2,3
 985 23 985 23 945.5 9.5 c 0,4,5
 906 -4 906 -4 865.5 -14.5 c 0,6,7
 825 -25 825 -25 795 -25 c 0,8,9
 758 -25 758 -25 732.5 -16 c 0,10,11
 707 -7 707 -7 690.5 11 c 0,12,13
 674 29 674 29 665 55 c 0,14,15
 656 81 656 81 653 115 c 0,16,17
 630 93 630 93 599 68.5 c 0,18,19
 568 44 568 44 530.5 23 c 0,20,21
 493 2 493 2 450.5 -11.5 c 0,22,23
 408 -25 408 -25 362 -25 c 0,24,25
 302 -25 302 -25 256.5 -8 c 0,26,27
 211 9 211 9 178 37.5 c 0,28,29
 145 66 145 66 123.5 103.5 c 0,30,31
 102 141 102 141 89 181.5 c 0,32,33
 76 222 76 222 71 263.5 c 0,34,35
 66 305 66 305 66 342 c 0,36,37
 66 421 66 421 83 501.5 c 0,38,39
 100 582 100 582 133.5 656.5 c 0,40,41
 167 731 167 731 217 796 c 0,42,43
 267 861 267 861 332.5 909 c 0,44,45
 398 957 398 957 478.5 984.5 c 0,46,47
 559 1012 559 1012 655 1012 c 0,48,49
 683 1012 683 1012 710.5 1005.5 c 0,50,51
 738 999 738 999 762 988.5 c 0,52,53
 786 978 786 978 806 965 c 0,54,55
 826 952 826 952 840 938 c 0,56,-1
 870 987 l 0,57,-1
 1010 987 l 0,58,59
 1005 975 1005 975 999 958.5 c 0,60,61
 993 942 993 942 987 925 c 0,62,63
 981 908 981 908 976.5 893 c 0,64,65
 972 878 972 878 971 870 c 0,66,67
 964 843 964 843 951 788.5 c 0,68,69
 938 734 938 734 923.5 666 c 0,70,71
 909 598 909 598 893.5 523.5 c 0,72,73
 878 449 878 449 866 382.5 c 0,74,75
 854 316 854 316 846 264.5 c 0,76,77
 838 213 838 213 838 190 c 0,78,79
 838 136 838 136 861 116 c 0,80,81
 884 96 884 96 926 96 c 0,82,83
 936 96 936 96 955.5 100.5 c 0,84,85
 975 105 975 105 996 111 c 0,86,87
 1017 117 1017 117 1035 122 c 0,88,89
 1053 127 1053 127 1061 129 c 0,90,-1
 1061 55 l 0,0,1
760 803 m 0,91,92
 761 808 761 808 752.5 826 c 0,93,94
 744 844 744 844 732 863.5 c 0,95,96
 720 883 720 883 706.5 898 c 0,97,98
 693 913 693 913 684 913 c 0,99,100
 606 913 606 913 544.5 887.5 c 0,101,102
 483 862 483 862 437 818.5 c 0,103,104
 391 775 391 775 358.5 718 c 0,105,106
 326 661 326 661 306 599 c 0,107,108
 286 537 286 537 277 474 c 0,109,110
 268 411 268 411 268 354 c 0,111,112
 268 311 268 311 275 268 c 0,113,114
 282 225 282 225 299.5 190 c 0,115,116
 317 155 317 155 347.5 133 c 0,117,118
 378 111 378 111 426 111 c 0,119,120
 462 111 462 111 498 127 c 0,121,122
 534 143 534 143 565 164 c 0,123,124
 596 185 596 185 619 206 c 0,125,126
 642 227 642 227 653 238 c 0,127,-1
 760 803 l 0,91,92
EndSplineSet
EndChar

StartChar: b
Encoding: 69 98 69
Width: 1008
Flags: W
LayerCount: 2
Fore
SplineSet
942 635 m 0,0,1
 942 571 942 571 928 497.5 c 0,2,3
 914 424 914 424 884.5 351 c 0,4,5
 855 278 855 278 809 210 c 0,6,7
 763 142 763 142 699 90 c 0,8,9
 635 38 635 38 552 6.5 c 0,10,11
 469 -25 469 -25 365 -25 c 0,12,13
 278 -25 278 -25 193.5 -1 c 0,14,15
 109 23 109 23 37 70 c 0,16,-1
 279 1368 l 0,17,-1
 96 1386 l 0,18,-1
 96 1448 l 0,19,-1
 416 1509 l 0,20,-1
 496 1509 l 0,21,-1
 379 889 l 0,22,23
 407 914 407 914 440.5 936.5 c 0,24,25
 474 959 474 959 510 975.5 c 0,26,27
 546 992 546 992 584 1002 c 0,28,29
 622 1012 622 1012 659 1012 c 0,30,31
 738 1012 738 1012 792 977 c 0,32,33
 846 942 846 942 879.5 887 c 0,34,35
 913 832 913 832 927.5 765.5 c 0,36,37
 942 699 942 699 942 635 c 0,0,1
739 627 m 0,38,39
 739 696 739 696 723 743.5 c 0,40,41
 707 791 707 791 684 821 c 0,42,43
 661 851 661 851 635.5 864 c 0,44,45
 610 877 610 877 592 877 c 0,46,47
 567 877 567 877 537 869 c 0,48,49
 507 861 507 861 475.5 846.5 c 0,50,51
 444 832 444 832 413 813 c 0,52,53
 382 794 382 794 356 772 c 0,54,-1
 242 152 l 0,55,56
 252 137 252 137 269 123 c 0,57,58
 286 109 286 109 308 97.5 c 0,59,60
 330 86 330 86 356 79 c 0,61,62
 382 72 382 72 410 72 c 0,63,64
 457 72 457 72 499.5 96 c 0,65,66
 542 120 542 120 578.5 161 c 0,67,68
 615 202 615 202 645 257 c 0,69,70
 675 312 675 312 695.5 373.5 c 0,71,72
 716 435 716 435 727.5 500.5 c 0,73,74
 739 566 739 566 739 627 c 0,38,39
EndSplineSet
EndChar

StartChar: c
Encoding: 70 99 70
Width: 891
Flags: W
LayerCount: 2
Fore
SplineSet
825 868 m 0,0,1
 825 848 825 848 819 827 c 0,2,3
 813 806 813 806 795.5 788 c 0,4,5
 778 770 778 770 747.5 755.5 c 0,6,7
 717 741 717 741 668 735 c 0,8,-1
 551 893 l 0,9,10
 496 890 496 890 453 862.5 c 0,11,12
 410 835 410 835 377.5 792 c 0,13,14
 345 749 345 749 322.5 694.5 c 0,15,16
 300 640 300 640 286 584 c 0,17,18
 272 528 272 528 266 475 c 0,19,20
 260 422 260 422 260 381 c 0,21,22
 260 331 260 331 269.5 282.5 c 0,23,24
 279 234 279 234 300.5 195.5 c 0,25,26
 322 157 322 157 356.5 133 c 0,27,28
 391 109 391 109 442 109 c 0,29,30
 483 109 483 109 525 123.5 c 0,31,32
 567 138 567 138 609.5 164 c 0,33,34
 652 190 652 190 695 226 c 0,35,36
 738 262 738 262 782 305 c 0,37,-1
 782 176 l 0,38,39
 750 145 750 145 709 110 c 0,40,41
 668 75 668 75 618 45 c 0,42,43
 568 15 568 15 508.5 -5 c 0,44,45
 449 -25 449 -25 381 -25 c 0,46,47
 308 -25 308 -25 249.5 0.5 c 0,48,49
 191 26 191 26 150.5 74.5 c 0,50,51
 110 123 110 123 88 194 c 0,52,53
 66 265 66 265 66 356 c 0,54,55
 66 448 66 448 87.5 532 c 0,56,57
 109 616 109 616 147 689 c 0,58,59
 185 762 185 762 237 821.5 c 0,60,61
 289 881 289 881 350 923.5 c 0,62,63
 411 966 411 966 478.5 989 c 0,64,65
 546 1012 546 1012 616 1012 c 0,66,67
 671 1012 671 1012 711 998 c 0,68,69
 751 984 751 984 776 963 c 0,70,71
 801 942 801 942 813 916.5 c 0,72,73
 825 891 825 891 825 868 c 0,0,1
EndSplineSet
EndChar

StartChar: d
Encoding: 71 100 71
Width: 1077
Flags: W
LayerCount: 2
Fore
SplineSet
770 807 m 0,0,1
 771 811 771 811 758.5 829.5 c 0,2,3
 746 848 746 848 726.5 868 c 0,4,5
 707 888 707 888 684 904 c 0,6,7
 661 920 661 920 641 920 c 0,8,9
 566 920 566 920 498 876.5 c 0,10,11
 430 833 430 833 378 757 c 0,12,13
 326 681 326 681 295 577.5 c 0,14,15
 264 474 264 474 264 354 c 0,16,17
 264 288 264 288 277.5 240 c 0,18,19
 291 192 291 192 313.5 161 c 0,20,21
 336 130 336 130 365 115 c 0,22,23
 394 100 394 100 424 100 c 0,24,25
 452 100 452 100 484.5 114 c 0,26,27
 517 128 517 128 550 151.5 c 0,28,29
 583 175 583 175 615.5 205.5 c 0,30,31
 648 236 648 236 676 268 c 0,32,-1
 770 807 l 0,0,1
850 176 m 0,33,34
 845 147 845 147 853 129 c 0,35,36
 861 111 861 111 874.5 100.5 c 0,37,38
 888 90 888 90 902.5 86 c 0,39,40
 917 82 917 82 924 82 c 0,41,42
 931 82 931 82 952.5 87.5 c 0,43,44
 974 93 974 93 998 100 c 0,45,46
 1022 107 1022 107 1043 113 c 0,47,-1
 1071 121 l 0,48,-1
 1071 45 l 0,49,50
 1059 40 1059 40 1027 28.5 c 0,51,52
 995 17 995 17 956 5 c 0,53,54
 917 -7 917 -7 875.5 -16 c 0,55,56
 834 -25 834 -25 803 -25 c 0,57,58
 756 -25 756 -25 726 -13.5 c 0,59,60
 696 -2 696 -2 679 18.5 c 0,61,62
 662 39 662 39 655.5 67 c 0,63,64
 649 95 649 95 649 129 c 0,65,66
 622 100 622 100 589.5 72.5 c 0,67,68
 557 45 557 45 520 23.5 c 0,69,70
 483 2 483 2 442 -11.5 c 0,71,72
 401 -25 401 -25 358 -25 c 0,73,74
 272 -25 272 -25 215.5 8 c 0,75,76
 159 41 159 41 126 94 c 0,77,78
 93 147 93 147 79.5 212 c 0,79,80
 66 277 66 277 66 342 c 0,81,82
 66 423 66 423 83.5 504.5 c 0,83,84
 101 586 101 586 135.5 660.5 c 0,85,86
 170 735 170 735 220 799 c 0,87,88
 270 863 270 863 334 910.5 c 0,89,90
 398 958 398 958 476.5 985 c 0,91,92
 555 1012 555 1012 645 1012 c 0,93,94
 668 1012 668 1012 690 1007.5 c 0,95,96
 712 1003 712 1003 732 997 c 0,97,98
 752 991 752 991 769 984 c 0,99,100
 786 977 786 977 799 973 c 0,101,-1
 868 1368 l 0,102,-1
 682 1386 l 0,103,-1
 682 1448 l 0,104,-1
 999 1509 l 0,105,-1
 1083 1509 l 0,106,-1
 850 176 l 0,33,34
EndSplineSet
EndChar

StartChar: e
Encoding: 72 101 72
Width: 889
Flags: W
LayerCount: 2
Fore
SplineSet
854 805 m 0,0,1
 854 749 854 749 828 702 c 0,2,3
 802 655 802 655 757.5 617 c 0,4,5
 713 579 713 579 654.5 549.5 c 0,6,7
 596 520 596 520 531.5 499.5 c 0,8,9
 467 479 467 479 400 466.5 c 0,10,11
 333 454 333 454 272 451 c 0,12,13
 269 431 269 431 266.5 403 c 0,14,15
 264 375 264 375 264 356 c 0,16,17
 264 300 264 300 277.5 253 c 0,18,19
 291 206 291 206 316.5 171.5 c 0,20,21
 342 137 342 137 378 117.5 c 0,22,23
 414 98 414 98 459 98 c 0,24,25
 528 98 528 98 611 148 c 0,26,27
 694 198 694 198 807 297 c 0,28,-1
 807 168 l 0,29,30
 778 140 778 140 736 106.5 c 0,31,32
 694 73 694 73 640.5 43.5 c 0,33,34
 587 14 587 14 524 -5.5 c 0,35,36
 461 -25 461 -25 391 -25 c 0,37,38
 360 -25 360 -25 323.5 -19 c 0,39,40
 287 -13 287 -13 251 2.5 c 0,41,42
 215 18 215 18 181.5 45 c 0,43,44
 148 72 148 72 122.5 113.5 c 0,45,46
 97 155 97 155 81.5 212.5 c 0,47,48
 66 270 66 270 66 348 c 0,49,50
 66 429 66 429 85.5 509.5 c 0,51,52
 105 590 105 590 140.5 663.5 c 0,53,54
 176 737 176 737 226 800.5 c 0,55,56
 276 864 276 864 336 910.5 c 0,57,58
 396 957 396 957 464.5 983.5 c 0,59,60
 533 1010 533 1010 606 1010 c 0,61,62
 677 1010 677 1010 724.5 986.5 c 0,63,64
 772 963 772 963 801 930 c 0,65,66
 830 897 830 897 842 862 c 0,67,68
 854 827 854 827 854 805 c 0,0,1
672 807 m 0,69,70
 672 827 672 827 664 846.5 c 0,71,72
 656 866 656 866 642 881 c 0,73,74
 628 896 628 896 607 905.5 c 0,75,76
 586 915 586 915 561 915 c 0,77,78
 527 915 527 915 496 897 c 0,79,80
 465 879 465 879 436.5 849 c 0,81,82
 408 819 408 819 383.5 780 c 0,83,84
 359 741 359 741 339.5 698 c 0,85,86
 320 655 320 655 305 611 c 0,87,88
 290 567 290 567 281 528 c 0,89,90
 346 534 346 534 415.5 558 c 0,91,92
 485 582 485 582 542 619.5 c 0,93,94
 599 657 599 657 635.5 705 c 0,95,96
 672 753 672 753 672 807 c 0,69,70
EndSplineSet
EndChar

StartChar: f
Encoding: 73 102 73
Width: 659
Flags: W
LayerCount: 2
Fore
SplineSet
903 1382 m 0,0,1
 903 1333 903 1333 867 1306.5 c 0,2,3
 831 1280 831 1280 774 1272 c 0,4,-1
 614 1401 l 0,5,6
 592 1383 592 1383 573 1349 c 0,7,8
 554 1315 554 1315 538 1272 c 0,9,10
 522 1229 522 1229 508.5 1180.5 c 0,11,12
 495 1132 495 1132 485 1086.5 c 0,13,14
 475 1041 475 1041 468 1001.5 c 0,15,16
 461 962 461 962 457 936 c 0,17,-1
 707 936 l 0,18,-1
 707 834 l 0,19,-1
 438 834 l 0,20,21
 435 811 435 811 427.5 754 c 0,22,23
 420 697 420 697 409 622 c 0,24,25
 398 547 398 547 385.5 461.5 c 0,26,27
 373 376 373 376 360.5 296.5 c 0,28,29
 348 217 348 217 336 150 c 0,30,31
 324 83 324 83 315 45 c 0,32,33
 301 -12 301 -12 276.5 -72.5 c 0,34,35
 252 -133 252 -133 218.5 -190 c 0,36,37
 185 -247 185 -247 144.5 -298 c 0,38,39
 104 -349 104 -349 58.5 -387 c 0,40,41
 13 -425 13 -425 -36.5 -447 c 0,42,43
 -86 -469 -86 -469 -137 -469 c 0,44,45
 -176 -469 -176 -469 -201.5 -456 c 0,46,47
 -227 -443 -227 -443 -241 -425.5 c 0,48,49
 -255 -408 -255 -408 -260.5 -391.5 c 0,50,51
 -266 -375 -266 -375 -266 -367 c 0,52,53
 -266 -328 -266 -328 -251 -306.5 c 0,54,55
 -236 -285 -236 -285 -213 -268 c 0,56,-1
 -4 -322 l 0,57,58
 23 -289 23 -289 45.5 -241 c 0,59,60
 68 -193 68 -193 86.5 -135 c 0,61,62
 105 -77 105 -77 120 -10.5 c 0,63,64
 135 56 135 56 147 127 c 0,65,66
 173 272 173 272 195 450.5 c 0,67,68
 217 629 217 629 248 831 c 0,69,-1
 90 815 l 0,70,-1
 92 895 l 0,71,-1
 270 954 l 0,72,73
 280 1008 280 1008 297.5 1070.5 c 0,74,75
 315 1133 315 1133 341 1194.5 c 0,76,77
 367 1256 367 1256 402.5 1313 c 0,78,79
 438 1370 438 1370 484 1413.5 c 0,80,81
 530 1457 530 1457 587.5 1483 c 0,82,83
 645 1509 645 1509 715 1509 c 0,84,85
 767 1509 767 1509 803 1496 c 0,86,87
 839 1483 839 1483 861 1463.5 c 0,88,89
 883 1444 883 1444 893 1422 c 0,90,91
 903 1400 903 1400 903 1382 c 0,0,1
EndSplineSet
EndChar

StartChar: g
Encoding: 74 103 74
Width: 901
Flags: W
LayerCount: 2
Fore
SplineSet
805 862 m 0,0,1
 814 839 814 839 822.5 803 c 0,2,3
 831 767 831 767 831 725 c 0,4,5
 831 627 831 627 795 554 c 0,6,7
 759 481 759 481 698 432 c 0,8,9
 637 383 637 383 556.5 358.5 c 0,10,11
 476 334 476 334 387 334 c 0,12,13
 380 319 380 319 375 301 c 0,14,15
 370 283 370 283 367 265.5 c 0,16,17
 364 248 364 248 363 233.5 c 0,18,19
 362 219 362 219 365 211 c 0,20,-1
 639 86 l 0,21,22
 686 65 686 65 724.5 43.5 c 0,23,24
 763 22 763 22 790.5 -3.5 c 0,25,26
 818 -29 818 -29 833 -61.5 c 0,27,28
 848 -94 848 -94 848 -139 c 0,29,30
 848 -183 848 -183 827.5 -224.5 c 0,31,32
 807 -266 807 -266 771.5 -302.5 c 0,33,34
 736 -339 736 -339 686.5 -370 c 0,35,36
 637 -401 637 -401 579.5 -423 c 0,37,38
 522 -445 522 -445 458.5 -457 c 0,39,40
 395 -469 395 -469 330 -469 c 0,41,42
 229 -469 229 -469 155 -444 c 0,43,44
 81 -419 81 -419 32.5 -378 c 0,45,46
 -16 -337 -16 -337 -39.5 -283 c 0,47,48
 -63 -229 -63 -229 -63 -170 c 0,49,50
 -63 -118 -63 -118 -41.5 -74 c 0,51,52
 -20 -30 -20 -30 17 5 c 0,53,54
 54 40 54 40 103.5 67 c 0,55,56
 153 94 153 94 209 113 c 0,57,58
 204 137 204 137 208.5 169.5 c 0,59,60
 213 202 213 202 223.5 235.5 c 0,61,62
 234 269 234 269 251 300 c 0,63,64
 268 331 268 331 289 352 c 0,65,66
 248 370 248 370 213 393.5 c 0,67,68
 178 417 178 417 152.5 447.5 c 0,69,70
 127 478 127 478 112.5 517.5 c 0,71,72
 98 557 98 557 98 606 c 0,73,74
 98 681 98 681 126 753.5 c 0,75,76
 154 826 154 826 207.5 883.5 c 0,77,78
 261 941 261 941 337.5 976.5 c 0,79,80
 414 1012 414 1012 512 1012 c 0,81,82
 549 1012 549 1012 581.5 1005.5 c 0,83,84
 614 999 614 999 640.5 990.5 c 0,85,86
 667 982 667 982 686.5 973 c 0,87,88
 706 964 706 964 715 958 c 0,89,-1
 993 958 l 0,90,-1
 993 862 l 0,91,-1
 805 862 l 0,0,1
635 735 m 0,92,93
 635 773 635 773 628 807.5 c 0,94,95
 621 842 621 842 606.5 868.5 c 0,96,97
 592 895 592 895 569.5 910.5 c 0,98,99
 547 926 547 926 516 926 c 0,100,101
 479 926 479 926 440 899 c 0,102,103
 401 872 401 872 368.5 825 c 0,104,105
 336 778 336 778 315.5 715 c 0,106,107
 295 652 295 652 295 580 c 0,108,109
 295 543 295 543 303 511.5 c 0,110,111
 311 480 311 480 326.5 457.5 c 0,112,113
 342 435 342 435 363.5 422.5 c 0,114,115
 385 410 385 410 412 410 c 0,116,117
 463 410 463 410 504.5 442.5 c 0,118,119
 546 475 546 475 575 524 c 0,120,121
 604 573 604 573 619.5 630 c 0,122,123
 635 687 635 687 635 735 c 0,92,93
657 -180 m 0,124,125
 657 -143 657 -143 635 -112 c 0,126,127
 613 -81 613 -81 553 -53 c 0,128,-1
 297 63 l 0,129,130
 248 51 248 51 215.5 30 c 0,131,132
 183 9 183 9 164 -17.5 c 0,133,134
 145 -44 145 -44 137 -74 c 0,135,136
 129 -104 129 -104 129 -135 c 0,137,138
 129 -170 129 -170 144 -212 c 0,139,140
 159 -254 159 -254 190.5 -290 c 0,141,142
 222 -326 222 -326 270 -350.5 c 0,143,144
 318 -375 318 -375 383 -375 c 0,145,146
 457 -375 457 -375 509 -354 c 0,147,148
 561 -333 561 -333 594 -303 c 0,149,150
 627 -273 627 -273 642 -239.5 c 0,151,152
 657 -206 657 -206 657 -180 c 0,124,125
EndSplineSet
EndChar

StartChar: h
Encoding: 75 104 75
Width: 1073
Flags: W
LayerCount: 2
Fore
SplineSet
1069 51 m 0,0,1
 1056 46 1056 46 1023.5 34 c 0,2,3
 991 22 991 22 951 8.5 c 0,4,5
 911 -5 911 -5 869 -15 c 0,6,7
 827 -25 827 -25 795 -25 c 0,8,9
 776 -25 776 -25 747 -19.5 c 0,10,11
 718 -14 718 -14 692.5 0.5 c 0,12,13
 667 15 667 15 652 41 c 0,14,15
 637 67 637 67 645 109 c 0,16,-1
 770 713 l 0,17,18
 779 753 779 753 768.5 784 c 0,19,20
 758 815 758 815 739 835.5 c 0,21,22
 720 856 720 856 697 866.5 c 0,23,24
 674 877 674 877 657 877 c 0,25,26
 633 877 633 877 598.5 865 c 0,27,28
 564 853 564 853 525.5 832 c 0,29,30
 487 811 487 811 448 781.5 c 0,31,32
 409 752 409 752 375 717 c 0,33,-1
 225 0 l 0,34,-1
 37 0 l 0,35,-1
 319 1368 l 0,36,-1
 137 1386 l 0,37,-1
 137 1448 l 0,38,-1
 457 1509 l 0,39,-1
 539 1509 l 0,40,-1
 401 848 l 0,41,42
 432 882 432 882 474.5 912 c 0,43,44
 517 942 517 942 565.5 964.5 c 0,45,46
 614 987 614 987 666.5 999.5 c 0,47,48
 719 1012 719 1012 770 1012 c 0,49,50
 826 1012 826 1012 869 994.5 c 0,51,52
 912 977 912 977 938.5 942.5 c 0,53,54
 965 908 965 908 972.5 856 c 0,55,56
 980 804 980 804 965 735 c 0,57,-1
 852 184 l 0,58,59
 846 155 846 155 855 135.5 c 0,60,61
 864 116 864 116 879.5 104.5 c 0,62,63
 895 93 895 93 912 88.5 c 0,64,65
 929 84 929 84 938 84 c 0,66,67
 966 84 966 84 999 98 c 0,68,69
 1032 112 1032 112 1067 123 c 0,70,-1
 1069 51 l 0,0,1
EndSplineSet
EndChar

StartChar: i
Encoding: 76 105 76
Width: 545
Flags: W
LayerCount: 2
Fore
SplineSet
530 1313 m 0,0,1
 530 1290 530 1290 521.5 1269.5 c 0,2,3
 513 1249 513 1249 497.5 1233 c 0,4,5
 482 1217 482 1217 459 1207.5 c 0,6,7
 436 1198 436 1198 406 1198 c 0,8,9
 343 1198 343 1198 311 1231.5 c 0,10,11
 279 1265 279 1265 279 1313 c 0,12,13
 279 1333 279 1333 287.5 1353 c 0,14,15
 296 1373 296 1373 312.5 1389.5 c 0,16,17
 329 1406 329 1406 353 1416.5 c 0,18,19
 377 1427 377 1427 408 1427 c 0,20,21
 437 1427 437 1427 459.5 1417 c 0,22,23
 482 1407 482 1407 498 1391 c 0,24,25
 514 1375 514 1375 522 1354.5 c 0,26,27
 530 1334 530 1334 530 1313 c 0,0,1
539 59 m 0,28,29
 527 54 527 54 495 40 c 0,30,31
 463 26 463 26 420 11.5 c 0,32,33
 377 -3 377 -3 329.5 -14 c 0,34,35
 282 -25 282 -25 240 -25 c 0,36,37
 187 -25 187 -25 156 -7 c 0,38,39
 125 11 125 11 110 40 c 0,40,41
 95 69 95 69 93 105 c 0,42,43
 91 141 91 141 98 176 c 0,44,-1
 229 870 l 0,45,-1
 53 889 l 0,46,-1
 53 948 l 0,47,-1
 362 1012 l 0,48,-1
 446 1012 l 0,49,-1
 291 193 l 0,50,51
 287 172 287 172 291.5 153 c 0,52,53
 296 134 296 134 306.5 119.5 c 0,54,55
 317 105 317 105 333.5 96.5 c 0,56,57
 350 88 350 88 371 88 c 0,58,59
 389 88 389 88 413.5 94.5 c 0,60,61
 438 101 438 101 462.5 109.5 c 0,62,63
 487 118 487 118 508 126 c 0,64,65
 529 134 529 134 539 137 c 0,66,-1
 539 59 l 0,28,29
EndSplineSet
EndChar

StartChar: j
Encoding: 77 106 77
Width: 559
Flags: W
LayerCount: 2
Fore
SplineSet
545 1313 m 0,0,1
 545 1295 545 1295 536 1274.5 c 0,2,3
 527 1254 527 1254 510 1237 c 0,4,5
 493 1220 493 1220 469.5 1209 c 0,6,7
 446 1198 446 1198 418 1198 c 0,8,9
 362 1198 362 1198 326.5 1230.5 c 0,10,11
 291 1263 291 1263 291 1313 c 0,12,13
 291 1336 291 1336 298.5 1357 c 0,14,15
 306 1378 306 1378 322 1394.5 c 0,16,17
 338 1411 338 1411 362 1420.5 c 0,18,19
 386 1430 386 1430 418 1430 c 0,20,21
 449 1430 449 1430 472.5 1420.5 c 0,22,23
 496 1411 496 1411 512 1394.5 c 0,24,25
 528 1378 528 1378 536.5 1357 c 0,26,27
 545 1336 545 1336 545 1313 c 0,0,1
328 164 m 0,28,29
 319 113 319 113 301 46 c 0,30,31
 283 -21 283 -21 255.5 -91.5 c 0,32,33
 228 -162 228 -162 190.5 -229.5 c 0,34,35
 153 -297 153 -297 105 -350.5 c 0,36,37
 57 -404 57 -404 -1 -436.5 c 0,38,39
 -59 -469 -59 -469 -127 -469 c 0,40,41
 -192 -469 -192 -469 -228 -438 c 0,42,43
 -264 -407 -264 -407 -264 -360 c 0,44,45
 -264 -341 -264 -341 -258 -326 c 0,46,47
 -252 -311 -252 -311 -243 -300 c 0,48,49
 -234 -289 -234 -289 -224.5 -281 c 0,50,51
 -215 -273 -215 -273 -207 -268 c 0,52,-1
 -2 -324 l 0,53,54
 13 -308 13 -308 28.5 -275 c 0,55,56
 44 -242 44 -242 59 -200.5 c 0,57,58
 74 -159 74 -159 86 -113 c 0,59,60
 98 -67 98 -67 106 -25 c 0,61,-1
 260 870 l 0,62,-1
 88 889 l 0,63,-1
 88 948 l 0,64,-1
 397 1012 l 0,65,-1
 473 1012 l 0,66,-1
 328 164 l 0,28,29
EndSplineSet
EndChar

StartChar: k
Encoding: 78 107 78
Width: 1042
Flags: W
LayerCount: 2
Fore
SplineSet
1018 47 m 0,0,1
 992 34 992 34 958.5 21 c 0,2,3
 925 8 925 8 890 -2 c 0,4,5
 855 -12 855 -12 821.5 -18.5 c 0,6,7
 788 -25 788 -25 764 -25 c 0,8,9
 739 -25 739 -25 715 -16.5 c 0,10,11
 691 -8 691 -8 669.5 5.5 c 0,12,13
 648 19 648 19 630 36.5 c 0,14,15
 612 54 612 54 600 72 c 0,16,17
 586 93 586 93 568.5 126.5 c 0,18,19
 551 160 551 160 531.5 200 c 0,20,21
 512 240 512 240 492 283.5 c 0,22,23
 472 327 472 327 453.5 367.5 c 0,24,25
 435 408 435 408 419.5 443 c 0,26,27
 404 478 404 478 393 500 c 0,28,-1
 299 416 l 0,29,-1
 215 0 l 0,30,-1
 27 0 l 0,31,-1
 299 1368 l 0,32,-1
 119 1386 l 0,33,-1
 119 1448 l 0,34,-1
 436 1509 l 0,35,-1
 518 1509 l 0,36,-1
 328 557 l 0,37,-1
 659 899 l 0,38,39
 688 929 688 929 712 950.5 c 0,40,41
 736 972 736 972 758.5 985.5 c 0,42,43
 781 999 781 999 804 1005.5 c 0,44,45
 827 1012 827 1012 854 1012 c 0,46,47
 888 1012 888 1012 913.5 1002 c 0,48,49
 939 992 939 992 955.5 976 c 0,50,51
 972 960 972 960 980 940 c 0,52,53
 988 920 988 920 987 901 c 0,54,55
 987 866 987 866 954.5 828.5 c 0,56,57
 922 791 922 791 850 766 c 0,58,-1
 780 840 l 0,59,60
 752 818 752 818 719.5 791 c 0,61,62
 687 764 687 764 654 736 c 0,63,64
 621 708 621 708 591 681 c 0,65,66
 561 654 561 654 537 633 c 0,67,68
 550 607 550 607 565.5 568 c 0,69,70
 581 529 581 529 598.5 484.5 c 0,71,72
 616 440 616 440 636.5 393.5 c 0,73,74
 657 347 657 347 680 305 c 0,75,76
 703 262 703 262 728.5 222.5 c 0,77,78
 754 183 754 183 781 152.5 c 0,79,80
 808 122 808 122 836 104 c 0,81,82
 864 86 864 86 891 86 c 0,83,84
 902 86 902 86 918 88.5 c 0,85,86
 934 91 934 91 952 95 c 0,87,88
 970 99 970 99 987.5 105 c 0,89,90
 1005 111 1005 111 1018 117 c 0,91,-1
 1018 47 l 0,0,1
EndSplineSet
EndChar

StartChar: l
Encoding: 79 108 79
Width: 543
Flags: W
LayerCount: 2
Fore
SplineSet
539 53 m 0,0,1
 527 48 527 48 494 35.5 c 0,2,3
 461 23 461 23 420 9.5 c 0,4,5
 379 -4 379 -4 334.5 -14.5 c 0,6,7
 290 -25 290 -25 254 -25 c 0,8,9
 207 -25 207 -25 174 -14 c 0,10,11
 141 -3 141 -3 120 17 c 0,12,13
 99 37 99 37 89.5 64.5 c 0,14,15
 80 92 80 92 80 125 c 0,16,17
 80 156 80 156 86 197 c 0,18,-1
 311 1368 l 0,19,-1
 129 1386 l 0,20,-1
 129 1448 l 0,21,-1
 449 1509 l 0,22,-1
 528 1509 l 0,23,-1
 279 203 l 0,24,25
 275 182 275 182 281 161.5 c 0,26,27
 287 141 287 141 300 125.5 c 0,28,29
 313 110 313 110 332 100 c 0,30,31
 351 90 351 90 373 90 c 0,32,33
 388 90 388 90 412.5 95.5 c 0,34,35
 437 101 437 101 462 108 c 0,36,37
 487 115 487 115 508.5 122 c 0,38,39
 530 129 530 129 539 131 c 0,40,-1
 539 53 l 0,0,1
EndSplineSet
EndChar

StartChar: m
Encoding: 80 109 80
Width: 1589
Flags: W
LayerCount: 2
Fore
SplineSet
1583 53 m 0,0,1
 1557 42 1557 42 1524.5 28.5 c 0,2,3
 1492 15 1492 15 1457.5 3 c 0,4,5
 1423 -9 1423 -9 1389 -17 c 0,6,7
 1355 -25 1355 -25 1325 -25 c 0,8,9
 1283 -25 1283 -25 1249.5 -15.5 c 0,10,11
 1216 -6 1216 -6 1193.5 12 c 0,12,13
 1171 30 1171 30 1161.5 57 c 0,14,15
 1152 84 1152 84 1159 119 c 0,16,-1
 1272 666 l 0,17,18
 1282 717 1282 717 1279 755 c 0,19,20
 1276 793 1276 793 1263.5 818 c 0,21,22
 1251 843 1251 843 1232.5 855.5 c 0,23,24
 1214 868 1214 868 1194 868 c 0,25,26
 1147 868 1147 868 1102.5 847 c 0,27,28
 1058 826 1058 826 1021 797.5 c 0,29,30
 984 769 984 769 957 739.5 c 0,31,32
 930 710 930 710 920 692 c 0,33,-1
 776 0 l 0,34,-1
 586 0 l 0,35,-1
 723 668 l 0,36,37
 730 701 730 701 729.5 736.5 c 0,38,39
 729 772 729 772 719.5 801 c 0,40,41
 710 830 710 830 690 849 c 0,42,43
 670 868 670 868 637 868 c 0,44,45
 601 868 601 868 560.5 847 c 0,46,47
 520 826 520 826 482.5 797 c 0,48,49
 445 768 445 768 414.5 737.5 c 0,50,51
 384 707 384 707 369 688 c 0,52,-1
 225 0 l 0,53,-1
 37 0 l 0,54,-1
 213 870 l 0,55,-1
 43 889 l 0,56,-1
 43 948 l 0,57,-1
 350 1012 l 0,58,-1
 434 1012 l 0,59,-1
 395 823 l 0,60,61
 433 859 433 859 476 893.5 c 0,62,63
 519 928 519 928 565 954 c 0,64,65
 611 980 611 980 658 996 c 0,66,67
 705 1012 705 1012 750 1012 c 0,68,69
 801 1012 801 1012 834.5 993 c 0,70,71
 868 974 868 974 888.5 945.5 c 0,72,73
 909 917 909 917 918.5 884 c 0,74,75
 928 851 928 851 932 823 c 0,76,77
 969 860 969 860 1014 894 c 0,78,79
 1059 928 1059 928 1108 954.5 c 0,80,81
 1157 981 1157 981 1207.5 996.5 c 0,82,83
 1258 1012 1258 1012 1305 1012 c 0,84,85
 1356 1012 1356 1012 1394.5 993.5 c 0,86,87
 1433 975 1433 975 1456.5 941 c 0,88,89
 1480 907 1480 907 1486.5 859 c 0,90,91
 1493 811 1493 811 1481 752 c 0,92,-1
 1366 199 l 0,93,94
 1361 174 1361 174 1367 153.5 c 0,95,96
 1373 133 1373 133 1385.5 118 c 0,97,98
 1398 103 1398 103 1416 94.5 c 0,99,100
 1434 86 1434 86 1454 86 c 0,101,102
 1479 86 1479 86 1512 98 c 0,103,104
 1545 110 1545 110 1583 123 c 0,105,-1
 1583 53 l 0,0,1
EndSplineSet
EndChar

StartChar: n
Encoding: 81 110 81
Width: 1085
Flags: W
LayerCount: 2
Fore
SplineSet
1079 41 m 0,0,1
 1066 36 1066 36 1033.5 25.5 c 0,2,3
 1001 15 1001 15 961 3.5 c 0,4,5
 921 -8 921 -8 879 -16.5 c 0,6,7
 837 -25 837 -25 805 -25 c 0,8,9
 787 -25 787 -25 755.5 -21.5 c 0,10,11
 724 -18 724 -18 695 -5.5 c 0,12,13
 666 7 666 7 648 31 c 0,14,15
 630 55 630 55 639 96 c 0,16,-1
 764 725 l 0,17,18
 771 766 771 766 764.5 793 c 0,19,20
 758 820 758 820 743.5 836.5 c 0,21,22
 729 853 729 853 710 859.5 c 0,23,24
 691 866 691 866 674 866 c 0,25,26
 649 866 649 866 612.5 851.5 c 0,27,28
 576 837 576 837 535.5 813 c 0,29,30
 495 789 495 789 454 756.5 c 0,31,32
 413 724 413 724 379 688 c 0,33,-1
 238 0 l 0,34,-1
 47 0 l 0,35,-1
 225 870 l 0,36,-1
 53 889 l 0,37,-1
 53 948 l 0,38,-1
 362 1012 l 0,39,-1
 444 1012 l 0,40,-1
 406 821 l 0,41,42
 440 855 440 855 484 889.5 c 0,43,44
 528 924 528 924 578 951 c 0,45,46
 628 978 628 978 681.5 995 c 0,47,48
 735 1012 735 1012 786 1012 c 0,49,50
 898 1012 898 1012 945.5 950 c 0,51,52
 993 888 993 888 969 750 c 0,53,-1
 860 172 l 0,54,55
 855 143 855 143 864.5 126 c 0,56,57
 874 109 874 109 889.5 100 c 0,58,59
 905 91 905 91 922 88.5 c 0,60,61
 939 86 939 86 948 86 c 0,62,63
 976 86 976 86 1009 94 c 0,64,65
 1042 102 1042 102 1077 113 c 0,66,-1
 1079 41 l 0,0,1
EndSplineSet
EndChar

StartChar: o
Encoding: 82 111 82
Width: 1036
Flags: W
LayerCount: 2
Fore
SplineSet
973 614 m 0,0,1
 973 531 973 531 954.5 451.5 c 0,2,3
 936 372 936 372 901.5 301 c 0,4,5
 867 230 867 230 818.5 170.5 c 0,6,7
 770 111 770 111 709.5 67.5 c 0,8,9
 649 24 649 24 578 -0.5 c 0,10,11
 507 -25 507 -25 428 -25 c 0,12,13
 344 -25 344 -25 276 2 c 0,14,15
 208 29 208 29 161 79.5 c 0,16,17
 114 130 114 130 88.5 201.5 c 0,18,19
 63 273 63 273 63 362 c 0,20,21
 63 445 63 445 81 525.5 c 0,22,23
 99 606 99 606 132.5 678 c 0,24,25
 166 750 166 750 214 811.5 c 0,26,27
 262 873 262 873 322.5 917.5 c 0,28,29
 383 962 383 962 454.5 987 c 0,30,31
 526 1012 526 1012 606 1012 c 0,32,33
 680 1012 680 1012 746.5 989 c 0,34,35
 813 966 813 966 863.5 917 c 0,36,37
 914 868 914 868 943.5 793 c 0,38,39
 973 718 973 718 973 614 c 0,0,1
766 623 m 0,40,41
 766 696 766 696 752 752 c 0,42,43
 738 808 738 808 714 846 c 0,44,45
 690 884 690 884 656.5 904 c 0,46,47
 623 924 623 924 584 924 c 0,48,49
 517 924 517 924 459.5 875.5 c 0,50,51
 402 827 402 827 360 748.5 c 0,52,53
 318 670 318 670 294 571.5 c 0,54,55
 270 473 270 473 270 373 c 0,56,57
 270 297 270 297 284 240 c 0,58,59
 298 183 298 183 323 144.5 c 0,60,61
 348 106 348 106 381 87 c 0,62,63
 414 68 414 68 453 68 c 0,64,65
 501 68 501 68 543.5 92.5 c 0,66,67
 586 117 586 117 620.5 158.5 c 0,68,69
 655 200 655 200 682 255 c 0,70,71
 709 310 709 310 728 371.5 c 0,72,73
 747 433 747 433 756.5 498 c 0,74,75
 766 563 766 563 766 623 c 0,40,41
EndSplineSet
EndChar

StartChar: p
Encoding: 83 112 83
Width: 1012
Flags: W
LayerCount: 2
Fore
SplineSet
946 633 m 0,0,1
 946 549 946 549 926 467.5 c 0,2,3
 906 386 906 386 868.5 313 c 0,4,5
 831 240 831 240 778 178 c 0,6,7
 725 116 725 116 660 71 c 0,8,9
 595 26 595 26 519 0.5 c 0,10,11
 443 -25 443 -25 360 -25 c 0,12,13
 314 -25 314 -25 277 -12 c 0,14,15
 240 1 240 1 215 12 c 0,16,-1
 150 -317 l 0,17,18
 146 -334 146 -334 154.5 -344.5 c 0,19,20
 163 -355 163 -355 190 -358 c 0,21,-1
 319 -369 l 0,22,-1
 319 -446 l 0,23,-1
 -197 -446 l 0,24,-1
 -197 -369 l 0,25,-1
 -90 -358 l 0,26,27
 -47 -355 -47 -355 -41 -317 c 0,28,-1
 190 870 l 0,29,-1
 18 889 l 0,30,-1
 18 948 l 0,31,-1
 328 1012 l 0,32,-1
 408 1012 l 0,33,-1
 383 885 l 0,34,35
 409 902 409 902 442.5 924 c 0,36,37
 476 946 476 946 514 965.5 c 0,38,39
 552 985 552 985 593.5 998.5 c 0,40,41
 635 1012 635 1012 678 1012 c 0,42,43
 756 1012 756 1012 807.5 978.5 c 0,44,45
 859 945 859 945 889.5 891 c 0,46,47
 920 837 920 837 933 769 c 0,48,49
 946 701 946 701 946 633 c 0,0,1
743 625 m 0,50,51
 743 670 743 670 733.5 716.5 c 0,52,53
 724 763 724 763 704.5 801 c 0,54,55
 685 839 685 839 655 863 c 0,56,57
 625 887 625 887 584 887 c 0,58,59
 547 887 547 887 510 870.5 c 0,60,61
 473 854 473 854 442.5 833.5 c 0,62,63
 412 813 412 813 390 793.5 c 0,64,65
 368 774 368 774 360 768 c 0,66,-1
 238 133 l 0,67,68
 247 128 247 128 263.5 117.5 c 0,69,70
 280 107 280 107 302 97 c 0,71,72
 324 87 324 87 349 79.5 c 0,73,74
 374 72 374 72 401 72 c 0,75,76
 457 72 457 72 504 97 c 0,77,78
 551 122 551 122 589 164.5 c 0,79,80
 627 207 627 207 656 263 c 0,81,82
 685 319 685 319 704 380.5 c 0,83,84
 723 442 723 442 733 505 c 0,85,86
 743 568 743 568 743 625 c 0,50,51
EndSplineSet
EndChar

StartChar: q
Encoding: 84 113 84
Width: 1069
Flags: W
LayerCount: 2
Fore
SplineSet
743 -317 m 0,0,1
 740 -334 740 -334 748.5 -344.5 c 0,2,3
 757 -355 757 -355 784 -358 c 0,4,-1
 911 -369 l 0,5,-1
 911 -446 l 0,6,-1
 395 -446 l 0,7,-1
 395 -369 l 0,8,-1
 504 -358 l 0,9,10
 524 -356 524 -356 537 -346.5 c 0,11,12
 550 -337 550 -337 555 -317 c 0,13,-1
 639 109 l 0,14,15
 568 50 568 50 494 12.5 c 0,16,17
 420 -25 420 -25 348 -25 c 0,18,19
 286 -25 286 -25 234.5 -1.5 c 0,20,21
 183 22 183 22 145.5 69 c 0,22,23
 108 116 108 116 87 185 c 0,24,25
 66 254 66 254 66 346 c 0,26,27
 66 425 66 425 85 505 c 0,28,29
 104 585 104 585 139 659 c 0,30,31
 174 733 174 733 225 797.5 c 0,32,33
 276 862 276 862 340 909.5 c 0,34,35
 404 957 404 957 480 984.5 c 0,36,37
 556 1012 556 1012 641 1012 c 0,38,39
 706 1012 706 1012 756 993 c 0,40,41
 806 974 806 974 834 952 c 0,42,-1
 883 1012 l 0,43,-1
 1006 1012 l 0,44,-1
 743 -317 l 0,0,1
772 795 m 0,45,46
 774 806 774 806 762.5 826.5 c 0,47,48
 751 847 751 847 733.5 867.5 c 0,49,50
 716 888 716 888 697.5 903 c 0,51,52
 679 918 679 918 668 918 c 0,53,54
 584 918 584 918 510.5 875 c 0,55,56
 437 832 437 832 382 756 c 0,57,58
 327 680 327 680 295.5 577 c 0,59,60
 264 474 264 474 264 354 c 0,61,62
 264 296 264 296 275.5 249 c 0,63,64
 287 202 287 202 308.5 169 c 0,65,66
 330 136 330 136 361 118 c 0,67,68
 392 100 392 100 430 100 c 0,69,70
 461 100 461 100 491.5 111.5 c 0,71,72
 522 123 522 123 550.5 142 c 0,73,74
 579 161 579 161 607 184 c 0,75,76
 635 207 635 207 662 231 c 0,77,-1
 772 795 l 0,45,46
EndSplineSet
EndChar

StartChar: r
Encoding: 85 114 85
Width: 766
Flags: W
LayerCount: 2
Fore
SplineSet
838 874 m 0,0,1
 838 838 838 838 825 816.5 c 0,2,3
 812 795 812 795 788 784 c 0,4,5
 764 773 764 773 730.5 769.5 c 0,6,7
 697 766 697 766 655 766 c 0,8,-1
 606 864 l 0,9,10
 568 848 568 848 524.5 808.5 c 0,11,12
 481 769 481 769 442 718.5 c 0,13,14
 403 668 403 668 374 614.5 c 0,15,16
 345 561 345 561 336 516 c 0,17,-1
 229 0 l 0,18,-1
 39 0 l 0,19,-1
 215 870 l 0,20,-1
 43 889 l 0,21,-1
 43 948 l 0,22,-1
 352 1012 l 0,23,-1
 434 1012 l 0,24,-1
 391 805 l 0,25,26
 454 902 454 902 534 957 c 0,27,28
 614 1012 614 1012 707 1012 c 0,29,30
 744 1012 744 1012 769 998.5 c 0,31,32
 794 985 794 985 809.5 964 c 0,33,34
 825 943 825 943 831.5 919 c 0,35,36
 838 895 838 895 838 874 c 0,0,1
EndSplineSet
EndChar

StartChar: s
Encoding: 86 115 86
Width: 758
Flags: W
LayerCount: 2
Fore
SplineSet
715 883 m 0,0,1
 715 847 715 847 699 825.5 c 0,2,3
 683 804 683 804 660 792 c 0,4,5
 637 780 637 780 611.5 775.5 c 0,6,7
 586 771 586 771 567 770 c 0,8,-1
 475 895 l 0,9,10
 469 900 469 900 456 905.5 c 0,11,12
 443 911 443 911 424 911 c 0,13,14
 390 911 390 911 367 896.5 c 0,15,16
 344 882 344 882 329.5 860.5 c 0,17,18
 315 839 315 839 309 814.5 c 0,19,20
 303 790 303 790 303 770 c 0,21,22
 303 742 303 742 319 713.5 c 0,23,24
 335 685 335 685 361 656.5 c 0,25,26
 387 628 387 628 419.5 600.5 c 0,27,28
 452 573 452 573 485 547 c 0,29,30
 519 520 519 520 550.5 491.5 c 0,31,32
 582 463 582 463 607 432.5 c 0,33,34
 632 402 632 402 647 368 c 0,35,36
 662 334 662 334 662 297 c 0,37,38
 662 234 662 234 636.5 176 c 0,39,40
 611 118 611 118 561.5 73 c 0,41,42
 512 28 512 28 438.5 1.5 c 0,43,44
 365 -25 365 -25 270 -25 c 0,45,46
 196 -25 196 -25 142 -8.5 c 0,47,48
 88 8 88 8 53 34.5 c 0,49,50
 18 61 18 61 1 95 c 0,51,52
 -16 129 -16 129 -16 164 c 0,53,54
 -16 213 -16 213 13.5 243.5 c 0,55,56
 43 274 43 274 106 274 c 0,57,58
 125 274 125 274 142 269 c 0,59,60
 159 264 159 264 173 257.5 c 0,61,62
 187 251 187 251 197.5 243.5 c 0,63,64
 208 236 208 236 213 231 c 0,65,-1
 174 131 l 0,66,67
 196 100 196 100 228.5 78.5 c 0,68,69
 261 57 261 57 313 57 c 0,70,71
 344 57 344 57 373 69 c 0,72,73
 402 81 402 81 424.5 103 c 0,74,75
 447 125 447 125 460 156.5 c 0,76,77
 473 188 473 188 473 227 c 0,78,79
 473 258 473 258 460.5 285.5 c 0,80,81
 448 313 448 313 425.5 339 c 0,82,83
 403 365 403 365 372.5 390.5 c 0,84,85
 342 416 342 416 305 444 c 0,86,87
 273 469 273 469 243.5 498 c 0,88,89
 214 527 214 527 190.5 559.5 c 0,90,91
 167 592 167 592 153 628 c 0,92,93
 139 664 139 664 139 702 c 0,94,95
 139 777 139 777 173 835 c 0,96,97
 207 893 207 893 260.5 932.5 c 0,98,99
 314 972 314 972 379.5 992 c 0,100,101
 445 1012 445 1012 508 1012 c 0,102,103
 566 1012 566 1012 605.5 998.5 c 0,104,105
 645 985 645 985 669.5 965.5 c 0,106,107
 694 946 694 946 704.5 923.5 c 0,108,109
 715 901 715 901 715 883 c 0,0,1
EndSplineSet
EndChar

StartChar: t
Encoding: 87 116 87
Width: 614
Flags: W
LayerCount: 2
Fore
SplineSet
414 858 m 0,0,-1
 285 215 l 0,1,2
 279 188 279 188 287 166.5 c 0,3,4
 295 145 295 145 312.5 130.5 c 0,5,6
 330 116 330 116 353.5 108 c 0,7,8
 377 100 377 100 403 100 c 0,9,10
 432 100 432 100 463 105.5 c 0,11,12
 494 111 494 111 522.5 119 c 0,13,14
 551 127 551 127 575.5 135.5 c 0,15,16
 600 144 600 144 616 150 c 0,17,-1
 616 68 l 0,18,19
 603 62 603 62 566 47 c 0,20,21
 529 32 529 32 481 16 c 0,22,23
 433 0 433 0 380 -12.5 c 0,24,25
 327 -25 327 -25 283 -25 c 0,26,27
 227 -25 227 -25 190 -11.5 c 0,28,29
 153 2 153 2 131 25.5 c 0,30,31
 109 49 109 49 99.5 81.5 c 0,32,33
 90 114 90 114 90 152 c 0,34,35
 90 172 90 172 91.5 193 c 0,36,37
 93 214 93 214 98 236 c 0,38,-1
 223 858 l 0,39,-1
 94 846 l 0,40,-1
 94 913 l 0,41,-1
 248 981 l 0,42,-1
 348 1186 l 0,43,-1
 473 1186 l 0,44,-1
 432 952 l 0,45,-1
 715 952 l 0,46,-1
 715 858 l 0,47,-1
 414 858 l 0,0,-1
EndSplineSet
EndChar

StartChar: u
Encoding: 88 117 88
Width: 1079
Flags: W
LayerCount: 2
Fore
SplineSet
1073 49 m 0,0,1
 1054 38 1054 38 1020.5 25 c 0,2,3
 987 12 987 12 948 1 c 0,4,5
 909 -10 909 -10 868.5 -17.5 c 0,6,7
 828 -25 828 -25 795 -25 c 0,8,9
 737 -25 737 -25 709 -5.5 c 0,10,11
 681 14 681 14 670.5 39.5 c 0,12,13
 660 65 660 65 661 91 c 0,14,15
 662 117 662 117 662 129 c 0,16,17
 581 52 581 52 492.5 13.5 c 0,18,19
 404 -25 404 -25 301 -25 c 0,20,21
 230 -25 230 -25 185 0 c 0,22,23
 140 25 140 25 117 63 c 0,24,25
 94 101 94 101 89 146 c 0,26,27
 84 191 84 191 92 231 c 0,28,-1
 225 870 l 0,29,-1
 53 889 l 0,30,-1
 53 948 l 0,31,-1
 362 1012 l 0,32,-1
 446 1012 l 0,33,-1
 283 231 l 0,34,35
 277 205 277 205 285.5 181.5 c 0,36,37
 294 158 294 158 310.5 140.5 c 0,38,39
 327 123 327 123 348 112.5 c 0,40,41
 369 102 369 102 389 102 c 0,42,43
 426 102 426 102 463.5 112.5 c 0,44,45
 501 123 501 123 538 141 c 0,46,47
 575 159 575 159 609 182.5 c 0,48,49
 643 206 643 206 672 233 c 0,50,-1
 827 987 l 0,51,-1
 1018 987 l 0,52,-1
 854 199 l 0,53,54
 847 167 847 167 854 145.5 c 0,55,56
 861 124 861 124 875.5 110 c 0,57,58
 890 96 890 96 908.5 90 c 0,59,60
 927 84 927 84 944 84 c 0,61,62
 964 84 964 84 997 90 c 0,63,64
 1030 96 1030 96 1073 121 c 0,65,-1
 1073 49 l 0,0,1
EndSplineSet
EndChar

StartChar: v
Encoding: 89 118 89
Width: 946
Flags: W
LayerCount: 2
Fore
SplineSet
956 889 m 0,0,1
 956 863 956 863 951 840 c 0,2,3
 946 817 946 817 939.5 797 c 0,4,5
 933 777 933 777 925.5 761 c 0,6,7
 918 745 918 745 913 735 c 0,8,9
 845 609 845 609 767 494 c 0,10,11
 689 379 689 379 614 281.5 c 0,12,13
 539 184 539 184 472 105.5 c 0,14,15
 405 27 405 27 358 -25 c 0,16,-1
 240 -25 l 0,17,18
 261 20 261 20 272 58.5 c 0,19,20
 283 97 283 97 281 131 c 0,21,22
 281 134 281 134 279 161.5 c 0,23,24
 277 189 277 189 273.5 232.5 c 0,25,26
 270 276 270 276 265 332 c 0,27,28
 260 388 260 388 254 448 c 0,29,30
 248 508 248 508 241.5 568.5 c 0,31,32
 235 629 235 629 227.5 681.5 c 0,33,34
 220 734 220 734 212.5 774.5 c 0,35,36
 205 815 205 815 197 836 c 0,37,38
 187 857 187 857 177 867 c 0,39,40
 167 877 167 877 150 877 c 0,41,-1
 4 885 l 0,42,-1
 4 944 l 0,43,-1
 223 1012 l 0,44,45
 307 1010 307 1010 345 974.5 c 0,46,47
 383 939 383 939 391 866 c 0,48,-1
 455 236 l 0,49,50
 507 304 507 304 551 365.5 c 0,51,52
 595 427 595 427 631.5 485 c 0,53,54
 668 543 668 543 698 600.5 c 0,55,56
 728 658 728 658 752 719 c 0,57,-1
 713 967 l 0,58,59
 733 987 733 987 763 999.5 c 0,60,61
 793 1012 793 1012 831 1012 c 0,62,63
 897 1012 897 1012 926.5 978.5 c 0,64,65
 956 945 956 945 956 889 c 0,0,1
EndSplineSet
EndChar

StartChar: w
Encoding: 90 119 90
Width: 1438
Flags: W
LayerCount: 2
Fore
SplineSet
1446 891 m 0,0,1
 1446 848 1446 848 1424 788 c 0,2,3
 1402 728 1402 728 1366 658.5 c 0,4,5
 1330 589 1330 589 1283 514 c 0,6,7
 1236 439 1236 439 1186.5 366 c 0,8,9
 1137 293 1137 293 1088.5 226.5 c 0,10,11
 1040 160 1040 160 1000 107 c 0,12,13
 960 54 960 54 932.5 19 c 0,14,15
 905 -16 905 -16 897 -25 c 0,16,-1
 770 -25 l 0,17,-1
 725 674 l 0,18,19
 680 577 680 577 631 480.5 c 0,20,21
 582 384 582 384 533 294 c 0,22,23
 484 204 484 204 436.5 122.5 c 0,24,25
 389 41 389 41 346 -25 c 0,26,-1
 195 -25 l 0,27,-1
 215 23 l 0,28,-1
 158 868 l 0,29,-1
 4 885 l 0,30,-1
 4 942 l 0,31,-1
 252 1012 l 0,32,-1
 344 1006 l 0,33,-1
 389 240 l 0,34,35
 429 313 429 313 473 401 c 0,36,37
 517 489 517 489 562 582.5 c 0,38,39
 607 676 607 676 651 772.5 c 0,40,41
 695 869 695 869 735 961 c 0,42,-1
 889 979 l 0,43,-1
 940 199 l 0,44,45
 1035 321 1035 321 1107 450 c 0,46,47
 1179 579 1179 579 1241 721 c 0,48,-1
 1200 961 l 0,49,50
 1204 965 1204 965 1213.5 973.5 c 0,51,52
 1223 982 1223 982 1239 990.5 c 0,53,54
 1255 999 1255 999 1276 1005.5 c 0,55,56
 1297 1012 1297 1012 1323 1012 c 0,57,58
 1360 1012 1360 1012 1383.5 997.5 c 0,59,60
 1407 983 1407 983 1421 963.5 c 0,61,62
 1435 944 1435 944 1440.5 923.5 c 0,63,64
 1446 903 1446 903 1446 891 c 0,0,1
EndSplineSet
EndChar

StartChar: x
Encoding: 91 120 91
Width: 1081
Flags: W
LayerCount: 2
Fore
SplineSet
1104 891 m 0,0,1
 1104 851 1104 851 1077.5 814.5 c 0,2,3
 1051 778 1051 778 991 758 c 0,4,-1
 901 838 l 0,5,6
 874 827 874 827 841 798.5 c 0,7,8
 808 770 808 770 773.5 725.5 c 0,9,10
 739 681 739 681 705 622 c 0,11,12
 671 563 671 563 641 492 c 0,13,14
 647 473 647 473 655.5 444.5 c 0,15,16
 664 416 664 416 675 382.5 c 0,17,18
 686 349 686 349 698.5 313.5 c 0,19,20
 711 278 711 278 725 246 c 0,21,22
 740 213 740 213 756.5 184 c 0,23,24
 773 155 773 155 791 133 c 0,25,26
 809 111 809 111 827.5 98.5 c 0,27,28
 846 86 846 86 864 86 c 0,29,30
 887 86 887 86 913.5 90.5 c 0,31,32
 940 95 940 95 981 115 c 0,33,-1
 981 41 l 0,34,35
 922 10 922 10 864.5 -7.5 c 0,36,37
 807 -25 807 -25 741 -25 c 0,38,39
 707 -25 707 -25 678 -6.5 c 0,40,41
 649 12 649 12 624.5 42 c 0,42,43
 600 72 600 72 579.5 111.5 c 0,44,45
 559 151 559 151 543 193 c 0,46,47
 527 235 527 235 514.5 277 c 0,48,49
 502 319 502 319 494 354 c 0,50,51
 465 300 465 300 427.5 234.5 c 0,52,53
 390 169 390 169 342 111 c 0,54,55
 294 53 294 53 235.5 14 c 0,56,57
 177 -25 177 -25 106 -25 c 0,58,59
 43 -25 43 -25 3 4.5 c 0,60,61
 -37 34 -37 34 -37 88 c 0,62,63
 -37 138 -37 138 -4.5 168 c 0,64,65
 28 198 28 198 90 209 c 0,66,-1
 176 127 l 0,67,68
 207 146 207 146 241.5 179 c 0,69,70
 276 212 276 212 311.5 258.5 c 0,71,72
 347 305 347 305 380.5 365 c 0,73,74
 414 425 414 425 442 498 c 0,75,76
 437 518 437 518 426 553 c 0,77,78
 415 588 415 588 399.5 627.5 c 0,79,80
 384 667 384 667 367 708 c 0,81,82
 350 749 350 749 334 782.5 c 0,83,84
 318 816 318 816 305 837.5 c 0,85,86
 292 859 292 859 285 860 c 0,87,-1
 106 883 l 0,88,-1
 106 938 l 0,89,90
 115 941 115 941 135 947.5 c 0,91,92
 155 954 155 954 180.5 962.5 c 0,93,94
 206 971 206 971 233.5 979.5 c 0,95,96
 261 988 261 988 285 995.5 c 0,97,98
 309 1003 309 1003 327 1007.5 c 0,99,100
 345 1012 345 1012 352 1012 c 0,101,102
 388 1012 388 1012 420 986 c 0,103,104
 452 960 452 960 480.5 910 c 0,105,106
 509 860 509 860 534.5 788 c 0,107,108
 560 716 560 716 584 623 c 0,109,110
 614 681 614 681 655.5 749 c 0,111,112
 697 817 697 817 747 875.5 c 0,113,114
 797 934 797 934 855.5 973 c 0,115,116
 914 1012 914 1012 979 1012 c 0,117,118
 1035 1012 1035 1012 1069.5 978.5 c 0,119,120
 1104 945 1104 945 1104 891 c 0,0,1
EndSplineSet
EndChar

StartChar: y
Encoding: 92 121 92
Width: 1018
Flags: W
LayerCount: 2
Fore
SplineSet
971 846 m 0,0,1
 959 834 959 834 936 802 c 0,2,3
 913 770 913 770 888.5 730 c 0,4,5
 864 690 864 690 840.5 647.5 c 0,6,7
 817 605 817 605 803 573 c 0,8,9
 781 524 781 524 751.5 454 c 0,10,11
 722 384 722 384 685.5 303.5 c 0,12,13
 649 223 649 223 606 136.5 c 0,14,15
 563 50 563 50 514 -33 c 0,16,17
 466 -114 466 -114 411.5 -192.5 c 0,18,19
 357 -271 357 -271 296 -332.5 c 0,20,21
 235 -394 235 -394 167.5 -431.5 c 0,22,23
 100 -469 100 -469 27 -469 c 0,24,25
 -29 -469 -29 -469 -66 -455 c 0,26,27
 -103 -441 -103 -441 -125 -420.5 c 0,28,29
 -147 -400 -147 -400 -155.5 -376.5 c 0,30,31
 -164 -353 -164 -353 -164 -334 c 0,32,33
 -164 -311 -164 -311 -153.5 -289.5 c 0,34,35
 -143 -268 -143 -268 -124 -251.5 c 0,36,37
 -105 -235 -105 -235 -79 -225 c 0,38,39
 -53 -215 -53 -215 -23 -213 c 0,40,-1
 96 -332 l 0,41,42
 128 -329 128 -329 159 -306.5 c 0,43,44
 190 -284 190 -284 224.5 -239 c 0,45,46
 259 -194 259 -194 300 -126 c 0,47,48
 341 -58 341 -58 393 37 c 0,49,50
 391 49 391 49 383 90.5 c 0,51,52
 375 132 375 132 363.5 191.5 c 0,53,54
 352 251 352 251 337.5 323 c 0,55,56
 323 395 323 395 307 469 c 0,57,58
 291 541 291 541 273.5 613.5 c 0,59,60
 256 686 256 686 239.5 744 c 0,61,62
 223 802 223 802 210 839 c 0,63,64
 197 876 197 876 190 877 c 0,65,-1
 4 891 l 0,66,-1
 4 942 l 0,67,-1
 32 951 l 0,68,69
 52 958 52 958 76 965.5 c 0,70,71
 100 973 100 973 127 981.5 c 0,72,73
 154 990 154 990 178 996.5 c 0,74,75
 202 1003 202 1003 221.5 1007.5 c 0,76,77
 241 1012 241 1012 250 1012 c 0,78,79
 283 1012 283 1012 308 996.5 c 0,80,81
 333 981 333 981 352.5 952 c 0,82,83
 372 923 372 923 388.5 882.5 c 0,84,85
 405 842 405 842 420 791 c 0,86,87
 446 700 446 700 474 565.5 c 0,88,89
 502 431 502 431 532 266 c 0,90,-1
 844 1012 l 0,91,-1
 903 1012 l 0,92,-1
 1073 956 l 0,93,-1
 1073 909 l 0,94,-1
 971 846 l 0,0,1
EndSplineSet
EndChar

StartChar: z
Encoding: 93 122 93
Width: 911
Flags: W
LayerCount: 2
Fore
SplineSet
227 145 m 0,0,-1
 399 190 l 0,1,2
 420 182 420 182 447 170.5 c 0,3,4
 474 159 474 159 502.5 148 c 0,5,6
 531 137 531 137 558 129 c 0,7,8
 585 121 585 121 606 121 c 0,9,10
 628 121 628 121 644.5 127.5 c 0,11,12
 661 134 661 134 673.5 144 c 0,13,14
 686 154 686 154 696 165.5 c 0,15,16
 706 177 706 177 715 188 c 0,17,-1
 602 313 l 0,18,19
 612 331 612 331 626 345.5 c 0,20,21
 640 360 640 360 655.5 370 c 0,22,23
 671 380 671 380 687 385.5 c 0,24,25
 703 391 703 391 717 391 c 0,26,27
 745 391 745 391 766.5 379.5 c 0,28,29
 788 368 788 368 803 350 c 0,30,31
 818 332 818 332 826 309 c 0,32,33
 834 286 834 286 834 264 c 0,34,35
 834 202 834 202 806.5 149 c 0,36,37
 779 96 779 96 735.5 57.5 c 0,38,39
 692 19 692 19 639.5 -3 c 0,40,41
 587 -25 587 -25 537 -25 c 0,42,43
 490 -25 490 -25 447.5 -11.5 c 0,44,45
 405 2 405 2 365.5 18.5 c 0,46,47
 326 35 326 35 288 49 c 0,48,49
 250 63 250 63 213 63 c 0,50,51
 205 63 205 63 189.5 60 c 0,52,53
 174 57 174 57 160 43 c 0,54,-1
 109 -53 l 0,55,-1
 -33 23 l 0,56,-1
 662 836 l 0,57,-1
 481 797 l 0,58,59
 439 820 439 820 394 838 c 0,60,61
 349 856 349 856 307 856 c 0,62,63
 294 856 294 856 278 852 c 0,64,65
 262 848 262 848 247 840.5 c 0,66,67
 232 833 232 833 218.5 822 c 0,68,69
 205 811 205 811 197 797 c 0,70,-1
 305 666 l 0,71,72
 301 660 301 660 291 648.5 c 0,73,74
 281 637 281 637 266.5 625.5 c 0,75,76
 252 614 252 614 233 606 c 0,77,78
 214 598 214 598 193 598 c 0,79,80
 164 598 164 598 142.5 609.5 c 0,81,82
 121 621 121 621 107 639 c 0,83,84
 93 657 93 657 86.5 678.5 c 0,85,86
 80 700 80 700 80 719 c 0,87,88
 80 766 80 766 99.5 817.5 c 0,89,90
 119 869 119 869 156.5 912.5 c 0,91,92
 194 956 194 956 247.5 984 c 0,93,94
 301 1012 301 1012 369 1012 c 0,95,96
 415 1012 415 1012 457.5 996 c 0,97,98
 500 980 500 980 538 960.5 c 0,99,100
 576 941 576 941 610.5 925 c 0,101,102
 645 909 645 909 676 909 c 0,103,104
 682 909 682 909 693 911.5 c 0,105,106
 704 914 704 914 723 924 c 0,107,-1
 768 1038 l 0,108,-1
 922 958 l 0,109,-1
 227 145 l 0,0,-1
EndSplineSet
EndChar

StartChar: braceleft
Encoding: 94 123 94
Width: 995
Flags: W
LayerCount: 2
Fore
SplineSet
1032 1354 m 0,0,1
 949 1354 949 1354 895 1334 c 0,2,3
 841 1314 841 1314 807 1282 c 0,4,5
 772 1249 772 1249 752.5 1204 c 0,6,7
 733 1159 733 1159 721 1108 c 0,8,9
 709 1057 709 1057 700.5 1002 c 0,10,11
 692 947 692 947 679 894 c 0,12,13
 666 841 666 841 644.5 792.5 c 0,14,15
 623 744 623 744 584 705 c 0,16,17
 550 673 550 673 498.5 644.5 c 0,18,19
 447 616 447 616 369 596 c 0,20,21
 415 580 415 580 449 562.5 c 0,22,23
 483 545 483 545 508 522 c 0,24,25
 540 492 540 492 553.5 453 c 0,26,27
 567 414 567 414 568 370 c 0,28,29
 569 326 569 326 561.5 278 c 0,30,31
 554 230 554 230 544 182.5 c 0,32,33
 534 135 534 135 525 89 c 0,34,35
 516 43 516 43 514 3 c 0,36,37
 512 -37 512 -37 520.5 -70 c 0,38,39
 529 -103 529 -103 555 -125 c 0,40,41
 571 -139 571 -139 592 -147 c 0,42,43
 613 -155 613 -155 636.5 -159.5 c 0,44,45
 660 -164 660 -164 685.5 -165 c 0,46,47
 711 -166 711 -166 735 -166 c 0,48,-1
 719 -252 l 0,49,50
 663 -252 663 -252 611 -249.5 c 0,51,52
 559 -247 559 -247 514.5 -238 c 0,53,54
 470 -229 470 -229 433.5 -212.5 c 0,55,56
 397 -196 397 -196 371 -168 c 0,57,58
 342 -137 342 -137 331 -96 c 0,59,60
 320 -55 320 -55 320.5 -9 c 0,61,62
 321 37 321 37 329.5 86.5 c 0,63,64
 338 136 338 136 348.5 186 c 0,65,66
 359 236 359 236 368.5 283.5 c 0,67,68
 378 331 378 331 379.5 373 c 0,69,70
 381 415 381 415 371.5 450 c 0,71,72
 362 485 362 485 336 508 c 0,73,74
 318 525 318 525 293 533 c 0,75,76
 268 541 268 541 239.5 544 c 0,77,78
 211 547 211 547 180 547 c 0,79,-1
 119 547 l 0,80,-1
 137 641 l 0,81,82
 179 641 179 641 216.5 642 c 0,83,84
 254 643 254 643 286 649 c 0,85,86
 318 655 318 655 345.5 667.5 c 0,87,88
 373 680 373 680 395 702 c 0,89,90
 433 738 433 738 453.5 791.5 c 0,91,92
 474 845 474 845 486.5 906 c 0,93,94
 499 967 499 967 510 1032.5 c 0,95,96
 521 1098 521 1098 539.5 1160 c 0,97,98
 558 1222 558 1222 590 1275.5 c 0,99,100
 622 1329 622 1329 678 1366 c 0,101,102
 741 1409 741 1409 831.5 1424.5 c 0,103,104
 922 1440 922 1440 1047 1440 c 0,105,-1
 1032 1354 l 0,0,1
EndSplineSet
EndChar

StartChar: bar
Encoding: 95 124 95
Width: 724
Flags: W
LayerCount: 2
Fore
SplineSet
300 -528 m 0,0,-1
 300 1630 l 0,1,-1
 424 1630 l 0,2,-1
 424 -528 l 0,3,-1
 300 -528 l 0,0,-1
EndSplineSet
EndChar

StartChar: braceright
Encoding: 96 125 96
Width: 995
Flags: W
LayerCount: 2
Fore
SplineSet
879 547 m 0,0,1
 837 547 837 547 799.5 545.5 c 0,2,3
 762 544 762 544 729.5 538 c 0,4,5
 697 532 697 532 670 519.5 c 0,6,7
 643 507 643 507 621 485 c 0,8,9
 583 449 583 449 563 396 c 0,10,11
 543 343 543 343 530 282 c 0,12,13
 517 221 517 221 506.5 155 c 0,14,15
 496 89 496 89 477.5 27.5 c 0,16,17
 459 -34 459 -34 427 -87.5 c 0,18,19
 395 -141 395 -141 340 -178 c 0,20,21
 275 -222 275 -222 184.5 -237 c 0,22,23
 94 -252 94 -252 -31 -252 c 0,24,-1
 -16 -166 l 0,25,26
 67 -166 67 -166 121.5 -146 c 0,27,28
 176 -126 176 -126 211 -94 c 0,29,30
 246 -61 246 -61 265 -16 c 0,31,32
 284 29 284 29 295.5 80.5 c 0,33,34
 307 132 307 132 315 187 c 0,35,36
 323 242 323 242 336 295 c 0,37,38
 349 348 349 348 371 396.5 c 0,39,40
 393 445 393 445 432 483 c 0,41,42
 466 517 466 517 517.5 544.5 c 0,43,44
 569 572 569 572 647 594 c 0,45,46
 555 621 555 621 510 666 c 0,47,48
 467 706 467 706 456 761.5 c 0,49,50
 445 817 445 817 451 879 c 0,51,52
 457 941 457 941 472.5 1006 c 0,53,54
 488 1071 488 1071 497 1129.5 c 0,55,56
 506 1188 506 1188 501.5 1236 c 0,57,58
 497 1284 497 1284 463 1313 c 0,59,60
 446 1327 446 1327 424.5 1335 c 0,61,62
 403 1343 403 1343 379.5 1347.5 c 0,63,64
 356 1352 356 1352 330.5 1353 c 0,65,66
 305 1354 305 1354 281 1354 c 0,67,-1
 299 1440 l 0,68,69
 354 1440 354 1440 405 1437.5 c 0,70,71
 456 1435 456 1435 500.5 1426 c 0,72,73
 545 1417 545 1417 582 1400.5 c 0,74,75
 619 1384 619 1384 645 1356 c 0,76,77
 683 1314 683 1314 691 1256.5 c 0,78,79
 699 1199 699 1199 691 1134 c 0,80,81
 683 1069 683 1069 667 1002 c 0,82,83
 651 935 651 935 642.5 873.5 c 0,84,85
 634 812 634 812 639.5 761.5 c 0,86,87
 645 711 645 711 680 680 c 0,88,89
 698 663 698 663 723 655 c 0,90,91
 748 647 748 647 776.5 644 c 0,92,93
 805 641 805 641 836 641 c 0,94,-1
 897 641 l 0,95,-1
 879 547 l 0,0,1
EndSplineSet
EndChar

StartChar: asciitilde
Encoding: 97 126 97
Width: 1706
Flags: W
LayerCount: 2
Fore
SplineSet
1542 627 m 1,0,1
 1485 586 1485 586 1434.5 559 c 128,-1,2
 1384 532 1384 532 1338 516 c 128,-1,3
 1292 500 1292 500 1249 493.5 c 128,-1,4
 1206 487 1206 487 1163 487 c 0,5,6
 1091 487 1091 487 1019.5 507.5 c 128,-1,7
 948 528 948 528 875.5 554 c 128,-1,8
 803 580 803 580 728 600.5 c 128,-1,9
 653 621 653 621 575 621 c 256,10,11
 497 621 497 621 401 579 c 128,-1,12
 305 537 305 537 203 463 c 1,13,-1
 203 594 l 1,14,15
 312 672 312 672 409 704.5 c 128,-1,16
 506 737 506 737 590 737 c 0,17,18
 664 737 664 737 738.5 716.5 c 128,-1,19
 813 696 813 696 885.5 671.5 c 128,-1,20
 958 647 958 647 1029 626.5 c 128,-1,21
 1100 606 1100 606 1165 606 c 0,22,23
 1202 606 1202 606 1243 613.5 c 128,-1,24
 1284 621 1284 621 1330 639 c 128,-1,25
 1376 657 1376 657 1429.5 687 c 128,-1,26
 1483 717 1483 717 1544 760 c 1,27,-1
 1542 627 l 1,0,1
EndSplineSet
Refer: 348 -1 N 1 0 0 1 0 0 2
EndChar

StartChar: exclam.taml
Encoding: 99 -1 99
Width: 917
Flags: W
LayerCount: 2
Fore
SplineSet
784 1290 m 0,0,1
 874 1290 874 1290 874 1182 c 0,2,3
 874 1143 874 1143 869 1119.5 c 128,-1,4
 864 1096 864 1096 862 1085 c 0,5,6
 766 809 766 809 664 504 c 0,7,8
 627 393 627 393 567 211 c 1,9,-1
 549 211 l 1,10,11
 574 391 574 391 584 502 c 0,12,13
 621 842 621 842 621 1087 c 0,14,15
 621 1173 621 1173 667.5 1234.5 c 128,-1,16
 714 1296 714 1296 784 1290 c 0,0,1
516 31 m 0,17,18
 567 31 567 31 592.5 0 c 128,-1,19
 618 -31 618 -31 608 -82 c 256,20,21
 598 -133 598 -133 560 -169 c 128,-1,22
 522 -205 522 -205 471 -205 c 0,23,24
 424 -205 424 -205 397.5 -169 c 128,-1,25
 371 -133 371 -133 381 -82 c 0,26,27
 391 -37 391 -37 431 -3 c 128,-1,28
 471 31 471 31 516 31 c 0,17,18
EndSplineSet
EndChar

StartChar: quoteleft.taml
Encoding: 100 -1 100
Width: 716
Flags: W
LayerCount: 2
Fore
SplineSet
903 1858 m 1,0,1
 731 1805 731 1805 616 1667 c 0,2,3
 514 1544 514 1544 547 1516 c 0,4,5
 561 1506 561 1506 578 1505 c 0,6,7
 586 1505 586 1505 657 1542 c 0,8,9
 688 1558 688 1558 717 1559 c 0,10,11
 748 1559 748 1559 766 1542 c 0,12,13
 819 1499 819 1499 819 1419 c 0,14,15
 819 1345 819 1345 768 1286 c 0,16,17
 709 1212 709 1212 604 1212 c 0,18,19
 573 1212 573 1212 529 1217.5 c 128,-1,20
 485 1223 485 1223 452.5 1277 c 128,-1,21
 420 1331 420 1331 420 1411 c 0,22,23
 420 1479 420 1479 449 1544 c 0,24,25
 535 1747 535 1747 733 1864 c 0,26,27
 799 1901 799 1901 915 1939 c 1,28,-1
 903 1858 l 1,0,1
EndSplineSet
EndChar

StartChar: u20A8
Encoding: 101 8360 101
Width: 2293
Flags: W
LayerCount: 2
Fore
SplineSet
2046 246 m 0,0,1
 2023 135 2023 135 1923 59.5 c 128,-1,2
 1823 -16 1823 -16 1712 -16 c 0,3,4
 1661 -16 1661 -16 1581 0 c 128,-1,5
 1501 16 1501 16 1483 16 c 0,6,7
 1454 16 1454 16 1438 -2 c 1,8,-1
 1497 287 l 1,9,10
 1499 135 1499 135 1561 74 c 0,11,12
 1614 21 1614 21 1718 20 c 0,13,14
 1779 20 1779 20 1841 67.5 c 128,-1,15
 1903 115 1903 115 1913 168 c 0,16,17
 1915 176 1915 176 1915 185.5 c 128,-1,18
 1915 195 1915 195 1915 197 c 0,19,20
 1915 254 1915 254 1858 305 c 0,21,22
 1819 342 1819 342 1729 389 c 0,23,24
 1647 440 1647 440 1636 449 c 0,25,26
 1562 506 1562 506 1563 582 c 0,27,28
 1563 615 1563 615 1567 633 c 0,29,30
 1585 737 1585 737 1668 802.5 c 128,-1,31
 1751 868 1751 868 1855 868 c 0,32,33
 1906 868 1906 868 1947.5 860 c 128,-1,34
 1989 852 1989 852 2040 844 c 0,35,36
 2073 844 2073 844 2087 868 c 1,37,-1
 2114 868 l 1,38,-1
 2058 600 l 1,39,-1
 2034 600 l 1,40,41
 2034 733 2034 733 1989 787.5 c 128,-1,42
 1944 842 1944 842 1843 842 c 0,43,44
 1784 842 1784 842 1729.5 806 c 128,-1,45
 1675 770 1675 770 1668 736 c 128,-1,46
 1661 702 1661 702 1661 680 c 0,47,48
 1661 606 1661 606 1755 549 c 0,49,50
 1786 531 1786 531 1868 487 c 0,51,52
 1958 434 1958 434 1987 406 c 0,53,54
 2044 353 2044 353 2044 281 c 0,55,56
 2044 271 2044 271 2046 246 c 0,0,1
1276 8 m 1,57,-1
 948 8 l 1,58,-1
 643 614 l 1,59,-1
 496 610 l 1,60,-1
 410 227 l 2,61,62
 406 196 406 196 401.5 174 c 128,-1,63
 397 152 397 152 397 125 c 0,64,65
 397 68 397 68 420.5 56.5 c 128,-1,66
 444 45 444 45 512 45 c 2,67,-1
 555 45 l 1,68,-1
 551 14 l 1,69,-1
 27 14 l 1,70,-1
 31 45 l 1,71,-1
 59 45 l 2,72,73
 141 45 141 45 172 68 c 0,74,75
 223 105 223 105 250 229 c 2,76,-1
 426 1071 l 2,77,78
 436 1116 436 1116 436 1155 c 0,79,80
 436 1212 436 1212 407.5 1226.5 c 128,-1,81
 379 1241 379 1241 307 1241 c 2,82,-1
 274 1239 l 1,83,-1
 283 1276 l 1,84,-1
 735 1276 l 2,85,86
 975 1276 975 1276 1090.5 1225 c 128,-1,87
 1206 1174 1206 1174 1206 1042 c 0,88,89
 1206 1009 1206 1009 1198 967 c 0,90,91
 1173 852 1173 852 1085 772 c 0,92,93
 983 678 983 678 807 639 c 1,94,95
 897 459 897 459 944 371 c 0,96,97
 1089 97 1089 97 1118 82 c 0,98,99
 1141 66 1141 66 1189 56.5 c 128,-1,100
 1237 47 1237 47 1276 43 c 1,101,-1
 1276 8 l 1,57,-1
1001 942 m 0,102,103
 1009 975 1009 975 1010 1012 c 0,104,105
 1010 1108 1010 1108 956 1161 c 0,106,107
 890 1227 890 1227 752 1227 c 0,108,109
 705 1227 705 1227 618 1212 c 1,110,-1
 502 668 l 1,111,112
 518 666 518 666 534.5 666 c 128,-1,113
 551 666 551 666 569 666 c 0,114,115
 735 666 735 666 856.5 745.5 c 128,-1,116
 978 825 978 825 1001 942 c 0,102,103
EndSplineSet
EndChar

StartChar: percent.taml
Encoding: 102 -1 102
Width: 1665
Flags: W
LayerCount: 2
Fore
SplineSet
1524 449 m 0,0,1
 1481 240 1481 240 1362 131 c 0,2,3
 1262 41 1262 41 1151 41 c 0,4,5
 1104 41 1104 41 1077 51 c 0,6,7
 977 90 977 90 977 244 c 0,8,9
 977 299 977 299 993 381 c 0,10,11
 1030 553 1030 553 1114 662 c 0,12,13
 1229 805 1229 805 1360 805 c 0,14,15
 1432 805 1432 805 1477 766 c 0,16,17
 1543 709 1543 709 1542 590 c 0,18,19
 1542 531 1542 531 1524 449 c 0,0,1
1528 1442 m 1,20,-1
 406 33 l 1,21,-1
 291 33 l 1,22,-1
 1411 1442 l 1,23,-1
 1528 1442 l 1,20,-1
842 1096 m 0,24,25
 805 926 805 926 719 817 c 0,26,27
 604 674 604 674 473 674 c 0,28,29
 401 674 401 674 356 713 c 0,30,31
 290 770 290 770 291 889 c 0,32,33
 291 948 291 948 307 1030 c 0,34,35
 350 1239 350 1239 469 1348 c 0,36,37
 569 1438 569 1438 680 1438 c 0,38,39
 727 1438 727 1438 756 1427 c 0,40,41
 856 1388 856 1388 856 1235 c 0,42,43
 856 1178 856 1178 842 1096 c 0,24,25
1384 338 m 0,44,45
 1400 420 1400 420 1401 479 c 0,46,47
 1401 569 1401 569 1360 614 c 128,-1,48
 1319 659 1319 659 1260 659 c 0,49,50
 1164 659 1164 659 1133 516 c 0,51,52
 1117 430 1117 430 1116 369 c 0,53,54
 1116 179 1116 179 1264 178 c 0,55,56
 1351 178 1351 178 1384 338 c 0,44,45
696 954 m 0,57,58
 712 1040 712 1040 713 1102 c 0,59,60
 713 1292 713 1292 565 1292 c 0,61,62
 477 1292 477 1292 444 1135 c 0,63,64
 428 1053 428 1053 428 995 c 0,65,66
 428 901 428 901 469 856 c 128,-1,67
 510 811 510 811 571 811 c 0,68,69
 667 811 667 811 696 954 c 0,57,58
EndSplineSet
EndChar

StartChar: ampersand.taml
Encoding: 103 -1 103
Width: 1447
Flags: W
LayerCount: 2
Fore
SplineSet
1122 819 m 1,0,-1
 1499 819 l 1,1,-1
 1491 786 l 1,2,3
 1423 786 1423 786 1370 754 c 0,4,5
 1337 729 1337 729 1292 678 c 0,6,7
 1278 662 1278 662 1221 586 c 0,8,9
 1127 459 1127 459 983 315 c 1,10,11
 1012 270 1012 270 1038.5 240.5 c 128,-1,12
 1065 211 1065 211 1098 186 c 0,13,14
 1155 149 1155 149 1214 150 c 0,15,16
 1343 150 1343 150 1409 283 c 1,17,-1
 1440 258 l 1,18,19
 1381 135 1381 135 1297.5 72.5 c 128,-1,20
 1214 10 1214 10 1114 10 c 0,21,22
 1046 10 1046 10 967 49 c 0,23,24
 934 67 934 67 901 100 c 128,-1,25
 868 133 868 133 829 184 c 1,26,27
 710 96 710 96 595.5 51 c 128,-1,28
 481 6 481 6 393 6 c 0,29,30
 256 6 256 6 180 90 c 0,31,32
 129 149 129 149 129 229 c 0,33,34
 129 352 129 352 258 494 c 0,35,36
 356 603 356 603 602 719 c 1,37,38
 577 836 577 836 578 901 c 0,39,40
 578 940 578 940 586 987 c 0,41,42
 615 1120 615 1120 723 1201 c 128,-1,43
 831 1282 831 1282 965 1282 c 0,44,45
 1053 1282 1053 1282 1110 1234 c 128,-1,46
 1167 1186 1167 1186 1167 1110 c 0,47,48
 1167 1096 1167 1096 1163 1067 c 0,49,50
 1145 973 1145 973 1065 900 c 128,-1,51
 985 827 985 827 797 739 c 1,52,53
 840 620 840 620 875.5 536.5 c 128,-1,54
 911 453 911 453 958 367 c 1,55,56
 1146 553 1146 553 1184 686 c 1,57,58
 1200 776 1200 776 1120 786 c 1,59,-1
 1122 819 l 1,0,-1
778 797 m 1,60,61
 907 854 907 854 973.5 916.5 c 128,-1,62
 1040 979 1040 979 1057 1067 c 0,63,64
 1059 1077 1059 1077 1059 1100 c 0,65,66
 1059 1151 1059 1151 1029 1184 c 128,-1,67
 999 1217 999 1217 952 1217 c 0,68,69
 878 1217 878 1217 821 1163 c 0,70,71
 776 1118 776 1118 764 1067 c 128,-1,72
 752 1016 752 1016 752 977 c 0,73,74
 751 916 751 916 778 797 c 1,60,61
797 227 m 1,75,76
 725 370 725 370 688 460.5 c 128,-1,77
 651 551 651 551 621 653 c 1,78,79
 553 616 553 616 512 587.5 c 128,-1,80
 471 559 471 559 432 516 c 0,81,82
 342 418 342 418 342 301 c 0,83,84
 342 240 342 240 371 186 c 0,85,86
 396 149 396 149 431.5 127.5 c 128,-1,87
 467 106 467 106 512 106 c 0,88,89
 563 106 563 106 637 137 c 128,-1,90
 711 168 711 168 797 227 c 1,75,76
EndSplineSet
EndChar

StartChar: quoteright.taml
Encoding: 104 -1 104
Width: 716
Flags: W
LayerCount: 2
Fore
SplineSet
764 1577 m 0,0,1
 678 1374 678 1374 479 1257 c 0,2,3
 413 1220 413 1220 297 1182 c 1,4,-1
 315 1264 l 1,5,6
 485 1317 485 1317 600 1454 c 0,7,8
 700 1577 700 1577 668 1606 c 0,9,10
 654 1616 654 1616 637 1616 c 0,11,12
 629 1616 629 1616 557 1579 c 0,13,14
 526 1563 526 1563 498 1563 c 0,15,16
 467 1563 467 1563 449 1579 c 0,17,18
 396 1622 396 1622 395 1702 c 0,19,20
 395 1776 395 1776 446 1835 c 0,21,22
 479 1874 479 1874 522 1890.5 c 128,-1,23
 565 1907 565 1907 612 1907 c 0,24,25
 643 1907 643 1907 686 1901.5 c 128,-1,26
 729 1896 729 1896 762 1842 c 128,-1,27
 795 1788 795 1788 795 1708 c 0,28,29
 795 1640 795 1640 764 1577 c 0,0,1
EndSplineSet
EndChar

StartChar: parenleft.taml
Encoding: 105 -1 105
Width: 802
Flags: W
LayerCount: 2
Fore
SplineSet
713 -705 m 1,0,-1
 690 -723 l 1,1,2
 452 -576 452 -576 336.5 -340 c 128,-1,3
 221 -104 221 -104 221 193 c 0,4,5
 221 369 221 369 258 537 c 0,6,7
 344 940 344 940 582 1264 c 0,8,9
 836 1608 836 1608 1227 1804 c 1,10,-1
 1241 1788 l 1,11,12
 881 1544 881 1544 656.5 1064 c 128,-1,13
 432 584 432 584 432 109 c 0,14,15
 432 -149 432 -149 501 -357.5 c 128,-1,16
 570 -566 570 -566 713 -705 c 1,0,-1
EndSplineSet
EndChar

StartChar: parenright.taml
Encoding: 106 -1 106
Width: 802
Flags: W
LayerCount: 2
Fore
SplineSet
659 541 m 0,0,1
 573 138 573 138 336 -182 c 0,2,3
 82 -524 82 -524 -309 -721 c 1,4,-1
 -319 -702 l 1,5,6
 54 -440 54 -440 276 51 c 0,7,8
 487 514 487 514 487 983 c 0,9,10
 487 1243 487 1243 418.5 1448 c 128,-1,11
 350 1653 350 1653 211 1790 c 1,12,-1
 229 1806 l 1,13,14
 462 1654 462 1654 579 1414 c 128,-1,15
 696 1174 696 1174 696 885 c 0,16,17
 696 709 696 709 659 541 c 0,0,1
EndSplineSet
EndChar

StartChar: asterisk.taml
Encoding: 107 -1 107
Width: 1720
Flags: W
LayerCount: 2
Fore
SplineSet
1083 1149 m 1,0,1
 1015 1112 1015 1112 950 1059 c 0,2,3
 868 991 868 991 788 924 c 0,4,5
 757 901 757 901 725 901 c 0,6,7
 674 901 674 901 659 944 c 0,8,9
 645 977 645 977 667.5 1017 c 128,-1,10
 690 1057 690 1057 723 1068 c 128,-1,11
 756 1079 756 1079 924 1122 c 0,12,13
 1014 1145 1014 1145 1073 1176 c 1,14,15
 1034 1199 1034 1199 981 1214 c 0,16,17
 879 1243 879 1243 778 1274 c 0,18,19
 735 1288 735 1288 735 1341 c 0,20,21
 735 1370 735 1370 754 1403 c 1,22,23
 793 1446 793 1446 846 1446 c 0,24,25
 877 1446 877 1446 893 1427 c 0,26,27
 973 1323 973 1323 997 1290 c 0,28,29
 1040 1233 1040 1233 1092 1196 c 1,30,31
 1096 1225 1096 1225 1096 1254.5 c 128,-1,32
 1096 1284 1096 1284 1096 1300 c 0,33,34
 1096 1333 1096 1333 1094 1420 c 128,-1,35
 1092 1507 1092 1507 1092 1530 c 0,36,37
 1110 1632 1110 1632 1198 1632 c 0,38,39
 1264 1632 1264 1632 1264 1552 c 0,40,41
 1264 1536 1264 1536 1262 1528 c 0,42,43
 1219 1438 1219 1438 1190 1380 c 0,44,45
 1137 1269 1137 1269 1120 1202 c 1,46,47
 1194 1241 1194 1241 1290 1321 c 0,48,49
 1356 1374 1356 1374 1421 1427 c 0,50,51
 1444 1441 1444 1441 1473 1442 c 0,52,53
 1526 1442 1526 1442 1544 1403 c 0,54,55
 1554 1364 1554 1364 1530.5 1324 c 128,-1,56
 1507 1284 1507 1284 1484.5 1279 c 128,-1,57
 1462 1274 1462 1274 1274 1229 c 0,58,59
 1194 1211 1194 1211 1126 1180 c 1,60,61
 1177 1149 1177 1149 1257 1125.5 c 128,-1,62
 1337 1102 1337 1102 1425 1077 c 0,63,64
 1468 1063 1468 1063 1468 1012 c 0,65,66
 1468 983 1468 983 1450 954 c 0,67,68
 1413 909 1413 909 1356 909 c 0,69,70
 1331 909 1331 909 1315 928 c 0,71,72
 1286 959 1286 959 1206 1055 c 0,73,74
 1155 1116 1155 1116 1110 1147 c 1,75,76
 1102 1092 1102 1092 1102 1049 c 0,77,78
 1102 1010 1102 1010 1106 929 c 128,-1,79
 1110 848 1110 848 1110 823 c 0,80,81
 1102 780 1102 780 1073 749.5 c 128,-1,82
 1044 719 1044 719 1008 719 c 0,83,84
 936 719 936 719 936 799 c 0,85,86
 936 815 936 815 938 823 c 0,87,88
 969 895 969 895 1020 1006 c 0,89,90
 1063 1094 1063 1094 1083 1149 c 1,0,1
EndSplineSet
EndChar

StartChar: plus.taml
Encoding: 108 -1 108
Width: 1204
Flags: W
LayerCount: 2
Fore
SplineSet
662 741 m 1,0,-1
 707 956 l 2,1,2
 711 981 711 981 743.5 995.5 c 128,-1,3
 776 1010 776 1010 815 1010 c 0,4,5
 909 1010 909 1010 899 956 c 2,6,-1
 854 741 l 1,7,-1
 1069 741 l 2,8,9
 1108 741 1108 741 1108 680 c 0,10,11
 1108 637 1108 637 1084.5 593 c 128,-1,12
 1061 549 1061 549 1030 549 c 2,13,-1
 817 549 l 1,14,-1
 772 334 l 2,15,16
 768 305 768 305 738.5 290.5 c 128,-1,17
 709 276 709 276 666 276 c 0,18,19
 629 276 629 276 602 291.5 c 128,-1,20
 575 307 575 307 580 332 c 2,21,-1
 625 547 l 1,22,-1
 412 547 l 2,23,24
 373 547 373 547 373 608 c 0,25,26
 373 651 373 651 396.5 695 c 128,-1,27
 420 739 420 739 451 739 c 2,28,-1
 662 741 l 1,0,-1
EndSplineSet
EndChar

StartChar: comma.taml
Encoding: 109 -1 109
Width: 630
Flags: W
LayerCount: 2
Fore
SplineSet
461 96 m 0,0,1
 428 -66 428 -66 289 -184 c 0,2,3
 107 -342 107 -342 -4 -342 c 1,4,-1
 12 -266 l 1,5,6
 63 -266 63 -266 182 -178 c 0,7,8
 327 -74 327 -74 350 37 c 0,9,10
 354 70 354 70 324 70 c 0,11,12
 306 70 306 70 257.5 43 c 128,-1,13
 209 16 209 16 186 16 c 0,14,15
 147 16 147 16 116.5 59 c 128,-1,16
 86 102 86 102 86 160 c 0,17,18
 86 178 86 178 88 186 c 0,19,20
 102 252 102 252 164.5 303 c 128,-1,21
 227 354 227 354 289 354 c 0,22,23
 375 354 375 354 422 295 c 128,-1,24
 469 236 469 236 469 150 c 0,25,26
 469 133 469 133 461 96 c 0,0,1
EndSplineSet
EndChar

StartChar: hyphen.taml
Encoding: 110 -1 110
Width: 1269
Flags: W
LayerCount: 2
Fore
SplineSet
1151 547 m 2,0,-1
 348 547 l 2,1,2
 311 547 311 547 287 561 c 0,3,4
 244 584 244 584 244 631 c 0,5,6
 244 674 244 674 284 709.5 c 128,-1,7
 324 745 324 745 389 745 c 2,8,-1
 1192 745 l 2,9,10
 1245 745 1245 745 1271.5 721.5 c 128,-1,11
 1298 698 1298 698 1298 662 c 0,12,13
 1298 619 1298 619 1258.5 583 c 128,-1,14
 1219 547 1219 547 1151 547 c 2,0,-1
EndSplineSet
EndChar

StartChar: period.taml
Encoding: 111 -1 111
Width: 630
Flags: W
LayerCount: 2
Fore
SplineSet
475 176 m 0,0,1
 461 102 461 102 395.5 51 c 128,-1,2
 330 0 330 0 256 0 c 0,3,4
 195 0 195 0 155 40 c 128,-1,5
 115 80 115 80 115 141 c 0,6,7
 115 164 115 164 117 174 c 0,8,9
 129 248 129 248 191.5 299 c 128,-1,10
 254 350 254 350 328 350 c 0,11,12
 394 350 394 350 434.5 309 c 128,-1,13
 475 268 475 268 475 207 c 0,14,15
 475 188 475 188 475 176 c 0,0,1
EndSplineSet
EndChar

StartChar: uni2215
Encoding: 113 8725 113
Width: 745
Flags: W
LayerCount: 2
Fore
SplineSet
1120 1759 m 1,0,-1
 2 -270 l 1,1,-1
 -111 -270 l 1,2,-1
 1010 1759 l 1,3,-1
 1120 1759 l 1,0,-1
EndSplineSet
EndChar

StartChar: zero.taml
Encoding: 114 -1 114
Width: 1529
Flags: W
LayerCount: 2
Fore
SplineSet
1323 645 m 0,0,1
 1255 321 1255 321 1044 154 c 0,2,3
 849 0 849 0 584 0 c 0,4,5
 527 0 527 0 467 8 c 0,6,7
 281 33 281 33 197 133 c 128,-1,8
 113 233 113 233 113 408 c 0,9,10
 113 523 113 523 139 645 c 0,11,12
 198 926 198 926 330 1077 c 0,13,14
 477 1245 477 1245 733 1276 c 0,15,16
 764 1280 764 1280 797.5 1280 c 128,-1,17
 831 1280 831 1280 848 1280 c 0,18,19
 1090 1280 1090 1280 1212.5 1156 c 128,-1,20
 1335 1032 1335 1032 1335 817 c 0,21,22
 1335 760 1335 760 1333 731 c 128,-1,23
 1331 702 1331 702 1323 645 c 0,0,1
971 637 m 0,24,25
 996 746 996 746 995 836 c 0,26,27
 995 981 995 981 930 1061 c 0,28,29
 856 1149 856 1149 705 1149 c 0,30,31
 531 1149 531 1149 406 995 c 0,32,33
 291 856 291 856 246 637 c 0,34,35
 230 551 230 551 229 471 c 0,36,37
 229 319 229 319 291.5 227 c 128,-1,38
 354 135 354 135 487 135 c 0,39,40
 682 135 682 135 813 291 c 0,41,42
 928 424 928 424 971 637 c 0,24,25
EndSplineSet
EndChar

StartChar: one.taml
Encoding: 115 -1 115
Width: 993
Flags: W
LayerCount: 2
Fore
SplineSet
907 1214 m 1,0,1
 856 1146 856 1146 819 1067.5 c 128,-1,2
 782 989 782 989 766 909 c 128,-1,3
 750 829 750 829 690 584 c 0,4,5
 657 441 657 441 643 381 c 0,6,7
 600 186 600 186 469 82 c 0,8,9
 358 -6 358 -6 219 -6 c 0,10,11
 168 -6 168 -6 168 20 c 0,12,13
 168 36 168 36 190 66 c 0,14,15
 241 134 241 134 278 211.5 c 128,-1,16
 315 289 315 289 334 385 c 0,17,18
 342 422 342 422 442 805 c 0,19,20
 456 866 456 866 473 932 c 1,21,22
 434 860 434 860 389 807 c 0,23,24
 330 735 330 735 262 684 c 0,25,26
 225 655 225 655 195 655 c 256,27,28
 164 655 164 655 162 684 c 0,29,30
 162 735 162 735 201 764 c 0,31,32
 240 787 240 787 279 811 c 0,33,34
 293 821 293 821 307 831 c 0,35,36
 338 856 338 856 375 909 c 0,37,38
 457 1032 457 1032 489 1079 c 0,39,40
 548 1167 548 1167 600 1198 c 0,41,42
 717 1274 717 1274 879 1274 c 0,43,44
 930 1274 930 1274 930 1245 c 0,45,46
 930 1228 930 1228 907 1214 c 1,0,1
EndSplineSet
EndChar

StartChar: two.taml
Encoding: 116 -1 116
Width: 1361
Flags: W
LayerCount: 2
Fore
SplineSet
242 1034 m 0,0,1
 353 1192 353 1192 454 1240 c 128,-1,2
 555 1288 555 1288 698 1288 c 0,3,4
 946 1288 946 1288 1061 1215.5 c 128,-1,5
 1176 1143 1176 1143 1176 995 c 0,6,7
 1176 950 1176 950 1161 885 c 0,8,9
 1108 623 1108 623 854 508 c 1,10,11
 571 399 571 399 291 291 c 0,12,13
 230 260 230 260 201 229.5 c 128,-1,14
 172 199 172 199 172 170 c 0,15,16
 172 113 172 113 262 113 c 0,17,18
 291 113 291 113 322 121 c 0,19,20
 410 150 410 150 426 150 c 0,21,22
 434 150 434 150 464 147.5 c 128,-1,23
 494 145 494 145 524 145 c 0,24,25
 598 145 598 145 632 134 c 128,-1,26
 666 123 666 123 731 123 c 0,27,28
 817 123 817 123 862 139 c 0,29,30
 915 168 915 168 956 186.5 c 128,-1,31
 997 205 997 205 1034 205 c 0,32,33
 1093 205 1093 205 1094 158 c 0,34,35
 1094 113 1094 113 1020 80 c 0,36,37
 967 55 967 55 915.5 33.5 c 128,-1,38
 864 12 864 12 764 12 c 0,39,40
 674 12 674 12 634 23.5 c 128,-1,41
 594 35 594 35 506 35 c 0,42,43
 404 35 404 35 306.5 19.5 c 128,-1,44
 209 4 209 4 156 4 c 256,45,46
 103 4 103 4 72 23 c 0,47,48
 27 50 27 50 27 115 c 0,49,50
 27 125 27 125 31 164 c 0,51,52
 56 289 56 289 240 382 c 128,-1,53
 424 475 424 475 604 563 c 1,54,55
 805 694 805 694 848 897 c 0,56,57
 856 928 856 928 858 956.5 c 128,-1,58
 860 985 860 985 860 1016 c 0,59,60
 860 1176 860 1176 678 1176 c 2,61,-1
 621 1176 l 2,62,63
 521 1176 521 1176 454 1130.5 c 128,-1,64
 387 1085 387 1085 322 991 c 0,65,66
 293 948 293 948 254 948 c 0,67,68
 217 948 217 948 217 981 c 0,69,70
 217 1003 217 1003 242 1034 c 0,0,1
EndSplineSet
EndChar

StartChar: three.taml
Encoding: 117 -1 117
Width: 1214
Flags: W
LayerCount: 2
Fore
SplineSet
309 1169 m 0,0,1
 327 1200 327 1200 404 1238 c 128,-1,2
 481 1276 481 1276 523 1283 c 128,-1,3
 565 1290 565 1290 603 1292 c 128,-1,4
 641 1294 641 1294 670 1294 c 0,5,6
 846 1294 846 1294 955.5 1215.5 c 128,-1,7
 1065 1137 1065 1137 1065 1014 c 0,8,9
 1065 928 1065 928 1006 838 c 0,10,11
 938 736 938 736 811 645 c 1,12,13
 942 530 942 530 942 393 c 0,14,15
 942 231 942 231 777 109.5 c 128,-1,16
 612 -12 612 -12 387 -12 c 0,17,18
 350 -12 350 -12 327.5 -10 c 128,-1,19
 305 -8 305 -8 254 0 c 0,20,21
 59 37 59 37 37 193 c 0,22,23
 33 222 33 222 55.5 248 c 128,-1,24
 78 274 78 274 106 274 c 0,25,26
 145 274 145 274 160 221 c 0,27,28
 191 117 191 117 322 117 c 0,29,30
 426 117 426 117 535.5 212 c 128,-1,31
 645 307 645 307 645 426 c 0,32,33
 645 481 645 481 615.5 535.5 c 128,-1,34
 586 590 586 590 520 637 c 1,35,36
 645 711 645 711 702.5 794 c 128,-1,37
 760 877 760 877 760 952 c 0,38,39
 760 1038 760 1038 697.5 1095.5 c 128,-1,40
 635 1153 635 1153 541 1153 c 2,41,-1
 504 1153 l 2,42,43
 473 1153 473 1153 449.5 1144 c 128,-1,44
 426 1135 426 1135 390 1097 c 128,-1,45
 354 1059 354 1059 324 1059 c 0,46,47
 285 1059 285 1059 285 1104 c 0,48,49
 284 1128 284 1128 309 1169 c 0,0,1
EndSplineSet
EndChar

StartChar: four.taml
Encoding: 118 -1 118
Width: 1458
Flags: W
LayerCount: 2
Fore
SplineSet
662 463 m 1,0,1
 738 709 738 709 774 831 c 0,2,3
 799 933 799 933 827 1036 c 1,4,5
 725 907 725 907 530 713 c 0,6,7
 321 504 321 504 217 432 c 1,8,9
 264 432 264 432 352 440 c 0,10,11
 562 459 562 459 662 463 c 1,0,1
944 348 m 1,12,13
 899 168 899 168 770 72 c 0,14,15
 655 -14 655 -14 524 -14 c 0,16,17
 473 -14 473 -14 473 12 c 0,18,19
 473 28 473 28 496 57 c 0,20,21
 537 114 537 114 572.5 188 c 128,-1,22
 608 262 608 262 631 344 c 1,23,-1
 127 334 l 2,24,25
 80 334 80 334 80 373 c 0,26,27
 80 396 80 396 102 426 c 1,28,29
 270 567 270 567 428 719 c 0,30,31
 602 885 602 885 688 973 c 0,32,33
 797 1084 797 1084 907 1198 c 0,34,35
 952 1243 952 1243 1021 1258.5 c 128,-1,36
 1090 1274 1090 1274 1186 1274 c 0,37,38
 1237 1274 1237 1274 1237 1245 c 0,39,40
 1237 1229 1237 1229 1214 1200 c 0,41,42
 1163 1132 1163 1132 1126.5 1053.5 c 128,-1,43
 1090 975 1090 975 1070.5 880.5 c 128,-1,44
 1051 786 1051 786 1022 671.5 c 128,-1,45
 993 557 993 557 963 438 c 1,46,-1
 977 438 l 2,47,48
 1034 438 1034 438 1143 489 c 0,49,50
 1182 505 1182 505 1206 506 c 0,51,52
 1249 506 1249 506 1249 473 c 0,53,54
 1249 434 1249 434 1192 404.5 c 128,-1,55
 1135 375 1135 375 1087.5 359.5 c 128,-1,56
 1040 344 1040 344 987 344 c 2,57,-1
 944 348 l 1,12,13
EndSplineSet
EndChar

StartChar: five.taml
Encoding: 119 -1 119
Width: 1384
Flags: W
LayerCount: 2
Fore
SplineSet
788 1227 m 0,0,1
 845 1227 845 1227 882.5 1225 c 128,-1,2
 920 1223 920 1223 958 1221 c 0,3,4
 1019 1221 1019 1221 1060.5 1230 c 128,-1,5
 1102 1239 1102 1239 1167 1270 c 0,6,7
 1210 1288 1210 1288 1247 1288 c 0,8,9
 1306 1288 1306 1288 1307 1241 c 0,10,11
 1307 1196 1307 1196 1235 1165.5 c 128,-1,12
 1163 1135 1163 1135 1106 1120.5 c 128,-1,13
 1049 1106 1049 1106 993 1106 c 0,14,15
 932 1106 932 1106 865.5 1110 c 128,-1,16
 799 1114 799 1114 768 1114 c 2,17,-1
 616 1110 l 1,18,-1
 434 895 l 1,19,20
 534 911 534 911 629 911 c 0,21,22
 860 911 860 911 1001.5 816 c 128,-1,23
 1143 721 1143 721 1143 535 c 0,24,25
 1143 504 1143 504 1143 475 c 0,26,27
 1135 444 1135 444 1133 434 c 0,28,29
 1080 176 1080 176 850 74 c 0,30,31
 690 4 690 4 416 4 c 0,32,33
 283 4 283 4 213 25.5 c 128,-1,34
 143 47 143 47 84 106 c 0,35,36
 74 116 74 116 74 133 c 0,37,38
 74 158 74 158 97.5 179.5 c 128,-1,39
 121 201 121 201 150 201 c 0,40,41
 166 201 166 201 176 190 c 0,42,43
 223 143 223 143 272.5 131 c 128,-1,44
 322 119 322 119 436 119 c 0,45,46
 553 119 553 119 660.5 207 c 128,-1,47
 768 295 768 295 799 438 c 0,48,49
 807 485 807 485 807 518 c 0,50,51
 807 670 807 670 662 737 c 0,52,53
 553 788 553 788 387 788 c 0,54,55
 307 788 307 788 307 825 c 0,56,57
 307 848 307 848 346 893 c 1,58,-1
 532 1188 l 1,59,-1
 592 1221 l 2,60,61
 623 1235 623 1235 666 1235 c 0,62,63
 691 1235 691 1235 734.5 1231 c 128,-1,64
 778 1227 778 1227 788 1227 c 0,0,1
EndSplineSet
EndChar

StartChar: six.taml
Encoding: 120 -1 120
Width: 1071
Flags: W
LayerCount: 2
Fore
SplineSet
940 1176 m 0,0,1
 702 1176 702 1176 537 1044 c 0,2,3
 394 929 394 929 348 762 c 1,4,5
 452 815 452 815 596 815 c 0,6,7
 754 815 754 815 865.5 745.5 c 128,-1,8
 977 676 977 676 977 545 c 0,9,10
 977 506 977 506 973 483 c 0,11,12
 928 260 928 260 831 150 c 0,13,14
 708 7 708 7 477 6 c 0,15,16
 282 6 282 6 206.5 75.5 c 128,-1,17
 131 145 131 145 131 293 c 0,18,19
 131 346 131 346 139 408.5 c 128,-1,20
 147 471 147 471 152 510 c 0,21,22
 203 864 203 864 399 1067 c 0,23,24
 612 1286 612 1286 971 1286 c 0,25,26
 1037 1286 1037 1286 1036 1239 c 0,27,28
 1036 1174 1036 1174 940 1176 c 0,0,1
645 418 m 0,29,30
 653 465 653 465 653 498 c 0,31,32
 653 580 653 580 612 616.5 c 128,-1,33
 571 653 571 653 496 653 c 0,34,35
 314 653 314 653 281 428 c 0,36,37
 277 395 277 395 274.5 366.5 c 128,-1,38
 272 338 272 338 272 305 c 0,39,40
 272 115 272 115 383 115 c 0,41,42
 506 115 506 115 560 180.5 c 128,-1,43
 614 246 614 246 645 418 c 0,29,30
EndSplineSet
EndChar

StartChar: seven.taml
Encoding: 121 -1 121
Width: 1304
Flags: W
LayerCount: 2
Fore
SplineSet
326 1161 m 0,0,1
 269 1184 269 1184 268 1212 c 0,2,3
 268 1216 268 1216 279 1239 c 0,4,5
 304 1278 304 1278 336 1278 c 0,6,7
 354 1278 354 1278 390 1262.5 c 128,-1,8
 426 1247 426 1247 434 1245 c 0,9,10
 467 1241 467 1241 521 1236 c 128,-1,11
 575 1231 575 1231 635 1231 c 0,12,13
 717 1231 717 1231 798 1249.5 c 128,-1,14
 879 1268 879 1268 938 1273 c 128,-1,15
 997 1278 997 1278 1092 1286 c 0,16,17
 1151 1286 1151 1286 1185 1267.5 c 128,-1,18
 1219 1249 1219 1249 1219 1235 c 0,19,20
 1219 1225 1219 1225 1200 1206 c 0,21,22
 1153 1153 1153 1153 1116 1093.5 c 128,-1,23
 1079 1034 1079 1034 1055 958 c 2,24,-1
 817 289 l 2,25,26
 770 152 770 152 670 80 c 0,27,28
 582 19 582 19 485 18 c 0,29,30
 460 18 460 18 437 20.5 c 128,-1,31
 414 23 414 23 414 45 c 0,32,33
 414 61 414 61 436 80 c 0,34,35
 532 189 532 189 584 328 c 2,36,-1
 821 997 l 2,37,38
 831 1036 831 1036 854 1084.5 c 128,-1,39
 877 1133 877 1133 895 1157 c 1,40,41
 807 1141 807 1141 726 1128.5 c 128,-1,42
 645 1116 645 1116 551 1116 c 0,43,44
 508 1116 508 1116 432.5 1131.5 c 128,-1,45
 357 1147 357 1147 326 1161 c 0,0,1
EndSplineSet
EndChar

StartChar: eight.taml
Encoding: 122 -1 122
Width: 1142
Flags: W
LayerCount: 2
Fore
SplineSet
588 346 m 0,0,1
 592 369 592 369 594 410 c 128,-1,2
 596 451 596 451 596 453 c 0,3,4
 596 535 596 535 559 580 c 128,-1,5
 522 625 522 625 440 625 c 0,6,7
 346 625 346 625 280.5 544 c 128,-1,8
 215 463 215 463 190 344 c 0,9,10
 182 305 182 305 182 274 c 0,11,12
 182 114 182 114 340 115 c 0,13,14
 444 115 444 115 503.5 177.5 c 128,-1,15
 563 240 563 240 588 346 c 0,0,1
455 700 m 1,16,17
 543 714 543 714 604.5 779 c 128,-1,18
 666 844 666 844 684 938 c 0,19,20
 688 961 688 961 690 989.5 c 128,-1,21
 692 1018 692 1018 692 1040 c 0,22,23
 692 1106 692 1106 659.5 1138.5 c 128,-1,24
 627 1171 627 1171 541 1171 c 0,25,26
 453 1171 453 1171 400.5 1109 c 128,-1,27
 348 1047 348 1047 326 938 c 0,28,29
 318 899 318 899 317 868 c 0,30,31
 317 796 317 796 353 749 c 128,-1,32
 389 702 389 702 455 700 c 1,16,17
664 672 m 1,33,34
 764 647 764 647 823 590 c 0,35,36
 897 522 897 522 897 420 c 0,37,38
 897 391 897 391 889 358 c 0,39,40
 850 176 850 176 705 82 c 0,41,42
 580 2 580 2 408 2 c 0,43,44
 357 2 357 2 305 10 c 0,45,46
 65 43 65 43 66 270 c 0,47,48
 66 307 66 307 74 354 c 0,49,50
 97 465 97 465 172 547 c 0,51,52
 238 619 238 619 332 662 c 1,53,54
 279 695 279 695 243 754 c 128,-1,55
 207 813 207 813 207 887 c 0,56,57
 207 905 207 905 211 938 c 0,58,59
 238 1075 238 1075 319 1161 c 0,60,61
 413 1257 413 1257 565 1280 c 0,62,63
 631 1288 631 1288 678 1288 c 0,64,65
 836 1288 836 1288 918 1212 c 0,66,67
 992 1144 992 1144 991 1026 c 0,68,69
 991 983 991 983 983 940 c 0,70,71
 965 838 965 838 863.5 758 c 128,-1,72
 762 678 762 678 664 672 c 1,33,34
EndSplineSet
EndChar

StartChar: nine.taml
Encoding: 123 -1 123
Width: 1247
Flags: W
LayerCount: 2
Fore
SplineSet
1075 807 m 0,0,1
 1018 438 1018 438 819 233 c 0,2,3
 588 -5 588 -5 182 -4 c 0,4,5
 114 -4 114 -4 115 43 c 0,6,7
 115 109 115 109 211 109 c 0,8,9
 485 109 485 109 672 256 c 0,10,11
 824 379 824 379 870 555 c 1,12,13
 796 487 796 487 709.5 456.5 c 128,-1,14
 623 426 623 426 537 426 c 0,15,16
 390 426 390 426 282 516 c 128,-1,17
 174 606 174 606 174 737 c 0,18,19
 174 780 174 780 178 803 c 0,20,21
 225 1028 225 1028 319 1137 c 0,22,23
 442 1280 442 1280 674 1280 c 0,24,25
 897 1280 897 1280 991 1200 c 128,-1,26
 1085 1120 1085 1120 1085 948 c 0,27,28
 1085 905 1085 905 1085 862 c 1,29,30
 1077 823 1077 823 1075 807 c 0,0,1
948 883 m 0,31,32
 952 899 952 899 952 918.5 c 128,-1,33
 952 938 952 938 952 946 c 0,34,35
 952 1042 952 1042 898 1101.5 c 128,-1,36
 844 1161 844 1161 772 1161 c 0,37,38
 649 1161 649 1161 585.5 1085.5 c 128,-1,39
 522 1010 522 1010 489 848 c 0,40,41
 481 805 481 805 481 772 c 0,42,43
 481 682 481 682 530.5 630 c 128,-1,44
 580 578 580 578 655 578 c 0,45,46
 774 578 774 578 850 672 c 0,47,48
 917 754 917 754 948 883 c 0,31,32
EndSplineSet
EndChar

StartChar: colon.taml
Encoding: 124 -1 124
Width: 673
Flags: W
LayerCount: 2
Fore
SplineSet
662 950 m 0,0,1
 646 876 646 876 580 825 c 128,-1,2
 514 774 514 774 440 774 c 0,3,4
 379 774 379 774 339 811 c 128,-1,5
 299 848 299 848 299 913 c 0,6,7
 299 921 299 921 308 972.5 c 128,-1,8
 317 1024 317 1024 379.5 1075 c 128,-1,9
 442 1126 442 1126 516 1126 c 0,10,11
 582 1126 582 1126 623 1085 c 128,-1,12
 664 1044 664 1044 664 983 c 0,13,14
 664 964 664 964 662 950 c 0,0,1
489 152 m 0,15,16
 475 78 475 78 409.5 26.5 c 128,-1,17
 344 -25 344 -25 270 -25 c 0,18,19
 209 -25 209 -25 169 15 c 128,-1,20
 129 55 129 55 129 117 c 0,21,22
 129 140 129 140 131 150 c 0,23,24
 145 224 145 224 207.5 275 c 128,-1,25
 270 326 270 326 344 326 c 0,26,27
 410 326 410 326 451 285 c 128,-1,28
 492 244 492 244 492 182 c 0,29,30
 491 164 491 164 489 152 c 0,15,16
EndSplineSet
EndChar

StartChar: semicolon.taml
Encoding: 125 -1 125
Width: 673
Flags: W
LayerCount: 2
Fore
SplineSet
645 950 m 0,0,1
 629 876 629 876 563.5 825 c 128,-1,2
 498 774 498 774 424 774 c 0,3,4
 363 774 363 774 323 811 c 128,-1,5
 283 848 283 848 283 913 c 0,6,7
 283 921 283 921 292 972.5 c 128,-1,8
 301 1024 301 1024 363.5 1075 c 128,-1,9
 426 1126 426 1126 500 1126 c 0,10,11
 566 1126 566 1126 606.5 1085 c 128,-1,12
 647 1044 647 1044 647 983 c 0,13,14
 647 964 647 964 645 950 c 0,0,1
461 100 m 0,15,16
 428 -62 428 -62 289 -180 c 0,17,18
 107 -338 107 -338 -4 -338 c 1,19,-1
 6 -291 l 1,20,21
 53 -291 53 -291 178 -188 c 0,22,23
 325 -69 325 -69 348 41 c 0,24,25
 352 74 352 74 322 74 c 0,26,27
 304 74 304 74 255.5 47 c 128,-1,28
 207 20 207 20 184 20 c 0,29,30
 145 20 145 20 114.5 63 c 128,-1,31
 84 106 84 106 84 164 c 0,32,33
 84 182 84 182 86 190 c 0,34,35
 100 256 100 256 162.5 307 c 128,-1,36
 225 358 225 358 287 358 c 0,37,38
 373 358 373 358 420 299 c 128,-1,39
 467 240 467 240 467 154 c 0,40,41
 467 137 467 137 461 100 c 0,15,16
EndSplineSet
EndChar

StartChar: less.taml
Encoding: 126 -1 126
Width: 1509
Flags: W
LayerCount: 2
Fore
SplineSet
1251 137 m 1,0,-1
 1221 -16 l 1,1,-1
 174 510 l 1,2,-1
 203 649 l 1,3,-1
 1473 1174 l 1,4,-1
 1442 1020 l 1,5,-1
 379 580 l 1,6,-1
 1251 137 l 1,0,-1
EndSplineSet
EndChar

StartChar: equal.taml
Encoding: 127 -1 127
Width: 1615
Flags: W
LayerCount: 2
Fore
SplineSet
1606 1028 m 1,0,-1
 1575 881 l 1,1,-1
 418 881 l 1,2,-1
 449 1028 l 1,3,-1
 1606 1028 l 1,0,-1
1509 569 m 1,4,-1
 1479 422 l 1,5,-1
 322 422 l 1,6,-1
 352 569 l 1,7,-1
 1509 569 l 1,4,-1
EndSplineSet
EndChar

StartChar: greater.taml
Encoding: 128 -1 128
Width: 1509
Flags: W
LayerCount: 2
Fore
SplineSet
94 137 m 1,0,-1
 1157 578 l 1,1,-1
 285 1018 l 1,2,-1
 315 1171 l 1,3,-1
 1362 647 l 1,4,-1
 1333 508 l 1,5,-1
 63 -18 l 1,6,-1
 94 137 l 1,0,-1
EndSplineSet
EndChar

StartChar: question.taml
Encoding: 129 -1 129
Width: 1140
Flags: W
LayerCount: 2
Fore
SplineSet
520 119 m 1,0,-1
 481 119 l 1,1,2
 499 209 499 209 551 317 c 0,3,4
 559 335 559 335 616 438 c 2,5,-1
 713 586 l 2,6,7
 760 666 760 666 805 761 c 128,-1,8
 850 856 850 856 861 908.5 c 128,-1,9
 872 961 872 961 872 999 c 0,10,11
 872 1093 872 1093 829 1147 c 0,12,13
 778 1208 778 1208 676 1208 c 0,14,15
 602 1208 602 1208 524 1167 c 128,-1,16
 446 1126 446 1126 436 1069 c 0,17,18
 432 1044 432 1044 451 1014 c 0,19,20
 496 942 496 942 487 899 c 0,21,22
 479 866 479 866 453.5 837.5 c 128,-1,23
 428 809 428 809 381 809 c 256,24,25
 334 809 334 809 312.5 832.5 c 128,-1,26
 291 856 291 856 291 901 c 0,27,28
 291 915 291 915 295 948 c 0,29,30
 328 1108 328 1108 475 1198 c 0,31,32
 598 1274 598 1274 737 1274 c 0,33,34
 833 1274 833 1274 919.5 1236 c 128,-1,35
 1006 1198 1006 1198 1038 1145 c 0,36,37
 1083 1071 1083 1071 1083 999 c 0,38,39
 1083 962 1083 962 1068 888.5 c 128,-1,40
 1053 815 1053 815 971 707 c 0,41,42
 912 627 912 627 823 541 c 0,43,44
 706 432 706 432 645 346 c 0,45,46
 573 250 573 250 520 119 c 1,0,-1
422 -283 m 0,47,48
 383 -283 383 -283 353.5 -263.5 c 128,-1,49
 324 -244 324 -244 324 -197 c 0,50,51
 324 -181 324 -181 331 -151 c 128,-1,52
 338 -121 338 -121 382 -84 c 128,-1,53
 426 -47 426 -47 473 -47 c 256,54,55
 520 -47 520 -47 549 -84 c 128,-1,56
 578 -121 578 -121 569 -168 c 0,57,58
 555 -225 555 -225 511 -255 c 128,-1,59
 467 -285 467 -285 422 -283 c 0,47,48
EndSplineSet
EndChar

StartChar: uni0952
Encoding: 133 2386 133
Width: 26
Flags: W
LayerCount: 2
Fore
SplineSet
-848 -311 m 1,0,-1
 -1798 -311 l 1,1,-1
 -1866 -150 l 1,2,-1
 -915 -150 l 1,3,-1
 -848 -311 l 1,0,-1
EndSplineSet
EndChar

StartChar: u0B83
Encoding: 136 2947 136
Width: 1751
Flags: W
LayerCount: 2
Fore
SplineSet
1272 1061 m 0,0,1
 1249 965 1249 965 1170.5 900.5 c 128,-1,2
 1092 836 1092 836 995 836 c 0,3,4
 913 836 913 836 862 884 c 128,-1,5
 811 932 811 932 811 1012 c 0,6,7
 811 1026 811 1026 815 1059 c 0,8,9
 833 1153 833 1153 914 1219.5 c 128,-1,10
 995 1286 995 1286 1090 1286 c 0,11,12
 1172 1286 1172 1286 1223 1235 c 128,-1,13
 1274 1184 1274 1184 1274 1104 c 0,14,15
 1274 1088 1274 1088 1272 1061 c 0,0,1
1450 225 m 0,16,17
 1427 129 1427 129 1348.5 65.5 c 128,-1,18
 1270 2 1270 2 1174 2 c 0,19,20
 1092 2 1092 2 1040.5 50 c 128,-1,21
 989 98 989 98 989 178 c 0,22,23
 989 192 989 192 993 225 c 0,24,25
 1011 319 1011 319 1092.5 386 c 128,-1,26
 1174 453 1174 453 1268 453 c 0,27,28
 1350 453 1350 453 1401 401.5 c 128,-1,29
 1452 350 1452 350 1452 270 c 0,30,31
 1452 254 1452 254 1450 225 c 0,16,17
674 225 m 0,32,33
 651 129 651 129 572.5 65.5 c 128,-1,34
 494 2 494 2 397 2 c 0,35,36
 315 2 315 2 264 50 c 128,-1,37
 213 98 213 98 213 178 c 0,38,39
 213 192 213 192 217 225 c 0,40,41
 235 319 235 319 316 386 c 128,-1,42
 397 453 397 453 492 453 c 0,43,44
 574 453 574 453 625 401.5 c 128,-1,45
 676 350 676 350 676 270 c 0,46,47
 676 254 676 254 674 225 c 0,32,33
EndSplineSet
EndChar

StartChar: u0B85
Encoding: 137 2949 137
Width: 2603
Flags: HW
AnchorPoint: "V" 1290 1305 basechar 0
AnchorPoint: "N" 1290 -79.1293 basechar 0
LayerCount: 2
Fore
SplineSet
2525 1257 m 0,0,1
 2478 1189 2478 1189 2441 1109.5 c 128,-1,2
 2404 1030 2404 1030 2382 930 c 2,3,-1
 2210 125 l 2,4,5
 2171 -70 2171 -70 2040 -172 c 0,6,7
 1923 -262 1923 -262 1786 -262 c 0,8,9
 1735 -262 1735 -262 1735 -233 c 0,10,11
 1735 -217 1735 -217 1757 -188 c 0,12,13
 1804 -122 1804 -122 1842 -41.5 c 128,-1,14
 1880 39 1880 39 1898 133 c 2,15,-1
 1956 408 l 1,16,17
 1856 322 1856 322 1645 322 c 1,18,19
 1512 123 1512 123 1257 -8 c 0,20,21
 981 -151 981 -151 664 -152 c 0,22,23
 381 -152 381 -152 227 -33 c 0,24,25
 32 119 32 119 72 295 c 0,26,27
 86 367 86 367 138 400.5 c 128,-1,28
 190 434 190 434 264 434 c 2,29,-1
 1372 434 l 1,30,31
 1403 485 1403 485 1440 600 c 0,32,33
 1465 682 1465 682 1483 758 c 128,-1,34
 1501 834 1501 834 1501 909 c 0,35,36
 1501 1042 1501 1042 1441.5 1104.5 c 128,-1,37
 1382 1167 1382 1167 1282 1167 c 0,38,39
 1208 1167 1208 1167 1147 1137 c 1,40,41
 1213 1123 1213 1123 1251 1085 c 0,42,43
 1304 1034 1304 1034 1305 946 c 0,44,45
 1305 913 1305 913 1293.5 861 c 128,-1,46
 1282 809 1282 809 1249 752 c 0,47,48
 1204 680 1204 680 1143 641 c 0,49,50
 1061 590 1061 590 932 590 c 0,51,52
 846 590 846 590 799 642 c 128,-1,53
 752 694 752 694 752 776 c 0,54,55
 752 819 752 819 756 842 c 0,56,57
 801 1061 801 1061 975 1178 c 0,58,59
 1131 1282 1131 1282 1360 1282 c 0,60,61
 1579 1282 1579 1282 1691.5 1174.5 c 128,-1,62
 1804 1067 1804 1067 1804 866 c 0,63,64
 1804 784 1804 784 1785.5 697 c 128,-1,65
 1767 610 1767 610 1751 553 c 0,66,67
 1726 473 1726 473 1708 430 c 1,68,69
 1884 430 1884 430 1985 516 c 1,70,-1
 2073 930 l 2,71,72
 2112 1125 2112 1125 2243 1229 c 0,73,74
 2360 1323 2360 1323 2497 1323 c 0,75,76
 2548 1323 2548 1323 2548 1294 c 0,77,78
 2548 1277 2548 1277 2525 1257 c 0,0,1
1087 868 m 0,79,80
 1091 901 1091 901 1092 926 c 0,81,82
 1092 973 1092 973 1073.5 1010 c 128,-1,83
 1055 1047 1055 1047 1016 1047 c 0,84,85
 965 1037 965 1037 919.5 972 c 128,-1,86
 874 907 874 907 860 840 c 0,87,88
 858 830 858 830 858 818.5 c 128,-1,89
 858 807 858 807 858 803 c 0,90,91
 858 699 858 699 940 698 c 0,92,93
 993 698 993 698 1033 745 c 128,-1,94
 1073 792 1073 792 1087 868 c 0,79,80
1307 315 m 1,95,-1
 352 315 l 2,96,97
 319 315 319 315 289.5 288.5 c 128,-1,98
 260 262 260 262 255 238.5 c 128,-1,99
 250 215 250 215 250 193 c 0,100,101
 250 103 250 103 338 41 c 0,102,103
 449 -39 449 -39 659 -39 c 0,104,105
 860 -39 860 -39 1044 80 c 0,106,107
 1188 170 1188 170 1307 315 c 1,95,-1
EndSplineSet
EndChar

StartChar: u0B86
Encoding: 138 2950 138
Width: 3012
Flags: HW
AnchorPoint: "V" 1372 1305 basechar 0
AnchorPoint: "N" 1372 -537.467 basechar 0
LayerCount: 2
Fore
SplineSet
2705 180 m 0,0,1
 2633 -168 2633 -168 2329 -365 c 0,2,3
 2057 -541 2057 -541 1704 -541 c 0,4,5
 1430 -541 1430 -541 1270 -489 c 0,6,7
 1075 -428 1075 -428 1075 -303 c 0,8,9
 1075 -280 1075 -280 1077 -270 c 0,10,11
 1093 -194 1093 -194 1167 -153.5 c 128,-1,12
 1241 -113 1241 -113 1337 -113 c 0,13,14
 1398 -113 1398 -113 1452.5 -121 c 128,-1,15
 1507 -129 1507 -129 1554 -152 c 0,16,17
 1577 -170 1577 -170 1550.5 -193.5 c 128,-1,18
 1524 -217 1524 -217 1493 -203 c 0,19,20
 1470 -195 1470 -195 1405.5 -186.5 c 128,-1,21
 1341 -178 1341 -178 1319 -178 c 0,22,23
 1258 -178 1258 -178 1206.5 -199.5 c 128,-1,24
 1155 -221 1155 -221 1147 -258 c 0,25,26
 1129 -348 1129 -348 1274 -393 c 0,27,28
 1391 -430 1391 -430 1571 -430 c 0,29,30
 1946 -430 1946 -430 2185 -256 c 0,31,32
 2398 -100 2398 -100 2449 139 c 0,33,34
 2457 172 2457 172 2458 203 c 0,35,36
 2458 269 2458 269 2427 311.5 c 128,-1,37
 2396 354 2396 354 2349 354 c 0,38,39
 2304 354 2304 354 2247 311 c 1,40,-1
 2208 121 l 2,41,42
 2165 -69 2165 -69 2034 -174 c 0,43,44
 1919 -264 1919 -264 1782 -264 c 0,45,46
 1731 -264 1731 -264 1731 -236 c 0,47,48
 1731 -220 1731 -220 1753 -190 c 0,49,50
 1800 -124 1800 -124 1838 -43.5 c 128,-1,51
 1876 37 1876 37 1894 131 c 2,52,-1
 1952 406 l 1,53,54
 1852 320 1852 320 1640 319 c 1,55,56
 1507 120 1507 120 1253 -10 c 0,57,58
 977 -153 977 -153 659 -154 c 0,59,60
 376 -154 376 -154 223 -35 c 0,61,62
 28 117 28 117 68 293 c 0,63,64
 82 365 82 365 134 398.5 c 128,-1,65
 186 432 186 432 260 432 c 2,66,-1
 1368 432 l 1,67,68
 1399 483 1399 483 1436 598 c 0,69,70
 1461 680 1461 680 1479 755.5 c 128,-1,71
 1497 831 1497 831 1497 907 c 0,72,73
 1497 1040 1497 1040 1437.5 1102.5 c 128,-1,74
 1378 1165 1378 1165 1278 1165 c 0,75,76
 1204 1165 1204 1165 1143 1135 c 1,77,78
 1209 1121 1209 1121 1247 1083 c 0,79,80
 1300 1032 1300 1032 1300 944 c 0,81,82
 1300 911 1300 911 1289 859 c 128,-1,83
 1278 807 1278 807 1245 750 c 0,84,85
 1200 678 1200 678 1139 639 c 0,86,87
 1057 588 1057 588 928 588 c 0,88,89
 842 588 842 588 795 640 c 128,-1,90
 748 692 748 692 748 774 c 0,91,92
 748 817 748 817 752 840 c 0,93,94
 797 1059 797 1059 971 1176 c 0,95,96
 1127 1280 1127 1280 1356 1280 c 0,97,98
 1575 1280 1575 1280 1687.5 1172.5 c 128,-1,99
 1800 1065 1800 1065 1800 864 c 0,100,101
 1800 782 1800 782 1781.5 695 c 128,-1,102
 1763 608 1763 608 1747 551 c 0,103,104
 1722 471 1722 471 1704 428 c 1,105,106
 1880 428 1880 428 1980 514 c 1,107,-1
 2068 928 l 2,108,109
 2107 1123 2107 1123 2238 1227 c 0,110,111
 2355 1321 2355 1321 2492 1321 c 0,112,113
 2543 1321 2543 1321 2544 1292 c 0,114,115
 2544 1276 2544 1276 2521 1247 c 0,116,117
 2474 1179 2474 1179 2437 1099.5 c 128,-1,118
 2400 1020 2400 1020 2378 920 c 2,119,-1
 2273 422 l 1,120,121
 2367 498 2367 498 2486 498 c 0,122,123
 2586 498 2586 498 2651 440.5 c 128,-1,124
 2716 383 2716 383 2716 266 c 0,125,126
 2716 243 2716 243 2716 225 c 0,127,128
 2707 192 2707 192 2705 180 c 0,0,1
1085 870 m 0,129,130
 1089 903 1089 903 1090 928 c 0,131,132
 1090 975 1090 975 1071.5 1012 c 128,-1,133
 1053 1049 1053 1049 1014 1049 c 0,134,135
 963 1039 963 1039 917.5 974 c 128,-1,136
 872 909 872 909 858 842 c 0,137,138
 856 832 856 832 856 820.5 c 128,-1,139
 856 809 856 809 856 805 c 0,140,141
 856 701 856 701 938 700 c 0,142,143
 991 700 991 700 1031 747 c 128,-1,144
 1071 794 1071 794 1085 870 c 0,129,130
1305 317 m 1,145,-1
 350 317 l 2,146,147
 317 317 317 317 287.5 290.5 c 128,-1,148
 258 264 258 264 253 240.5 c 128,-1,149
 248 217 248 217 248 195 c 0,150,151
 248 105 248 105 336 43 c 0,152,153
 447 -37 447 -37 657 -37 c 0,154,155
 858 -37 858 -37 1042 82 c 0,156,157
 1186 172 1186 172 1305 317 c 1,145,-1
EndSplineSet
EndChar

StartChar: u0B87
Encoding: 139 2951 139
Width: 2166
Flags: HW
AnchorPoint: "V" 1023 1751.83 basechar 0
AnchorPoint: "N" 1023 -451 basechar 0
LayerCount: 2
Fore
SplineSet
2066 1077 m 0,0,1
 2027 882 2027 882 1923 666 c 0,2,3
 1921 652 1921 652 1921 629 c 0,4,5
 1921 615 1921 615 1930 581 c 128,-1,6
 1939 547 1939 547 1935 516 c 0,7,8
 1931 491 1931 491 1905.5 468.5 c 128,-1,9
 1880 446 1880 446 1851 446 c 0,10,11
 1792 446 1792 446 1792 522 c 0,12,13
 1792 547 1792 547 1803.5 573.5 c 128,-1,14
 1815 600 1815 600 1838.5 677 c 128,-1,15
 1862 754 1862 754 1866 786 c 0,16,17
 1884 868 1884 868 1884 963 c 0,18,19
 1884 1201 1884 1201 1745 1346 c 0,20,21
 1598 1500 1598 1500 1329 1499 c 0,22,23
 934 1499 934 1499 653 1233 c 0,24,25
 407 1000 407 1000 332 643 c 0,26,27
 314 555 314 555 313 465 c 0,28,29
 313 342 313 342 346 240 c 1,30,31
 508 316 508 316 714 348.5 c 128,-1,32
 920 381 920 381 1161 381 c 1,33,34
 1247 557 1247 557 1278 717 c 0,35,36
 1294 793 1294 793 1294 860 c 0,37,38
 1294 975 1294 975 1247 1043.5 c 128,-1,39
 1200 1112 1200 1112 1100 1112 c 0,40,41
 1024 1112 1024 1112 965 1081 c 1,42,43
 1026 1071 1026 1071 1063 1032 c 0,44,45
 1110 981 1110 981 1110 893 c 0,46,47
 1110 860 1110 860 1098.5 809 c 128,-1,48
 1087 758 1087 758 1049 698 c 0,49,50
 1002 626 1002 626 936 588 c 0,51,52
 860 537 860 537 729 537 c 0,53,54
 643 537 643 537 599 589 c 128,-1,55
 555 641 555 641 555 723 c 0,56,57
 555 766 555 766 559 788 c 0,58,59
 604 999 604 999 772 1122 c 0,60,61
 926 1233 926 1233 1122 1233 c 0,62,63
 1353 1233 1353 1233 1468 1151 c 0,64,65
 1599 1057 1599 1057 1599 852 c 0,66,67
 1599 778 1599 778 1577 664 c 0,68,69
 1538 488 1538 488 1442 315 c 1,70,71
 1538 270 1538 270 1589 201.5 c 128,-1,72
 1640 133 1640 133 1640 31 c 0,73,74
 1640 -6 1640 -6 1632 -49 c 0,75,76
 1595 -231 1595 -231 1432.5 -341 c 128,-1,77
 1270 -451 1270 -451 995 -451 c 0,78,79
 823 -451 823 -451 666 -365 c 1,80,81
 564 -404 564 -404 454 -426.5 c 128,-1,82
 344 -449 344 -449 240 -449 c 0,83,84
 101 -449 101 -449 32 -391.5 c 128,-1,85
 -37 -334 -37 -334 -37 -233 c 0,86,87
 -37 -200 -37 -200 -29 -168 c 0,88,89
 -11 -70 -11 -70 56 18 c 128,-1,90
 123 106 123 106 225 174 c 1,91,92
 207 242 207 242 195.5 337 c 128,-1,93
 184 432 184 432 184 500 c 0,94,95
 184 631 184 631 203 731 c 0,96,97
 248 942 248 942 344 1137 c 0,98,99
 489 1428 489 1428 715 1593 c 0,100,101
 1012 1812 1012 1812 1421 1812 c 0,102,103
 1710 1812 1710 1812 1896.5 1659.5 c 128,-1,104
 2083 1507 2083 1507 2083 1239 c 0,105,106
 2082 1159 2082 1159 2066 1077 c 0,0,1
893 815 m 0,107,108
 901 848 901 848 901 885 c 0,109,110
 901 932 901 932 885.5 962.5 c 128,-1,111
 870 993 870 993 831 993 c 0,112,113
 780 983 780 983 730 916.5 c 128,-1,114
 680 850 680 850 671 802 c 128,-1,115
 662 754 662 754 662 737 c 0,116,117
 662 643 662 643 737 643 c 0,118,119
 790 643 790 643 833.5 690 c 128,-1,120
 877 737 877 737 893 815 c 0,107,108
1421 -98 m 0,121,122
 1425 -65 1425 -65 1425 -51 c 0,123,124
 1425 62 1425 62 1335 147 c 1,125,126
 1226 2 1226 2 1096.5 -112.5 c 128,-1,127
 967 -227 967 -227 809 -309 c 1,128,129
 856 -323 856 -323 908.5 -331.5 c 128,-1,130
 961 -340 961 -340 1026 -340 c 0,131,132
 1194 -340 1194 -340 1295 -271 c 128,-1,133
 1396 -202 1396 -202 1421 -98 c 0,121,122
1096 260 m 1,134,135
 1045 274 1045 274 958 274 c 0,136,137
 825 274 825 274 670.5 233.5 c 128,-1,138
 516 193 516 193 385 111 c 1,139,140
 428 11 428 11 516 -90 c 0,141,142
 584 -166 584 -166 670 -227 c 1,143,144
 793 -145 793 -145 902.5 -15 c 128,-1,145
 1012 115 1012 115 1096 260 c 1,134,135
543 -303 m 1,146,147
 455 -237 455 -237 382 -144 c 128,-1,148
 309 -51 309 -51 276 31 c 1,149,150
 174 -63 174 -63 150 -176 c 0,151,152
 146 -209 146 -209 145 -223 c 0,153,154
 145 -360 145 -360 279 -360 c 256,155,156
 412 -360 412 -360 543 -303 c 1,146,147
EndSplineSet
EndChar

StartChar: u0B88
Encoding: 140 2952 140
Width: 1796
Flags: HW
AnchorPoint: "V" 811.5 1305 basechar 0
AnchorPoint: "N" 811.5 -10 basechar 0
LayerCount: 2
Fore
SplineSet
1585 618 m 0,0,1
 1571 561 1571 561 1520.5 520 c 128,-1,2
 1470 479 1470 479 1413 479 c 0,3,4
 1366 479 1366 479 1335.5 510 c 128,-1,5
 1305 541 1305 541 1305 588 c 0,6,7
 1305 606 1305 606 1312 639 c 128,-1,8
 1319 672 1319 672 1369 713 c 128,-1,9
 1419 754 1419 754 1477 754 c 256,10,11
 1534 754 1534 754 1566.5 712.5 c 128,-1,12
 1599 671 1599 671 1585 618 c 0,0,1
1432 1169 m 0,13,14
 1338 1132 1338 1132 1279.5 1038 c 128,-1,15
 1221 944 1221 944 1182 801 c 0,16,17
 1168 754 1168 754 1122.5 566.5 c 128,-1,18
 1077 379 1077 379 1077 377 c 0,19,20
 1036 182 1036 182 905 78 c 0,21,22
 794 -10 794 -10 655 -10 c 0,23,24
 604 -10 604 -10 604 16 c 0,25,26
 604 32 604 32 627 61 c 0,27,28
 678 129 678 129 715 207 c 128,-1,29
 752 285 752 285 768 371 c 128,-1,30
 784 457 784 457 821 602 c 0,31,32
 844 698 844 698 872 803 c 0,33,34
 925 998 925 998 1038 1137 c 1,35,36
 993 1147 993 1147 930.5 1155 c 128,-1,37
 868 1163 868 1163 793 1163 c 0,38,39
 633 1163 633 1163 538.5 1080 c 128,-1,40
 444 997 444 997 406 807 c 0,41,42
 340 504 340 504 293 358 c 0,43,44
 232 163 232 163 131 33 c 0,45,46
 94 -12 94 -12 55 -12 c 0,47,48
 24 -12 24 -12 25 18 c 0,49,50
 25 41 25 41 49 74 c 0,51,52
 158 217 158 217 229 512 c 0,53,54
 254 610 254 610 305 862 c 0,55,56
 342 1032 342 1032 436 1133 c 0,57,58
 573 1276 573 1276 827 1276 c 0,59,60
 938 1276 938 1276 1044.5 1256.5 c 128,-1,61
 1151 1237 1151 1237 1268 1219 c 0,62,63
 1313 1219 1313 1219 1348.5 1227 c 128,-1,64
 1384 1235 1384 1235 1438 1266 c 0,65,66
 1463 1280 1463 1280 1485 1280 c 0,67,68
 1516 1280 1516 1280 1516 1251 c 0,69,70
 1516 1198 1516 1198 1432 1169 c 0,13,14
731 608 m 0,71,72
 717 551 717 551 666.5 510 c 128,-1,73
 616 469 616 469 559 469 c 0,74,75
 512 469 512 469 481.5 499.5 c 128,-1,76
 451 530 451 530 451 578 c 0,77,78
 451 596 451 596 458 629 c 128,-1,79
 465 662 465 662 514 702.5 c 128,-1,80
 563 743 563 743 621 743 c 256,81,82
 678 743 678 743 710.5 702 c 128,-1,83
 743 661 743 661 731 608 c 0,71,72
EndSplineSet
EndChar

StartChar: u0B89
Encoding: 141 2953 141
Width: 2766
Flags: HW
AnchorPoint: "V" 1273 1305 basechar 0
AnchorPoint: "N" 1273 22.184 basechar 0
LayerCount: 2
Fore
SplineSet
2437 68 m 0,0,1
 2363 37 2363 37 2270 18.5 c 128,-1,2
 2177 0 2177 0 2066 0 c 0,3,4
 1992 0 1992 0 1662.5 14.5 c 128,-1,5
 1333 29 1333 29 1151 29 c 0,6,7
 985 29 985 29 715.5 16.5 c 128,-1,8
 446 4 446 4 166 -6 c 0,9,10
 113 -6 113 -6 82 12 c 0,11,12
 37 39 37 39 37 104 c 0,13,14
 37 114 37 114 41 154 c 0,15,16
 66 277 66 277 328 305 c 1,17,18
 508 313 508 313 690 322 c 1,19,20
 901 353 901 353 1020 498 c 0,21,22
 1114 613 1114 613 1151 793 c 0,23,24
 1159 840 1159 840 1161 855 c 128,-1,25
 1163 870 1163 870 1163 907 c 0,26,27
 1163 1165 1163 1165 905 1165 c 0,28,29
 776 1165 776 1165 652 1122 c 128,-1,30
 528 1079 528 1079 467 993 c 1,31,32
 541 1040 541 1040 627 1040 c 0,33,34
 703 1040 703 1040 755 990 c 128,-1,35
 807 940 807 940 807 852 c 0,36,37
 807 836 807 836 803 797 c 0,38,39
 764 621 764 621 692 539 c 0,40,41
 602 437 602 437 434 436 c 0,42,43
 239 436 239 436 240 668 c 0,44,45
 240 729 240 729 256 805 c 0,46,47
 299 995 299 995 467 1128 c 0,48,49
 655 1275 655 1275 924 1276 c 0,50,51
 1215 1276 1215 1276 1354 1157 c 0,52,53
 1471 1057 1471 1057 1470 883 c 0,54,55
 1470 865 1470 865 1469 841 c 128,-1,56
 1468 817 1468 817 1460 774 c 0,57,58
 1427 612 1427 612 1362 510 c 0,59,60
 1288 393 1288 393 1155 322 c 0,61,62
 1046 263 1046 263 882.5 232 c 128,-1,63
 719 201 719 201 496 201 c 0,64,65
 353 201 353 201 338 147 c 0,66,67
 334 124 334 124 356 115 c 1,68,69
 409 115 409 115 712.5 129 c 128,-1,70
 1016 143 1016 143 1167 143 c 256,71,72
 1319 143 1319 143 1559.5 134 c 128,-1,73
 1800 125 1800 125 2058 117 c 0,74,75
 2152 117 2152 117 2228 132 c 128,-1,76
 2304 147 2304 147 2370 178 c 0,77,78
 2413 196 2413 196 2449 197 c 0,79,80
 2508 197 2508 197 2509 150 c 0,81,82
 2509 105 2509 105 2437 68 c 0,0,1
555 764 m 0,83,84
 559 797 559 797 559 807 c 0,85,86
 559 889 559 889 479 889 c 0,87,88
 440 889 440 889 411.5 855 c 128,-1,89
 383 821 383 821 370.5 763 c 128,-1,90
 358 705 358 705 358 662 c 0,91,92
 358 568 358 568 418 567 c 0,93,94
 471 567 471 567 501.5 619.5 c 128,-1,95
 532 672 532 672 555 764 c 0,83,84
EndSplineSet
EndChar

StartChar: u0B8A
Encoding: 142 2954 142
Width: 3641
Flags: HW
AnchorPoint: "V" 1815.5 1305 basechar 0
AnchorPoint: "N" 1815.5 20.4267 basechar 0
LayerCount: 2
Fore
SplineSet
3551 1198 m 0,0,1
 3477 1169 3477 1169 3430 1093.5 c 128,-1,2
 3383 1018 3383 1018 3351 905 c 0,3,4
 3341 868 3341 868 3312 755.5 c 128,-1,5
 3283 643 3283 643 3269 567 c 0,6,7
 3236 413 3236 413 3117 328 c 0,8,9
 3017 258 3017 258 2900 258 c 0,10,11
 2839 258 2839 258 2839 291 c 0,12,13
 2839 305 2839 305 2849 315 c 0,14,15
 2888 368 2888 368 2917.5 433 c 128,-1,16
 2947 498 2947 498 2963 571 c 2,17,-1
 3045 911 l 2,18,19
 3068 991 3068 991 3093.5 1045.5 c 128,-1,20
 3119 1100 3119 1100 3162 1153 c 1,21,22
 3076 1176 3076 1176 2945 1176 c 1,23,24
 2873 1147 2873 1147 2835.5 1082.5 c 128,-1,25
 2798 1018 2798 1018 2765 905 c 0,26,27
 2755 868 2755 868 2726 755.5 c 128,-1,28
 2697 643 2697 643 2683 567 c 0,29,30
 2650 413 2650 413 2531 328 c 0,31,32
 2431 258 2431 258 2314 258 c 0,33,34
 2253 258 2253 258 2253 291 c 0,35,36
 2253 305 2253 305 2263 315 c 0,37,38
 2343 424 2343 424 2376 571 c 2,39,-1
 2458 911 l 2,40,41
 2481 985 2481 985 2513 1051 c 1,42,43
 2488 1098 2488 1098 2423 1130 c 0,44,45
 2343 1173 2343 1173 2255 1174 c 0,46,47
 2114 1174 2114 1174 1991 1090 c 128,-1,48
 1868 1006 1868 1006 1794 866 c 1,49,50
 1876 917 1876 917 1976 918 c 0,51,52
 2058 918 2058 918 2109.5 872.5 c 128,-1,53
 2161 827 2161 827 2161 727 c 0,54,55
 2161 694 2161 694 2152 647 c 0,56,57
 2115 473 2115 473 2036 379 c 0,58,59
 1940 264 1940 264 1774 264 c 0,60,61
 1586 264 1586 264 1585 481 c 0,62,63
 1585 561 1585 561 1604 651 c 0,64,65
 1663 938 1663 938 1851.5 1115 c 128,-1,66
 2040 1292 2040 1292 2294 1292 c 0,67,68
 2403 1292 2403 1292 2479.5 1255.5 c 128,-1,69
 2556 1219 2556 1219 2593 1167 c 1,70,71
 2654 1226 2654 1226 2747.5 1259 c 128,-1,72
 2841 1292 2841 1292 2970 1292 c 0,73,74
 3056 1292 3056 1292 3193 1269.5 c 128,-1,75
 3330 1247 3330 1247 3361 1247 c 0,76,77
 3404 1247 3404 1247 3429.5 1252 c 128,-1,78
 3455 1257 3455 1257 3498 1282 c 0,79,80
 3521 1292 3521 1292 3543 1292 c 0,81,82
 3596 1292 3596 1292 3596 1247 c 0,83,84
 3596 1214 3596 1214 3551 1198 c 0,0,1
3205 72 m 0,85,86
 3131 41 3131 41 3038 22.5 c 128,-1,87
 2945 4 2945 4 2834 4 c 0,88,89
 2709 4 2709 4 2475 9 c 128,-1,90
 2241 14 2241 14 1937.5 22.5 c 128,-1,91
 1634 31 1634 31 1548 31 c 0,92,93
 1382 31 1382 31 982 18.5 c 128,-1,94
 582 6 582 6 164 -4 c 0,95,96
 111 -4 111 -4 80 14 c 0,97,98
 35 41 35 41 35 106 c 0,99,100
 35 116 35 116 39 156 c 0,101,102
 64 279 64 279 326 307 c 1,103,104
 506 315 506 315 688 324 c 1,105,106
 899 355 899 355 1018 500 c 0,107,108
 1112 615 1112 615 1149 795 c 0,109,110
 1157 842 1157 842 1159 857 c 128,-1,111
 1161 872 1161 872 1161 909 c 0,112,113
 1161 1167 1161 1167 905 1167 c 0,114,115
 776 1167 776 1167 652 1124 c 128,-1,116
 528 1081 528 1081 467 995 c 1,117,118
 541 1042 541 1042 627 1042 c 0,119,120
 703 1042 703 1042 755 992 c 128,-1,121
 807 942 807 942 807 854 c 0,122,123
 807 838 807 838 803 799 c 0,124,125
 764 623 764 623 692 541 c 0,126,127
 602 439 602 439 434 438 c 0,128,129
 239 438 239 438 240 670 c 0,130,131
 240 731 240 731 256 807 c 0,132,133
 297 997 297 997 465 1130 c 0,134,135
 653 1277 653 1277 922 1278 c 0,136,137
 1213 1278 1213 1278 1352 1159 c 0,138,139
 1469 1059 1469 1059 1468 885 c 0,140,141
 1468 867 1468 867 1467 843 c 128,-1,142
 1466 819 1466 819 1458 776 c 0,143,144
 1425 614 1425 614 1360 512 c 0,145,146
 1286 395 1286 395 1153 324 c 0,147,148
 1044 265 1044 265 879.5 234 c 128,-1,149
 715 203 715 203 492 203 c 0,150,151
 349 203 349 203 334 150 c 0,152,153
 330 127 330 127 352 117 c 1,154,155
 454 117 454 117 992 131 c 128,-1,156
 1530 145 1530 145 1567 145 c 0,157,158
 1721 145 1721 145 2081 136 c 128,-1,159
 2441 127 2441 127 2828 119 c 0,160,161
 2922 119 2922 119 2998 134.5 c 128,-1,162
 3074 150 3074 150 3140 180 c 0,163,164
 3183 198 3183 198 3219 199 c 0,165,166
 3278 199 3278 199 3279 152 c 0,167,168
 3279 107 3279 107 3205 72 c 0,85,86
1880 590 m 0,169,170
 1888 623 1888 623 1888 653 c 0,171,172
 1888 725 1888 725 1817 725 c 0,173,174
 1760 725 1760 725 1726 668 c 0,175,176
 1708 635 1708 635 1700 598 c 128,-1,177
 1692 561 1692 561 1690 534.5 c 128,-1,178
 1688 508 1688 508 1688 489 c 0,179,180
 1688 399 1688 399 1745 399 c 256,181,182
 1802 399 1802 399 1833 450.5 c 128,-1,183
 1864 502 1864 502 1880 590 c 0,169,170
555 768 m 0,184,185
 559 801 559 801 559 811 c 0,186,187
 559 893 559 893 479 893 c 0,188,189
 440 893 440 893 411.5 859 c 128,-1,190
 383 825 383 825 370.5 767 c 128,-1,191
 358 709 358 709 358 666 c 0,192,193
 358 572 358 572 418 571 c 0,194,195
 471 571 471 571 501.5 623.5 c 128,-1,196
 532 676 532 676 555 768 c 0,184,185
EndSplineSet
EndChar

StartChar: u0B8E
Encoding: 143 2958 143
Width: 1808
Flags: HW
AnchorPoint: "V" 939 1305 basechar 0
AnchorPoint: "N" 939 -4 basechar 0
LayerCount: 2
Fore
SplineSet
1714 1176 m 0,0,1
 1620 1139 1620 1139 1561.5 1044.5 c 128,-1,2
 1503 950 1503 950 1464 807 c 0,3,4
 1450 760 1450 760 1405 572.5 c 128,-1,5
 1360 385 1360 385 1360 383 c 0,6,7
 1317 188 1317 188 1186 84 c 0,8,9
 1075 -4 1075 -4 936 -4 c 0,10,11
 885 -4 885 -4 885 23 c 0,12,13
 885 39 885 39 907 68 c 0,14,15
 958 136 958 136 995 213.5 c 128,-1,16
 1032 291 1032 291 1048.5 377 c 128,-1,17
 1065 463 1065 463 1102 608 c 0,18,19
 1125 704 1125 704 1153 809 c 0,20,21
 1206 1004 1206 1004 1321 1143 c 1,22,23
 1270 1153 1270 1153 1204.5 1161 c 128,-1,24
 1139 1169 1139 1169 1038 1169 c 0,25,26
 798 1169 798 1169 606 1052.5 c 128,-1,27
 414 936 414 936 319 750 c 1,28,29
 366 781 366 781 420.5 800 c 128,-1,30
 475 819 475 819 528 819 c 0,31,32
 651 819 651 819 727 759.5 c 128,-1,33
 803 700 803 700 803 575 c 0,34,35
 803 559 803 559 803 543 c 0,36,37
 795 500 795 500 793 477 c 0,38,39
 748 254 748 254 651 139 c 0,40,41
 534 0 534 0 326 0 c 0,42,43
 86 0 86 0 86 272 c 0,44,45
 86 366 86 366 111 485 c 0,46,47
 187 845 187 845 432 1061 c 0,48,49
 692 1286 692 1286 1069 1286 c 0,50,51
 1216 1286 1216 1286 1319 1270 c 0,52,53
 1430 1247 1430 1247 1544 1229 c 0,54,55
 1589 1229 1589 1229 1625 1237 c 128,-1,56
 1661 1245 1661 1245 1714 1276 c 0,57,58
 1739 1290 1739 1290 1761 1290 c 0,59,60
 1792 1290 1792 1290 1792 1262 c 0,61,62
 1792 1209 1792 1209 1714 1176 c 0,0,1
485 418 m 0,63,64
 489 436 489 436 491.5 466 c 128,-1,65
 494 496 494 496 494 514 c 0,66,67
 494 625 494 625 389 625 c 0,68,69
 299 625 299 625 246 537 c 0,70,71
 215 484 215 484 198.5 400.5 c 128,-1,72
 182 317 182 317 182 260 c 0,73,74
 182 113 182 113 276 113 c 0,75,76
 362 113 362 113 416 203 c 0,77,78
 454 271 454 271 485 418 c 0,63,64
EndSplineSet
EndChar

StartChar: u0B8F
Encoding: 144 2959 144
Width: 1808
Flags: HW
AnchorPoint: "V" 941 1305 basechar 0
AnchorPoint: "N" 941 -125.952 basechar 0
LayerCount: 2
Fore
SplineSet
1714 1176 m 0,0,1
 1620 1139 1620 1139 1561.5 1044.5 c 128,-1,2
 1503 950 1503 950 1464 807 c 0,3,4
 1450 760 1450 760 1405 572.5 c 128,-1,5
 1360 385 1360 385 1360 383 c 0,6,7
 1329 223 1329 223 1229 121 c 0,8,9
 1186 76 1186 76 1090.5 36 c 128,-1,10
 995 -4 995 -4 901 -43 c 0,11,12
 829 -76 829 -76 752.5 -121 c 128,-1,13
 676 -166 676 -166 582 -225 c 1,14,15
 543 -264 543 -264 504 -303 c 1,16,17
 473 -321 473 -321 440 -313 c 0,18,19
 409 -299 409 -299 410 -266 c 0,20,21
 410 -237 410 -237 438 -213 c 0,22,23
 526 -166 526 -166 610 -109 c 0,24,25
 657 -78 657 -78 823 41 c 0,26,27
 913 107 913 107 971.5 200 c 128,-1,28
 1030 293 1030 293 1053 395 c 0,29,30
 1067 469 1067 469 1104 614 c 0,31,32
 1127 710 1127 710 1155 815 c 0,33,34
 1208 1010 1208 1010 1323 1149 c 1,35,36
 1272 1159 1272 1159 1206.5 1167.5 c 128,-1,37
 1141 1176 1141 1176 1040 1176 c 0,38,39
 800 1176 800 1176 608 1059 c 128,-1,40
 416 942 416 942 322 756 c 1,41,42
 369 787 369 787 423 806 c 128,-1,43
 477 825 477 825 530 825 c 0,44,45
 653 825 653 825 729 766 c 128,-1,46
 805 707 805 707 805 582 c 0,47,48
 805 566 805 566 805 549 c 0,49,50
 797 506 797 506 795 483 c 0,51,52
 750 260 750 260 653 145 c 0,53,54
 536 6 536 6 328 6 c 0,55,56
 88 6 88 6 88 279 c 0,57,58
 88 373 88 373 113 492 c 0,59,60
 189 852 189 852 434 1067 c 0,61,62
 694 1292 694 1292 1071 1292 c 0,63,64
 1218 1292 1218 1292 1321 1276 c 0,65,66
 1432 1253 1432 1253 1546 1235 c 0,67,68
 1591 1235 1591 1235 1627 1243 c 128,-1,69
 1663 1251 1663 1251 1716 1282 c 0,70,71
 1741 1296 1741 1296 1763 1296 c 0,72,73
 1794 1296 1794 1296 1794 1268 c 0,74,75
 1794 1215 1794 1215 1714 1176 c 0,0,1
487 424 m 0,76,77
 491 442 491 442 493.5 472 c 128,-1,78
 496 502 496 502 496 520 c 0,79,80
 496 631 496 631 391 631 c 0,81,82
 301 631 301 631 248 543 c 0,83,84
 217 490 217 490 200.5 407 c 128,-1,85
 184 324 184 324 184 266 c 0,86,87
 184 119 184 119 279 119 c 0,88,89
 365 119 365 119 418 209 c 0,90,91
 456 277 456 277 487 424 c 0,76,77
EndSplineSet
EndChar

StartChar: u0B90
Encoding: 145 2960 145
Width: 2076
Flags: HW
AnchorPoint: "V" 953.5 1305 basechar 0
AnchorPoint: "N" 953.5 -428.524 basechar 0
LayerCount: 2
Fore
SplineSet
518 864 m 0,0,1
 522 893 522 893 522 903 c 0,2,3
 522 940 522 940 507 963.5 c 128,-1,4
 492 987 492 987 459 987 c 0,5,6
 420 987 420 987 386 944 c 128,-1,7
 352 901 352 901 344 860 c 128,-1,8
 336 819 336 819 334 797.5 c 128,-1,9
 332 776 332 776 332 752 c 0,10,11
 332 672 332 672 389 672 c 256,12,13
 446 672 446 672 475 720 c 128,-1,14
 504 768 504 768 518 864 c 0,0,1
1243 1110 m 1,15,16
 1282 1178 1282 1178 1368 1225 c 0,17,18
 1464 1282 1464 1282 1581 1282 c 0,19,20
 1921 1282 1921 1282 1921 1008 c 0,21,22
 1921 963 1921 963 1907 897 c 0,23,24
 1864 694 1864 694 1612 551 c 0,25,26
 1424 442 1424 442 1137 377 c 0,27,28
 932 332 932 332 734.5 285 c 128,-1,29
 537 238 537 238 446 178 c 0,30,31
 337 104 337 104 309 -29 c 0,32,33
 305 -52 305 -52 303 -81.5 c 128,-1,34
 301 -111 301 -111 301 -135 c 0,35,36
 301 -215 301 -215 327.5 -263 c 128,-1,37
 354 -311 354 -311 414 -311 c 0,38,39
 516 -311 516 -311 609 -252 c 128,-1,40
 702 -193 702 -193 754 -82 c 1,41,-1
 770 -2 l 2,42,43
 793 102 793 102 869.5 174 c 128,-1,44
 946 246 946 246 1055 246 c 0,45,46
 1108 246 1108 246 1176 223 c 1,47,48
 1133 178 1133 178 1100 108.5 c 128,-1,49
 1067 39 1067 39 1051 -37 c 0,50,51
 1047 -60 1047 -60 1044.5 -81 c 128,-1,52
 1042 -102 1042 -102 1042 -131 c 0,53,54
 1042 -211 1042 -211 1082 -261 c 128,-1,55
 1122 -311 1122 -311 1210 -311 c 0,56,57
 1314 -311 1314 -311 1374 -215 c 0,58,59
 1417 -147 1417 -147 1448 0 c 0,60,61
 1452 25 1452 25 1460 84 c 128,-1,62
 1468 143 1468 143 1468 166 c 0,63,64
 1468 199 1468 199 1460 223 c 1,65,66
 1503 231 1503 231 1542 231 c 0,67,68
 1636 231 1636 231 1684.5 180 c 128,-1,69
 1733 129 1733 129 1733 41 c 0,70,71
 1733 8 1733 8 1724 -31 c 0,72,73
 1685 -221 1685 -221 1556 -325.5 c 128,-1,74
 1427 -430 1427 -430 1196 -430 c 0,75,76
 1034 -430 1034 -430 948 -360.5 c 128,-1,77
 862 -291 862 -291 846 -178 c 1,78,79
 780 -291 780 -291 680 -350 c 0,80,81
 551 -430 551 -430 354 -430 c 0,82,83
 172 -430 172 -430 79 -344 c 128,-1,84
 -14 -258 -14 -258 -14 -127 c 0,85,86
 -14 -88 -14 -88 -12 -70 c 0,87,88
 -4 -45 -4 -45 -4 -35 c 0,89,90
 35 145 35 145 217 242 c 0,91,92
 342 308 342 308 623 354 c 0,93,94
 1012 422 1012 422 1073 436 c 0,95,96
 1270 487 1270 487 1401 596 c 0,97,98
 1546 719 1546 719 1585 901 c 0,99,100
 1601 977 1601 977 1602 1030 c 0,101,102
 1602 1159 1602 1159 1501 1159 c 0,103,104
 1419 1159 1419 1159 1354 1098 c 0,105,106
 1307 1051 1307 1051 1278 979 c 1,107,-1
 1278 918 l 2,108,109
 1276 895 1276 895 1276 887 c 2,110,-1
 1253 786 l 2,111,112
 1235 686 1235 686 1155 614.5 c 128,-1,113
 1075 543 1075 543 967 543 c 0,114,115
 922 543 922 543 870 559 c 1,116,117
 913 606 913 606 932.5 656.5 c 128,-1,118
 952 707 952 707 971 795 c 2,119,-1
 995 911 l 2,120,121
 1003 958 1003 958 1004 995 c 0,122,123
 1004 1157 1004 1157 831 1157 c 0,124,125
 737 1157 737 1157 667.5 1140.5 c 128,-1,126
 598 1124 598 1124 532 1077 c 1,127,128
 548 1079 548 1079 582 1079 c 0,129,130
 787 1079 787 1079 786 891 c 0,131,132
 786 858 786 858 778 819 c 0,133,134
 747 682 747 682 629 608 c 0,135,136
 529 549 529 549 410 549 c 0,137,138
 207 549 207 549 207 721 c 0,139,140
 207 750 207 750 207 780 c 0,141,142
 215 811 215 811 217 821 c 0,143,144
 258 1032 258 1032 436 1154 c 128,-1,145
 614 1276 614 1276 860 1276 c 0,146,147
 1003 1276 1003 1276 1093.5 1228 c 128,-1,148
 1184 1180 1184 1180 1243 1110 c 1,15,16
EndSplineSet
EndChar

StartChar: u0B92
Encoding: 146 2962 146
Width: 1990
Flags: HW
AnchorPoint: "V" 956.5 1305 basechar 0
AnchorPoint: "N" 956.5 -355.871 basechar 0
LayerCount: 2
Fore
SplineSet
1788 655 m 0,0,1
 1743 442 1743 442 1595.5 318.5 c 128,-1,2
 1448 195 1448 195 1208 195 c 0,3,4
 1085 195 1085 195 1033 263.5 c 128,-1,5
 981 332 981 332 981 449 c 0,6,7
 981 525 981 525 997 600 c 1,8,9
 921 475 921 475 922 371 c 0,10,11
 922 240 922 240 1036.5 168 c 128,-1,12
 1151 96 1151 96 1303 96 c 0,13,14
 1336 96 1336 96 1335 59 c 0,15,16
 1335 2 1335 2 1282 2 c 2,17,-1
 1143 2 l 2,18,19
 1067 2 1067 2 918.5 -210 c 128,-1,20
 770 -422 770 -422 479 -422 c 0,21,22
 342 -422 342 -422 268.5 -331 c 128,-1,23
 195 -240 195 -240 195 -94 c 1,24,-1
 256 -76 l 1,25,26
 256 -185 256 -185 310.5 -247 c 128,-1,27
 365 -309 365 -309 479 -309 c 0,28,29
 577 -309 577 -309 657 -178 c 0,30,31
 700 -104 700 -104 745 -31 c 0,32,33
 776 16 776 16 831.5 39.5 c 128,-1,34
 887 63 887 63 991 63 c 1,35,36
 934 73 934 73 883 135 c 0,37,38
 822 211 822 211 821 315 c 0,39,40
 821 346 821 346 829 385 c 0,41,42
 852 500 852 500 911.5 609.5 c 128,-1,43
 971 719 971 719 1108 850 c 0,44,45
 1159 897 1159 897 1204 897 c 0,46,47
 1241 897 1241 897 1241 868 c 0,48,49
 1241 858 1241 858 1233 850 c 0,50,51
 1151 760 1151 760 1151 758 c 0,52,53
 1112 697 1112 697 1083 551 c 0,54,55
 1079 528 1079 528 1077 506.5 c 128,-1,56
 1075 485 1075 485 1075 461 c 0,57,58
 1075 385 1075 385 1112 342 c 128,-1,59
 1149 299 1149 299 1231 299 c 0,60,61
 1319 299 1319 299 1391 414 c 0,62,63
 1448 508 1448 508 1485 674 c 0,64,65
 1493 713 1493 713 1495 732.5 c 128,-1,66
 1497 752 1497 752 1497 795 c 0,67,68
 1497 957 1497 957 1401 1051 c 0,69,70
 1286 1162 1286 1162 1047 1161 c 0,71,72
 822 1161 822 1161 627 1053 c 0,73,74
 453 957 453 957 387 825 c 1,75,76
 446 858 446 858 514 858 c 0,77,78
 614 858 614 858 681 798.5 c 128,-1,79
 748 739 748 739 748 625 c 0,80,81
 748 588 748 588 739 545 c 0,82,83
 708 389 708 389 594 289 c 0,84,85
 469 178 469 178 289 178 c 0,86,87
 207 178 207 178 162 229 c 0,88,89
 109 288 109 288 109 403 c 0,90,91
 109 450 109 450 123 530 c 0,92,93
 199 892 199 892 485 1094 c 0,94,95
 745 1276 745 1276 1087 1276 c 0,96,97
 1398 1276 1398 1276 1587 1161 c 0,98,99
 1804 1030 1804 1030 1804 778 c 0,100,101
 1804 749 1804 749 1802 713.5 c 128,-1,102
 1800 678 1800 678 1788 655 c 0,0,1
371 696 m 0,103,104
 320 696 320 696 283 638 c 128,-1,105
 246 580 246 580 227 489 c 0,106,107
 223 464 223 464 219 435 c 128,-1,108
 215 406 215 406 215 389 c 0,109,110
 215 342 215 342 231.5 318.5 c 128,-1,111
 248 295 248 295 293 295 c 0,112,113
 354 295 354 295 391 367 c 0,114,115
 416 418 416 418 438 522 c 0,116,117
 446 569 446 569 446 600 c 0,118,119
 447 700 447 700 371 696 c 0,103,104
EndSplineSet
EndChar

StartChar: u0B93
Encoding: 147 2963 147
Width: 1990
Flags: HW
AnchorPoint: "V" 942 1305 basechar 0
AnchorPoint: "N" 942 -368.359 basechar 0
LayerCount: 2
Fore
SplineSet
305 -229 m 0,0,1
 350 -229 350 -229 383 -191.5 c 128,-1,2
 416 -154 416 -154 424 -112 c 128,-1,3
 432 -70 432 -70 432 -59 c 0,4,5
 432 23 432 23 358 23 c 0,6,7
 290 23 290 23 260.5 -17 c 128,-1,8
 231 -57 231 -57 217 -125 c 0,9,10
 209 -176 209 -176 234.5 -204.5 c 128,-1,11
 260 -233 260 -233 305 -229 c 0,0,1
365 707 m 0,12,13
 314 707 314 707 277 648.5 c 128,-1,14
 240 590 240 590 221 500 c 0,15,16
 217 475 217 475 213 445.5 c 128,-1,17
 209 416 209 416 209 399 c 0,18,19
 209 352 209 352 225.5 328.5 c 128,-1,20
 242 305 242 305 287 305 c 0,21,22
 348 305 348 305 385 377 c 0,23,24
 410 428 410 428 432 532 c 0,25,26
 440 579 440 579 440 610 c 0,27,28
 441 711 441 711 365 707 c 0,12,13
465 -309 m 0,29,30
 563 -309 563 -309 643 -178 c 0,31,32
 686 -104 686 -104 731 -31 c 0,33,34
 762 16 762 16 817 39.5 c 128,-1,35
 872 63 872 63 977 63 c 1,36,37
 920 73 920 73 868 135 c 0,38,39
 807 211 807 211 807 315 c 0,40,41
 807 346 807 346 815 385 c 0,42,43
 838 500 838 500 897 609.5 c 128,-1,44
 956 719 956 719 1094 850 c 0,45,46
 1145 897 1145 897 1190 897 c 0,47,48
 1227 897 1227 897 1227 868 c 0,49,50
 1227 858 1227 858 1219 850 c 0,51,52
 1137 760 1137 760 1137 758 c 0,53,54
 1098 697 1098 697 1069 551 c 0,55,56
 1065 528 1065 528 1063 506.5 c 128,-1,57
 1061 485 1061 485 1061 461 c 0,58,59
 1061 385 1061 385 1098 342 c 128,-1,60
 1135 299 1135 299 1217 299 c 0,61,62
 1305 299 1305 299 1376 414 c 0,63,64
 1433 508 1433 508 1470 674 c 0,65,66
 1478 713 1478 713 1480.5 732.5 c 128,-1,67
 1483 752 1483 752 1483 795 c 0,68,69
 1483 957 1483 957 1386 1051 c 0,70,71
 1271 1162 1271 1162 1032 1161 c 0,72,73
 807 1161 807 1161 612 1053 c 0,74,75
 438 957 438 957 373 825 c 1,76,77
 432 858 432 858 500 858 c 0,78,79
 600 858 600 858 666.5 798.5 c 128,-1,80
 733 739 733 739 733 625 c 0,81,82
 733 588 733 588 725 545 c 0,83,84
 694 389 694 389 580 289 c 0,85,86
 455 178 455 178 274 178 c 0,87,88
 192 178 192 178 147 229 c 0,89,90
 94 288 94 288 94 403 c 0,91,92
 94 450 94 450 109 530 c 0,93,94
 185 892 185 892 471 1094 c 0,95,96
 731 1276 731 1276 1073 1276 c 0,97,98
 1384 1276 1384 1276 1573 1161 c 0,99,100
 1790 1030 1790 1030 1790 778 c 0,101,102
 1790 749 1790 749 1788 713.5 c 128,-1,103
 1786 678 1786 678 1778 645 c 0,104,105
 1733 432 1733 432 1585.5 308 c 128,-1,106
 1438 184 1438 184 1198 184 c 0,107,108
 1075 184 1075 184 1023 253 c 128,-1,109
 971 322 971 322 971 438 c 0,110,111
 971 514 971 514 987 590 c 1,112,113
 911 465 911 465 911 360 c 0,114,115
 911 229 911 229 1026 157.5 c 128,-1,116
 1141 86 1141 86 1292 86 c 0,117,118
 1325 86 1325 86 1325 49 c 0,119,120
 1325 -8 1325 -8 1272 -8 c 2,121,-1
 1133 -8 l 2,122,123
 1057 -8 1057 -8 908.5 -220 c 128,-1,124
 760 -432 760 -432 469 -432 c 0,125,126
 309 -432 309 -432 212 -367.5 c 128,-1,127
 115 -303 115 -303 115 -174 c 0,128,129
 115 -141 115 -141 123 -102 c 0,130,131
 141 -6 141 -6 214 55.5 c 128,-1,132
 287 117 287 117 406 117 c 0,133,134
 502 117 502 117 543 76 c 128,-1,135
 584 35 584 35 584 -33 c 0,136,137
 584 -49 584 -49 580 -88 c 0,138,139
 564 -164 564 -164 512.5 -228.5 c 128,-1,140
 461 -293 461 -293 418 -307 c 1,141,142
 428 -309 428 -309 465 -309 c 0,29,30
EndSplineSet
EndChar

StartChar: u0B95
Encoding: 149 2965 149
Width: 1914
Flags: HW
AnchorPoint: "V" 1301.5 1305 basechar 0
AnchorPoint: "N" 1301.5 -8 basechar 0
LayerCount: 2
Fore
SplineSet
1663 430 m 0,0,1
 1624 242 1624 242 1499 123 c 0,2,3
 1362 -8 1362 -8 1167 -8 c 0,4,5
 1116 -8 1116 -8 1116 29 c 0,6,7
 1116 52 1116 52 1139 66 c 0,8,9
 1227 119 1227 119 1286 244 c 0,10,11
 1325 332 1325 332 1350 442 c 0,12,13
 1352 465 1352 465 1356 487.5 c 128,-1,14
 1360 510 1360 510 1360 532 c 0,15,16
 1360 686 1360 686 1143 686 c 1,17,-1
 1090 461 l 2,18,19
 1047 244 1047 244 904.5 121 c 128,-1,20
 762 -2 762 -2 532 -2 c 0,21,22
 313 -2 313 -2 191.5 67.5 c 128,-1,23
 70 137 70 137 70 270 c 0,24,25
 70 313 70 313 74 336 c 0,26,27
 111 502 111 502 202 604.5 c 128,-1,28
 293 707 293 707 469 754 c 1,29,-1
 492 864 l 2,30,31
 531 1052 531 1052 627 1155 c 0,32,33
 742 1278 742 1278 926 1278 c 0,34,35
 1026 1278 1026 1278 1112 1252.5 c 128,-1,36
 1198 1227 1198 1227 1257 1227 c 0,37,38
 1310 1227 1310 1227 1343 1234 c 128,-1,39
 1376 1241 1376 1241 1423 1266 c 0,40,41
 1448 1280 1448 1280 1470 1280 c 0,42,43
 1501 1280 1501 1280 1501 1251 c 0,44,45
 1501 1198 1501 1198 1419 1165 c 0,46,47
 1315 1120 1315 1120 1247 1004 c 0,48,49
 1229 971 1229 971 1210.5 922.5 c 128,-1,50
 1192 874 1192 874 1174 801 c 1,51,52
 1407 801 1407 801 1536 732.5 c 128,-1,53
 1665 664 1665 664 1665 512 c 0,54,55
 1665 475 1665 475 1663 430 c 0,0,1
1040 1145 m 1,56,57
 1003 1155 1003 1155 979.5 1162 c 128,-1,58
 956 1169 956 1169 897 1169 c 0,59,60
 825 1169 825 1169 780 1151 c 128,-1,61
 735 1133 735 1133 696 1081 c 0,62,63
 637 1007 637 1007 586 782 c 1,64,65
 615 786 615 786 717 793.5 c 128,-1,66
 819 801 819 801 864 801 c 1,67,68
 897 918 897 918 936 991 c 0,69,70
 959 1030 959 1030 981 1063 c 128,-1,71
 1003 1096 1003 1096 1040 1145 c 1,56,57
827 680 m 1,72,73
 688 680 688 680 597 636 c 128,-1,74
 506 592 506 592 456 508 c 128,-1,75
 406 424 406 424 383 315 c 0,76,77
 375 268 375 268 375 238 c 0,78,79
 375 113 375 113 514 113 c 0,80,81
 645 113 645 113 711 240 c 0,82,83
 740 297 740 297 776 467 c 0,84,85
 792 549 792 549 797 577.5 c 128,-1,86
 802 606 802 606 827 680 c 1,72,73
EndSplineSet
EndChar

StartChar: u0B95_u0BBF
Encoding: 150 -1 150
Width: 1945
Flags: HW
AnchorPoint: "V" 1301.5 1861.05 basechar 0
AnchorPoint: "N" 1301.5 -8 basechar 0
LayerCount: 2
Fore
SplineSet
1044 1149 m 1,0,1
 1007 1159 1007 1159 984 1166.5 c 128,-1,2
 961 1174 961 1174 901 1174 c 0,3,4
 829 1174 829 1174 784 1155.5 c 128,-1,5
 739 1137 739 1137 700 1085 c 0,6,7
 641 1011 641 1011 590 786 c 1,8,9
 619 790 619 790 721 797.5 c 128,-1,10
 823 805 823 805 868 805 c 1,11,12
 901 922 901 922 940 995 c 0,13,14
 963 1034 963 1034 985 1067 c 128,-1,15
 1007 1100 1007 1100 1044 1149 c 1,0,1
831 684 m 1,16,17
 692 684 692 684 601 640 c 128,-1,18
 510 596 510 596 460 512 c 128,-1,19
 410 428 410 428 387 319 c 0,20,21
 379 272 379 272 379 242 c 0,22,23
 379 117 379 117 518 117 c 0,24,25
 649 117 649 117 715 244 c 0,26,27
 744 301 744 301 780 471 c 0,28,29
 796 553 796 553 801 581.5 c 128,-1,30
 806 610 806 610 831 684 c 1,16,17
1090 1524 m 0,31,32
 1129 1710 1129 1710 1247 1819 c 0,33,34
 1384 1942 1384 1942 1599 1942 c 0,35,36
 1761 1942 1761 1942 1841 1855.5 c 128,-1,37
 1921 1769 1921 1769 1921 1616 c 0,38,39
 1921 1530 1921 1530 1901.5 1435.5 c 128,-1,40
 1882 1341 1882 1341 1839 1237 c 0,41,42
 1810 1165 1810 1165 1745 1032 c 0,43,44
 1743 1024 1743 1024 1743 1015 c 128,-1,45
 1743 1006 1743 1006 1743 1004 c 0,46,47
 1743 986 1743 986 1758.5 952 c 128,-1,48
 1774 918 1774 918 1769 887 c 0,49,50
 1765 862 1765 862 1739.5 839.5 c 128,-1,51
 1714 817 1714 817 1686 817 c 0,52,53
 1655 817 1655 817 1635.5 845.5 c 128,-1,54
 1616 874 1616 874 1616 907 c 0,55,56
 1616 917 1616 917 1620 940 c 0,57,58
 1708 1149 1708 1149 1798 1360 c 1,59,60
 1808 1407 1808 1407 1808 1458 c 0,61,62
 1808 1567 1808 1567 1747 1625 c 128,-1,63
 1686 1683 1686 1683 1552 1683 c 0,64,65
 1398 1683 1398 1683 1305 1607.5 c 128,-1,66
 1212 1532 1212 1532 1188 1409 c 0,67,68
 1184 1370 1184 1370 1184 1339 c 0,69,70
 1184 1271 1184 1271 1202 1249 c 1,71,-1
 1262 1245 l 2,72,73
 1315 1245 1315 1245 1347.5 1252.5 c 128,-1,74
 1380 1260 1380 1260 1427 1284 c 0,75,76
 1452 1298 1452 1298 1475 1298 c 0,77,78
 1506 1298 1506 1298 1505 1270 c 0,79,80
 1505 1217 1505 1217 1423 1184 c 0,81,82
 1319 1139 1319 1139 1251 1022 c 0,83,84
 1233 989 1233 989 1214.5 941 c 128,-1,85
 1196 893 1196 893 1178 819 c 1,86,87
 1411 819 1411 819 1540 750.5 c 128,-1,88
 1669 682 1669 682 1669 530 c 0,89,90
 1669 493 1669 493 1661 446 c 0,91,92
 1622 258 1622 258 1497 139 c 0,93,94
 1360 8 1360 8 1165 8 c 0,95,96
 1114 8 1114 8 1114 45 c 0,97,98
 1114 68 1114 68 1137 82 c 0,99,100
 1225 135 1225 135 1284 260 c 0,101,102
 1323 348 1323 348 1348 459 c 0,103,104
 1350 482 1350 482 1354 504 c 128,-1,105
 1358 526 1358 526 1358 549 c 0,106,107
 1358 703 1358 703 1141 702 c 1,108,-1
 1087 477 l 2,109,110
 1044 260 1044 260 902 137 c 128,-1,111
 760 14 760 14 530 14 c 0,112,113
 311 14 311 14 189.5 84 c 128,-1,114
 68 154 68 154 68 287 c 0,115,116
 68 330 68 330 72 352 c 0,117,118
 109 518 109 518 200 620.5 c 128,-1,119
 291 723 291 723 467 770 c 1,120,-1
 489 881 l 2,121,122
 528 1069 528 1069 625 1171 c 0,123,124
 740 1294 740 1294 924 1294 c 0,125,126
 969 1294 969 1294 997.5 1292 c 128,-1,127
 1026 1290 1026 1290 1079 1276 c 1,128,129
 1075 1299 1075 1299 1073 1321 c 128,-1,130
 1071 1343 1071 1343 1071 1389 c 0,131,132
 1072 1454 1072 1454 1090 1524 c 0,31,32
EndSplineSet
EndChar

